<svg t="1684915863093" class="icon" viewBox="0 0 1024 1024" version="1.1" xmlns="http://www.w3.org/2000/svg" p-id="13769" width="200" height="200"><path d="M872.802928 755.99406 872.864326 755.99406 872.864326 755.624646Z" fill="#232832" p-id="13770"></path><path d="M641.612475 478.465233 378.562407 478.465233c-18.447141 0-33.352619 13.225209-33.352619 29.515221 0 16.305361 14.905478 29.544897 33.352619 29.544897l263.050068 0c18.417465 0 33.383318-13.239536 33.383318-29.544897C674.995793 491.690442 660.088268 478.465233 641.612475 478.465233" fill="#232832" p-id="13771"></path><path d="M512.006651 94.661963c-228.163513 0-413.794327 158.926616-413.794327 354.272699 0 99.213629 49.568952 192.906521 136.968511 260.892939l101.667517 78.787414c-3.004427 16.778128-15.917528 56.111972-30.527271 92.115977-4.582365 11.159154-1.845021 23.979134 6.78452 32.340569 5.623068 5.445012 13.06148 8.30106 20.588921 8.30106 4.046153 0 8.123005-0.831948 12.019755-2.527566 33.6811-14.997576 115.680673-55.042617 173.285648-115.920126 224.933959-3.243881 406.785703-160.637584 406.785703-353.989243C925.785629 253.588579 740.185514 94.661963 512.006651 94.661963M510.431783 744.875838c-1.847068 0-1.847068 0.029676-3.571339 0.326435-12.734022 1.457188-28.682249 18.655895-28.682249 18.655895s-52.634778 52.692083-96.758718 77.745688c16.096607-53.705156 13.269211-73.488735 8.123005-81.138972-1.279133-1.992377-2.707668-3.508917-4.432962-4.670369l0.118704-0.058328c0 0-0.416486-0.208754-1.130753-0.595564-0.38681-0.237407-0.773619-0.416486-1.190105-0.655939-13.449313-7.198959-83.338057-46.055942-140.16839-100.506065-55.101969-57.871035-85.421508-135.467321-85.421508-205.04498 0-162.780387 159.121044-295.226908 354.689185-295.226908 195.567117 0 354.688161 132.447545 354.688161 295.226908C866.694813 611.728352 705.998901 744.875838 510.431783 744.875838" fill="#232832" p-id="13772"></path><path d="M645.450896 360.374674l-266.88849 0c-18.447141 0-33.383318 13.224186-33.383318 29.515221 0 16.304338 14.936177 29.529547 33.383318 29.529547l266.88849 0c18.47784 0 33.352619-13.225209 33.352619-29.529547C678.803515 373.59886 663.928736 360.374674 645.450896 360.374674" fill="#232832" p-id="13773"></path></svg>