<svg class="icon" viewBox="0 0 1024 1024" version="1.1" xmlns="http://www.w3.org/2000/svg" width="200" height="200">]
<path d="M779.7 588.6c-23.2 0-45.3 4.4-65.7 12.5L282.9 108.3c-10.2-11.6-27.9-12.8-39.5-2.6-11.6 10.2-12.8 27.9-2.6 39.5l424.4 485.1c-39.3 32.8-64.3 82.2-64.3 137.2 0 98.6 80.2 178.8 178.8 178.8 98.6 0 178.8-80.2 178.8-178.8s-80.2-178.9-178.8-178.9z m0 301.7c-67.7 0-122.8-55.1-122.8-122.8 0-67.7 55.1-122.8 122.8-122.8 67.7 0 122.8 55.1 122.8 122.8 0 67.7-55.1 122.8-122.8 122.8z" fill="#232832" p-id="6499"></path>
<path d="M779.7 105.6c-11.6-10.2-29.3-9-39.5 2.6L309 601.1c-20.3-8.1-42.5-12.5-65.7-12.5-98.6 0-178.8 80.2-178.8 178.8s80.2 178.8 178.8 178.8c98.6 0 178.8-80.2 178.8-178.8 0-55.1-25-104.4-64.3-137.2l424.4-485.1c10.3-11.6 9.1-29.3-2.5-39.5zM243.4 890.3c-67.7 0-122.8-55.1-122.8-122.8 0-67.7 55.1-122.8 122.8-122.8 67.7 0 122.8 55.1 122.8 122.8 0 67.7-55.1 122.8-122.8 122.8z" fill="#232832" p-id="6500"></path>
</svg>