<svg id="svg" version="1.1" xmlns="http://www.w3.org/2000/svg" xmlns:xlink="http://www.w3.org/1999/xlink" width="400" height="410" viewBox="0, 0, 400,410"><g id="svgg"><path id="path0" d="M118.880 18.880 C 118.149 19.611,118.304 20.680,119.271 21.580 C 119.750 22.026,120.020 22.513,119.871 22.662 C 119.722 22.811,119.600 22.742,119.600 22.509 C 119.600 22.276,119.159 22.111,118.620 22.142 C 117.804 22.190,117.660 22.379,117.763 23.267 C 117.832 23.855,117.736 24.575,117.550 24.867 C 117.276 25.299,117.211 25.301,117.206 24.876 C 117.203 24.574,116.989 24.472,116.700 24.635 C 116.300 24.861,116.300 24.810,116.700 24.379 C 117.317 23.714,117.359 23.055,116.760 23.425 C 116.453 23.614,116.458 23.438,116.777 22.842 C 117.326 21.818,116.272 21.142,115.473 22.006 C 115.107 22.402,115.113 22.454,115.500 22.235 C 115.775 22.080,116.000 22.128,116.000 22.343 C 116.000 22.558,115.775 22.825,115.500 22.936 C 115.124 23.089,115.148 23.244,115.600 23.563 C 116.007 23.851,116.039 23.990,115.700 23.994 C 115.425 23.997,115.200 24.191,115.200 24.424 C 115.200 24.657,115.425 24.720,115.700 24.565 C 116.100 24.339,116.100 24.390,115.700 24.821 C 115.425 25.118,115.200 25.515,115.200 25.704 C 115.200 25.893,115.425 25.912,115.700 25.747 C 116.090 25.512,116.096 25.575,115.727 26.032 C 114.889 27.068,114.990 57.034,115.833 57.357 C 116.385 57.569,116.406 57.711,115.964 58.244 C 115.674 58.593,115.395 59.265,115.344 59.739 C 115.293 60.213,115.338 60.394,115.445 60.142 C 115.667 59.617,117.200 59.903,117.200 60.470 C 117.200 60.678,117.335 60.768,117.500 60.671 C 118.145 60.291,119.600 61.203,119.600 61.987 C 119.600 62.434,119.791 62.800,120.024 62.800 C 120.257 62.800,120.320 63.006,120.164 63.258 C 119.966 63.578,120.228 63.650,121.033 63.496 C 122.031 63.305,122.093 63.343,121.499 63.777 C 121.121 64.053,120.930 64.396,121.073 64.540 C 121.610 65.077,315.918 64.838,316.135 64.300 C 316.246 64.025,316.351 114.324,316.368 176.076 C 316.389 250.530,316.265 288.436,316.000 288.600 C 315.780 288.736,315.600 289.107,315.600 289.424 C 315.600 289.845,315.822 289.778,316.425 289.175 C 317.222 288.378,318.127 288.257,317.996 288.965 C 317.961 289.155,318.172 289.466,318.466 289.655 C 318.911 289.943,318.911 290.057,318.466 290.344 C 318.039 290.620,318.063 290.738,318.587 290.940 C 318.947 291.078,319.139 291.025,319.014 290.823 C 318.889 290.621,318.936 290.363,319.119 290.250 C 319.724 289.876,319.412 292.421,318.800 292.847 C 318.345 293.164,318.491 293.212,319.400 293.048 C 320.060 292.929,320.375 292.930,320.100 293.049 C 319.825 293.169,319.600 293.522,319.600 293.833 C 319.600 294.145,319.384 294.400,319.120 294.400 C 318.773 294.400,318.761 294.521,319.077 294.837 C 319.732 295.492,321.330 294.536,321.030 293.669 C 320.841 293.123,320.904 293.137,321.372 293.740 C 321.688 294.147,322.139 294.361,322.373 294.216 C 322.623 294.062,322.800 294.295,322.800 294.776 C 322.800 295.229,323.010 295.600,323.267 295.600 C 323.523 295.600,323.618 295.716,323.476 295.857 C 323.335 295.998,322.975 295.911,322.676 295.663 C 322.262 295.319,322.133 295.349,322.133 295.789 C 322.133 296.106,322.240 296.299,322.371 296.218 C 322.502 296.137,322.956 296.325,323.381 296.635 C 323.805 296.946,323.939 297.200,323.676 297.200 C 323.414 297.200,323.200 297.399,323.200 297.643 C 323.200 297.886,323.470 297.982,323.800 297.855 C 324.130 297.729,324.400 297.799,324.400 298.013 C 324.400 298.793,355.232 298.508,355.807 297.723 C 356.273 297.086,356.343 297.086,356.980 297.723 C 358.729 299.472,361.631 298.242,361.538 295.791 C 361.495 294.664,361.343 294.163,361.141 294.482 C 360.897 294.866,360.811 294.819,360.806 294.300 C 360.803 293.915,360.980 293.600,361.200 293.600 C 361.420 293.600,361.600 293.319,361.600 292.976 C 361.600 292.633,361.420 292.464,361.200 292.600 C 360.980 292.736,360.800 292.657,360.800 292.424 C 360.800 292.191,361.025 291.987,361.300 291.972 C 361.575 291.956,361.440 291.789,361.000 291.600 C 360.560 291.411,360.446 291.244,360.747 291.228 C 361.092 291.210,361.216 290.906,361.084 290.400 C 360.969 289.960,361.039 289.600,361.239 289.600 C 361.456 289.600,361.601 236.240,361.599 156.800 C 361.596 51.168,361.493 23.999,361.098 23.994 C 360.789 23.990,360.752 23.876,361.000 23.694 C 361.603 23.251,361.668 22.401,361.100 22.394 C 360.766 22.390,360.799 22.262,361.197 22.010 C 361.690 21.699,361.518 21.350,360.216 20.016 L 358.638 18.400 241.545 18.400 C 117.359 18.400,122.655 18.308,122.190 20.476 C 121.794 22.321,121.634 22.491,120.946 21.803 C 120.614 21.471,120.086 21.200,119.771 21.200 C 119.457 21.200,119.200 21.040,119.200 20.844 C 119.200 20.649,119.515 20.514,119.900 20.544 C 120.339 20.579,120.579 20.339,120.544 19.900 C 120.514 19.515,120.649 19.200,120.844 19.200 C 121.337 19.200,121.291 20.149,120.773 20.667 C 120.471 20.969,120.500 21.153,120.873 21.295 C 121.566 21.561,121.769 19.155,121.090 18.724 C 120.370 18.266,119.427 18.333,118.880 18.880 M360.000 18.751 C 360.000 19.255,361.174 20.159,361.459 19.874 C 361.869 19.465,361.257 18.400,360.613 18.400 C 360.276 18.400,360.000 18.558,360.000 18.751 M119.700 19.533 C 118.902 20.369,118.591 20.321,118.938 19.417 C 119.068 19.078,119.451 18.800,119.787 18.800 C 120.306 18.800,120.292 18.913,119.700 19.533 M359.100 19.500 C 359.192 19.775,359.061 20.000,358.810 20.000 C 358.558 20.000,358.464 19.820,358.600 19.600 C 358.765 19.334,319.616 19.200,241.459 19.200 C 137.109 19.200,124.081 19.267,124.159 19.803 C 124.238 20.338,137.368 20.416,241.224 20.501 L 358.200 20.597 241.640 20.699 C 153.498 20.776,124.943 20.915,124.518 21.268 C 124.082 21.630,123.983 21.619,124.077 21.221 C 124.145 20.938,123.878 20.652,123.484 20.586 C 122.922 20.492,122.820 20.654,123.010 21.333 C 123.202 22.019,123.165 22.075,122.832 21.600 C 122.244 20.760,122.290 20.510,123.201 19.599 C 124.202 18.598,358.767 18.500,359.100 19.500 M116.000 60.750 C 115.670 60.888,115.337 61.450,115.261 62.000 C 115.184 62.550,115.261 62.863,115.431 62.696 C 115.818 62.317,117.653 63.990,117.364 64.458 C 117.248 64.646,117.461 64.800,117.838 64.800 C 118.477 64.800,118.479 64.750,117.862 64.069 C 117.054 63.175,117.023 62.800,117.757 62.800 C 118.281 62.800,118.993 63.870,118.872 64.475 C 118.842 64.625,119.153 64.724,119.565 64.693 C 120.576 64.616,120.214 63.858,118.565 62.601 C 117.513 61.798,117.200 61.701,117.200 62.180 C 117.200 62.954,116.647 62.979,116.027 62.232 C 115.655 61.784,115.707 61.580,116.274 61.262 C 117.109 60.795,116.887 60.381,116.000 60.750 M115.427 63.875 C 115.110 64.700,115.386 64.961,116.129 64.537 C 116.612 64.261,116.623 64.113,116.195 63.718 C 115.783 63.338,115.620 63.371,115.427 63.875 M267.700 64.300 C 241.465 64.357,198.535 64.357,172.300 64.300 C 146.065 64.243,167.530 64.197,220.000 64.197 C 272.470 64.197,293.935 64.243,267.700 64.300 M46.046 95.954 C 45.581 96.419,45.200 97.240,45.200 97.777 C 45.200 98.550,45.027 98.721,44.373 98.595 C 43.848 98.494,43.610 98.612,43.723 98.918 C 43.820 99.183,44.116 99.351,44.380 99.290 C 44.644 99.230,44.736 99.380,44.585 99.625 C 44.400 99.924,44.178 99.938,43.906 99.666 C 43.216 98.976,42.279 99.571,42.890 100.312 C 43.313 100.825,43.298 100.895,42.800 100.722 C 42.470 100.608,42.225 100.220,42.255 99.861 C 42.285 99.502,42.152 99.306,41.959 99.425 C 41.767 99.544,41.727 99.334,41.872 98.958 C 42.115 98.323,39.565 98.302,38.933 98.933 C 38.520 99.347,38.327 102.000,38.710 102.000 C 38.938 102.000,39.035 101.657,38.926 101.237 C 38.691 100.340,40.066 98.799,41.100 98.802 C 41.640 98.804,41.540 99.012,40.665 99.712 C 39.849 100.365,39.488 101.057,39.380 102.176 C 39.297 103.031,39.042 103.918,38.814 104.146 C 38.278 104.682,38.274 105.725,38.810 105.394 C 39.319 105.079,39.142 106.098,38.623 106.471 C 38.391 106.638,38.427 107.141,38.714 107.771 C 38.996 108.389,39.027 108.800,38.791 108.800 C 38.537 108.800,38.400 155.551,38.400 242.400 C 38.400 328.314,38.538 376.000,38.787 376.000 C 39.001 376.000,39.064 376.288,38.929 376.640 C 38.794 376.993,38.935 377.440,39.242 377.634 C 39.689 377.917,39.660 377.989,39.100 377.994 C 38.314 378.001,38.118 378.797,38.900 378.806 C 39.227 378.810,39.255 378.914,38.981 379.106 C 38.302 379.582,38.339 381.309,39.022 381.047 C 39.777 380.757,39.753 380.990,38.946 381.797 C 38.457 382.285,38.407 382.567,38.746 382.906 C 39.085 383.245,39.200 383.221,39.200 382.813 C 39.200 382.513,39.319 382.386,39.464 382.531 C 39.610 382.676,39.401 383.157,39.000 383.600 C 38.599 384.043,38.400 384.534,38.558 384.691 C 38.715 384.848,39.011 384.712,39.216 384.388 C 39.499 383.940,39.589 383.927,39.594 384.333 C 39.597 384.627,39.825 384.792,40.100 384.700 C 40.375 384.608,40.580 384.053,40.555 383.466 C 40.530 382.880,40.665 382.400,40.855 382.400 C 41.045 382.400,41.200 382.940,41.200 383.600 C 41.200 384.260,41.380 384.822,41.600 384.850 C 41.820 384.878,42.180 384.945,42.400 385.000 C 42.620 385.055,42.926 385.123,43.080 385.150 C 43.234 385.178,43.137 385.423,42.863 385.697 C 42.468 386.092,42.290 386.072,41.989 385.597 C 41.705 385.146,41.611 385.299,41.606 386.220 C 41.597 388.069,44.133 389.403,44.997 388.005 C 45.137 387.778,44.977 387.711,44.621 387.847 C 44.279 387.978,44.000 387.916,44.000 387.709 C 44.000 386.897,44.552 386.862,45.508 387.613 C 46.694 388.546,48.899 388.643,49.743 387.800 C 50.418 387.125,50.976 386.992,50.603 387.595 C 50.263 388.146,278.489 388.351,278.894 387.800 C 279.056 387.580,279.191 387.557,279.194 387.749 C 279.197 387.941,279.468 387.876,279.796 387.604 C 280.123 387.332,280.293 386.950,280.172 386.755 C 280.051 386.560,280.278 386.387,280.676 386.372 C 281.259 386.349,281.283 386.291,280.800 386.072 C 280.004 385.711,279.879 383.868,280.671 384.172 C 280.985 384.292,281.139 384.225,281.014 384.023 C 280.889 383.821,280.959 383.549,281.169 383.419 C 281.379 383.289,281.736 383.502,281.963 383.892 C 282.190 384.281,282.381 384.375,282.388 384.100 C 282.395 383.825,282.591 383.600,282.824 383.600 C 283.057 383.600,283.160 383.741,283.053 383.914 C 282.946 384.087,283.192 384.229,283.600 384.229 C 284.008 384.229,284.263 384.103,284.168 383.948 C 284.073 383.794,284.221 383.577,284.498 383.466 C 284.887 383.309,284.882 383.256,284.476 383.232 C 284.188 383.214,284.067 383.016,284.206 382.790 C 284.345 382.565,284.244 382.430,283.980 382.490 C 283.716 382.551,283.409 382.350,283.298 382.044 C 283.187 381.739,283.263 381.592,283.467 381.718 C 284.282 382.221,284.888 381.345,284.201 380.658 C 283.590 380.047,283.602 380.000,284.371 380.000 C 284.841 380.000,285.200 379.740,285.200 379.400 C 285.200 379.070,285.374 378.800,285.587 378.800 C 285.801 378.800,285.880 379.047,285.764 379.350 C 285.619 379.728,285.871 379.900,286.569 379.900 C 287.164 379.900,287.480 379.729,287.331 379.488 C 287.184 379.251,287.272 379.197,287.539 379.362 C 287.864 379.563,287.882 379.874,287.600 380.400 C 287.210 381.129,287.628 381.838,288.144 381.322 C 288.606 380.861,288.412 379.669,287.771 379.029 C 287.403 378.660,287.331 378.400,287.598 378.400 C 287.872 378.400,287.952 378.080,287.800 377.600 C 287.654 377.141,287.728 376.800,287.973 376.800 C 288.275 376.800,288.400 337.390,288.400 242.400 C 288.400 155.970,288.262 108.000,288.013 108.000 C 287.799 108.000,287.723 107.744,287.844 107.431 C 288.014 106.988,287.722 106.889,286.531 106.985 C 285.091 107.101,284.412 106.722,284.412 105.800 C 284.412 105.580,284.587 105.670,284.800 106.000 C 285.037 106.367,285.190 106.414,285.194 106.120 C 285.197 105.856,284.885 105.446,284.500 105.209 C 283.876 104.825,283.896 104.790,284.682 104.889 C 285.167 104.950,285.564 104.820,285.564 104.600 C 285.564 104.380,285.228 104.254,284.817 104.319 C 284.407 104.385,283.956 104.252,283.815 104.024 C 283.656 103.767,283.820 103.709,284.245 103.873 C 284.747 104.065,284.844 103.994,284.604 103.606 C 284.386 103.254,284.431 103.172,284.738 103.362 C 285.013 103.532,285.200 103.390,285.200 103.011 C 285.200 102.661,285.605 102.197,286.100 101.981 C 286.895 101.634,286.848 101.604,285.703 101.724 C 284.990 101.799,284.492 101.775,284.597 101.670 C 284.702 101.565,284.475 101.248,284.094 100.966 C 283.502 100.529,283.482 100.376,283.959 99.927 C 284.428 99.485,284.477 99.516,284.263 100.121 C 284.124 100.517,284.165 100.745,284.355 100.628 C 284.794 100.357,284.810 98.400,284.373 98.400 C 283.843 98.400,282.811 100.095,283.078 100.527 C 283.216 100.749,283.121 100.798,282.862 100.638 C 282.608 100.481,282.400 100.543,282.400 100.776 C 282.400 101.009,282.580 101.200,282.800 101.200 C 283.020 101.200,283.200 101.344,283.200 101.520 C 283.200 101.696,282.770 101.840,282.245 101.840 C 281.394 101.840,281.336 101.740,281.709 100.920 C 281.940 100.414,282.299 100.000,282.507 100.000 C 282.715 100.000,282.778 99.721,282.647 99.379 C 282.493 98.978,282.571 98.858,282.866 99.041 C 283.135 99.207,283.215 99.147,283.060 98.896 C 282.906 98.647,281.754 98.514,280.298 98.576 C 278.924 98.634,277.561 98.495,277.270 98.267 C 276.894 97.973,276.648 98.000,276.425 98.359 C 276.190 98.739,276.042 98.686,275.834 98.145 C 275.596 97.525,275.498 97.506,275.141 98.011 C 274.797 98.497,274.764 98.478,274.950 97.900 C 275.074 97.515,275.023 97.200,274.836 97.200 C 274.321 97.200,273.571 98.238,273.870 98.537 C 274.015 98.682,273.923 98.800,273.667 98.800 C 272.807 98.800,273.172 97.263,274.100 96.973 C 274.595 96.819,275.138 96.491,275.307 96.246 C 275.511 95.950,275.948 96.177,276.607 96.922 C 277.433 97.856,277.607 97.923,277.640 97.322 C 277.669 96.797,277.776 96.872,278.034 97.600 C 278.331 98.437,278.356 98.374,278.187 97.212 C 277.800 94.557,273.671 94.756,272.400 97.491 L 271.800 98.783 161.700 98.791 C 54.016 98.800,51.600 98.783,51.600 98.044 C 51.600 95.762,47.704 94.296,46.046 95.954 M106.500 95.500 C 136.805 95.557,186.395 95.557,216.700 95.500 C 247.005 95.443,222.210 95.397,161.600 95.397 C 100.990 95.397,76.195 95.443,106.500 95.500 M49.500 95.852 C 49.995 95.985,50.400 96.263,50.400 96.470 C 50.400 96.678,50.175 96.718,49.900 96.559 C 49.610 96.392,49.540 96.424,49.733 96.636 C 49.917 96.836,50.274 97.000,50.528 97.000 C 51.187 97.000,51.368 98.399,50.779 98.942 C 50.395 99.296,50.359 99.264,50.618 98.800 C 50.907 98.283,50.860 98.276,50.277 98.749 C 49.730 99.193,49.600 99.197,49.600 98.773 C 49.600 98.450,49.368 98.547,48.999 99.024 C 48.597 99.543,48.470 99.591,48.616 99.167 C 48.752 98.774,48.607 98.533,48.235 98.533 C 47.905 98.533,47.728 98.683,47.841 98.867 C 47.955 99.050,47.756 99.200,47.400 99.200 C 47.013 99.200,46.867 99.385,47.038 99.662 C 47.216 99.950,47.148 100.015,46.855 99.834 C 46.598 99.675,46.491 99.377,46.617 99.172 C 46.744 98.968,46.657 98.800,46.424 98.800 C 46.191 98.800,46.000 99.106,46.000 99.480 C 46.000 99.924,45.864 100.024,45.608 99.768 C 45.058 99.218,45.854 96.525,46.716 96.023 C 47.510 95.560,48.243 95.515,49.500 95.852 M277.416 96.027 C 277.840 96.713,277.461 96.780,276.623 96.167 C 275.974 95.693,275.954 95.600,276.500 95.600 C 276.859 95.600,277.271 95.792,277.416 96.027 M275.440 96.735 C 275.313 96.941,275.461 97.318,275.769 97.574 C 276.100 97.849,276.423 97.886,276.560 97.665 C 276.687 97.459,276.539 97.082,276.231 96.826 C 275.900 96.551,275.577 96.514,275.440 96.735 M41.456 101.191 C 41.179 101.526,40.983 102.205,41.021 102.700 C 41.114 103.897,40.942 103.835,40.204 102.407 C 39.624 101.286,39.638 101.162,40.440 100.360 C 41.441 99.359,42.353 100.105,41.456 101.191 M43.095 101.715 C 43.032 101.905,42.850 102.047,42.690 102.030 C 42.531 102.014,42.119 102.000,41.776 102.000 C 41.433 102.000,41.257 101.831,41.384 101.625 C 41.672 101.160,43.252 101.243,43.095 101.715 M285.776 102.838 C 285.347 103.533,286.688 104.672,287.260 104.100 C 287.615 103.745,287.604 103.486,287.214 103.017 C 286.611 102.290,286.151 102.233,285.776 102.838 M287.125 103.575 C 287.225 103.875,287.075 104.025,286.775 103.925 C 286.486 103.829,286.171 103.514,286.075 103.225 C 285.975 102.925,286.125 102.775,286.425 102.875 C 286.714 102.971,287.029 103.286,287.125 103.575 M288.060 103.737 C 288.027 104.143,287.640 104.569,287.200 104.684 C 286.760 104.799,286.400 105.153,286.400 105.470 C 286.400 105.788,286.220 105.936,286.000 105.800 C 285.780 105.664,285.600 105.743,285.600 105.976 C 285.600 106.616,286.393 106.484,286.655 105.800 C 286.917 105.119,288.000 104.977,288.000 105.624 C 288.000 105.857,287.820 105.936,287.600 105.800 C 287.380 105.664,287.200 105.743,287.200 105.976 C 287.200 106.600,287.990 106.492,288.242 105.834 C 288.362 105.522,288.383 104.757,288.290 104.134 C 288.196 103.510,288.093 103.332,288.060 103.737 M287.646 111.118 C 287.049 111.317,287.004 373.600,287.600 373.600 C 287.820 373.600,288.000 374.129,288.000 374.776 C 288.000 376.019,287.480 376.620,286.781 376.188 C 286.495 376.011,286.514 375.745,286.840 375.352 C 287.207 374.910,287.211 374.414,286.860 373.241 C 286.074 370.617,286.212 111.854,287.000 111.200 C 287.330 110.926,287.621 110.409,287.646 110.051 C 287.680 109.579,287.748 109.616,287.892 110.185 C 288.002 110.616,287.891 111.036,287.646 111.118 M241.600 241.402 L 241.600 341.600 161.600 341.600 L 81.600 341.600 81.600 241.833 C 81.600 186.961,81.508 141.826,81.396 141.533 C 81.226 141.090,94.738 141.017,161.396 141.102 L 241.600 141.204 241.600 241.402 M315.383 291.772 C 315.488 292.637,315.804 293.563,316.087 293.829 C 316.832 294.534,318.400 294.939,318.400 294.427 C 318.400 294.192,318.158 294.000,317.862 294.000 C 317.157 294.000,316.217 292.896,315.649 291.400 C 315.200 290.218,315.196 290.223,315.383 291.772 M360.016 294.524 C 359.991 294.692,360.248 295.105,360.586 295.443 C 361.434 296.291,361.354 297.089,360.369 297.617 C 359.191 298.247,358.280 297.807,358.610 296.768 C 358.845 296.027,358.782 295.981,358.062 296.367 C 357.525 296.654,357.164 296.666,357.001 296.401 C 356.864 296.180,356.573 296.000,356.353 296.000 C 356.133 296.000,356.081 296.208,356.238 296.462 C 356.415 296.748,356.348 296.815,356.062 296.638 C 355.414 296.238,355.486 295.600,356.180 295.600 C 356.499 295.600,356.954 295.285,357.190 294.900 C 357.577 294.271,357.609 294.268,357.510 294.874 C 357.449 295.244,357.580 295.548,357.800 295.548 C 358.020 295.548,358.147 295.244,358.083 294.874 C 357.985 294.306,358.029 294.293,358.362 294.789 C 358.700 295.293,358.796 295.277,359.028 294.672 C 359.285 294.002,360.110 293.879,360.016 294.524 M346.100 294.699 C 342.745 294.766,337.255 294.766,333.900 294.699 C 330.545 294.632,333.290 294.578,340.000 294.578 C 346.710 294.578,349.455 294.632,346.100 294.699 M359.167 295.300 C 358.619 296.944,359.327 298.044,360.304 297.067 C 360.821 296.551,360.841 296.331,360.417 295.820 C 359.972 295.284,359.269 294.992,359.167 295.300 M318.880 296.080 C 318.298 296.662,318.258 297.465,318.795 297.797 C 319.033 297.944,319.083 297.754,318.921 297.321 C 318.688 296.702,318.741 296.673,319.289 297.119 C 319.719 297.469,320.014 297.501,320.188 297.219 C 320.433 296.823,320.172 296.646,319.500 296.753 C 318.997 296.832,319.166 296.080,319.700 295.865 C 319.975 295.754,320.011 295.649,319.780 295.632 C 319.549 295.614,319.144 295.816,318.880 296.080 M352.885 295.928 C 353.262 296.078,347.464 296.200,340.000 296.200 C 332.536 296.200,326.738 296.078,327.115 295.928 C 327.492 295.779,333.290 295.656,340.000 295.656 C 346.710 295.656,352.508 295.779,352.885 295.928 M360.292 296.524 C 360.039 297.284,359.371 297.231,359.371 296.450 C 359.371 295.983,359.576 295.769,359.903 295.895 C 360.195 296.007,360.370 296.290,360.292 296.524 M352.800 296.800 C 353.350 296.976,347.590 297.120,340.000 297.120 C 332.410 297.120,326.650 296.976,327.200 296.800 C 327.750 296.624,333.510 296.480,340.000 296.480 C 346.490 296.480,352.250 296.624,352.800 296.800 M320.300 297.667 C 319.628 298.371,319.650 298.400,320.849 298.400 C 321.976 298.400,322.046 298.332,321.562 297.700 C 321.267 297.315,321.020 296.985,321.013 296.967 C 321.006 296.948,320.685 297.263,320.300 297.667 M347.500 297.899 C 343.375 297.964,336.625 297.964,332.500 297.899 C 328.375 297.834,331.750 297.781,340.000 297.781 C 348.250 297.781,351.625 297.834,347.500 297.899 M284.000 385.371 C 284.000 385.685,283.415 386.419,282.700 387.001 C 281.500 387.979,281.477 388.040,282.400 387.790 C 283.796 387.412,285.368 384.800,284.200 384.800 C 284.090 384.800,284.000 385.057,284.000 385.371 M43.600 386.976 C 43.600 387.293,43.404 387.674,43.165 387.822 C 42.600 388.171,41.829 387.400,42.178 386.835 C 42.571 386.200,43.600 386.303,43.600 386.976 " stroke="none" fill="#444444" fill-rule="evenodd"></path><path id="path1" d="M121.229 18.818 C 121.814 19.180,121.477 21.527,120.873 21.295 C 120.500 21.153,120.471 20.969,120.773 20.667 C 121.008 20.432,121.200 20.018,121.200 19.747 C 121.200 19.090,119.625 18.615,119.120 19.120 C 118.595 19.645,119.102 21.200,119.798 21.200 C 120.098 21.200,120.626 21.483,120.973 21.830 C 121.469 22.326,121.638 22.347,121.769 21.930 C 121.861 21.638,122.101 20.860,122.301 20.200 C 122.512 19.507,122.990 18.943,123.433 18.864 C 124.167 18.734,124.165 18.754,123.401 19.331 C 122.622 19.919,122.793 20.582,123.733 20.618 C 123.990 20.628,124.145 20.884,124.077 21.186 C 123.982 21.615,124.079 21.633,124.518 21.268 C 124.943 20.915,153.498 20.776,241.640 20.699 L 358.200 20.597 241.224 20.501 C 137.368 20.416,124.238 20.338,124.159 19.803 C 124.081 19.267,137.109 19.200,241.459 19.200 C 319.616 19.200,358.765 19.334,358.600 19.600 C 358.464 19.820,358.563 20.000,358.819 20.000 C 359.099 20.000,359.178 19.720,359.017 19.301 C 358.849 18.861,359.204 19.037,359.974 19.776 C 361.361 21.104,361.450 21.271,360.600 20.945 C 360.270 20.818,360.000 20.898,360.000 21.122 C 360.000 21.652,361.313 21.460,361.499 20.904 C 361.577 20.669,361.219 20.055,360.702 19.539 L 359.764 18.600 240.320 18.600 C 174.626 18.600,121.035 18.698,121.229 18.818 M120.622 19.635 C 121.034 20.302,120.107 21.067,119.555 20.515 C 119.093 20.053,119.382 19.200,120.000 19.200 C 120.194 19.200,120.474 19.396,120.622 19.635 M118.400 21.157 C 118.400 21.370,118.009 21.602,117.531 21.672 C 116.967 21.755,116.641 22.108,116.600 22.681 C 116.565 23.166,116.686 23.471,116.868 23.358 C 117.381 23.041,117.260 23.775,116.700 24.379 C 116.300 24.810,116.300 24.861,116.700 24.635 C 116.989 24.472,117.203 24.574,117.206 24.876 C 117.211 25.301,117.276 25.299,117.550 24.867 C 117.736 24.575,117.832 23.855,117.763 23.267 C 117.660 22.379,117.804 22.190,118.620 22.142 C 119.159 22.111,119.600 22.276,119.600 22.509 C 119.600 22.742,119.722 22.811,119.871 22.662 C 120.020 22.513,119.750 22.026,119.271 21.580 C 118.792 21.134,118.400 20.943,118.400 21.157 M115.200 58.049 C 115.200 58.755,115.300 58.815,115.796 58.404 C 116.398 57.904,116.269 57.200,115.576 57.200 C 115.369 57.200,115.200 57.582,115.200 58.049 M115.371 60.074 C 115.371 60.621,115.582 60.793,116.086 60.662 C 116.479 60.559,116.800 60.638,116.800 60.837 C 116.800 61.195,116.169 61.368,115.411 61.218 C 115.197 61.175,115.360 61.514,115.773 61.970 C 116.665 62.956,117.200 63.034,117.200 62.180 C 117.200 61.706,117.536 61.815,118.619 62.642 C 119.399 63.237,119.959 63.929,119.863 64.180 C 119.767 64.431,120.048 64.664,120.489 64.697 C 120.930 64.730,121.183 64.650,121.051 64.518 C 120.920 64.387,121.121 64.053,121.499 63.777 C 122.093 63.343,122.031 63.305,121.033 63.496 C 120.228 63.650,119.966 63.578,120.164 63.258 C 120.320 63.006,120.257 62.800,120.024 62.800 C 119.791 62.800,119.600 62.423,119.600 61.963 C 119.600 61.240,118.199 60.379,117.645 60.761 C 117.559 60.820,117.379 60.718,117.245 60.534 C 116.553 59.589,115.371 59.299,115.371 60.074 M115.366 62.945 C 115.078 63.696,115.827 64.800,116.625 64.800 C 117.596 64.800,117.584 64.125,116.598 63.198 C 115.733 62.385,115.592 62.356,115.366 62.945 M117.200 63.138 C 117.200 63.485,118.775 65.054,118.831 64.762 C 118.847 64.673,118.922 64.284,118.995 63.898 C 119.069 63.512,118.966 63.298,118.765 63.422 C 118.564 63.546,118.400 63.457,118.400 63.224 C 118.400 62.991,118.130 62.800,117.800 62.800 C 117.470 62.800,117.200 62.952,117.200 63.138 M172.300 64.300 C 198.535 64.357,241.465 64.357,267.700 64.300 C 293.935 64.243,272.470 64.197,220.000 64.197 C 167.530 64.197,146.065 64.243,172.300 64.300 M315.698 64.633 C 315.297 65.062,315.216 87.943,315.298 178.085 C 315.409 300.777,315.257 292.808,317.502 293.795 C 318.142 294.076,318.400 294.530,318.400 295.375 C 318.400 296.297,318.507 296.453,318.880 296.080 C 319.144 295.816,319.517 295.600,319.709 295.600 C 319.900 295.600,319.774 295.883,319.429 296.229 C 318.622 297.035,318.632 297.560,319.458 297.878 C 319.842 298.025,320.309 297.865,320.580 297.495 C 320.998 296.924,321.093 296.937,321.526 297.630 C 322.025 298.429,324.400 298.746,324.400 298.013 C 324.400 297.799,324.130 297.729,323.800 297.855 C 323.470 297.982,323.200 297.886,323.200 297.643 C 323.200 297.399,323.414 297.200,323.676 297.200 C 323.939 297.200,323.805 296.946,323.381 296.635 C 322.956 296.325,322.502 296.137,322.371 296.218 C 322.240 296.299,322.133 296.106,322.133 295.789 C 322.133 295.349,322.262 295.319,322.676 295.663 C 322.975 295.911,323.335 295.998,323.476 295.857 C 323.618 295.716,323.523 295.600,323.267 295.600 C 323.010 295.600,322.800 295.229,322.800 294.776 C 322.800 294.295,322.623 294.062,322.373 294.216 C 322.139 294.361,321.688 294.147,321.372 293.740 C 320.904 293.137,320.841 293.123,321.030 293.669 C 321.330 294.536,319.732 295.492,319.077 294.837 C 318.761 294.521,318.773 294.400,319.120 294.400 C 319.384 294.400,319.600 294.145,319.600 293.833 C 319.600 293.522,319.825 293.169,320.100 293.049 C 320.375 292.930,320.060 292.929,319.400 293.048 C 318.491 293.212,318.345 293.164,318.800 292.847 C 319.412 292.421,319.724 289.876,319.119 290.250 C 318.936 290.363,318.889 290.621,319.014 290.823 C 319.139 291.025,318.947 291.078,318.587 290.940 C 318.063 290.738,318.039 290.620,318.466 290.344 C 318.911 290.057,318.911 289.943,318.466 289.655 C 318.172 289.466,317.961 289.155,317.996 288.965 C 318.127 288.257,317.222 288.378,316.425 289.175 C 315.904 289.696,315.600 289.808,315.600 289.480 C 315.600 289.194,315.780 288.780,316.001 288.559 C 316.267 288.293,316.368 250.547,316.301 176.127 C 316.220 86.231,316.101 64.202,315.698 64.633 M47.940 95.666 C 46.527 95.955,45.600 96.920,45.600 98.100 C 45.600 98.541,45.420 98.736,45.160 98.575 C 44.897 98.413,44.930 98.685,45.243 99.252 C 45.686 100.057,45.787 100.094,45.912 99.500 C 45.993 99.115,46.236 98.800,46.453 98.800 C 46.670 98.800,46.744 98.968,46.617 99.172 C 46.491 99.377,46.598 99.675,46.855 99.834 C 47.148 100.015,47.216 99.950,47.038 99.662 C 46.867 99.385,47.013 99.200,47.400 99.200 C 47.756 99.200,47.955 99.050,47.841 98.867 C 47.728 98.683,47.905 98.533,48.235 98.533 C 48.607 98.533,48.752 98.774,48.616 99.167 C 48.470 99.591,48.597 99.543,48.999 99.024 C 49.368 98.547,49.600 98.450,49.600 98.773 C 49.600 99.197,49.730 99.193,50.277 98.749 C 50.860 98.276,50.907 98.283,50.618 98.800 C 50.359 99.264,50.395 99.296,50.779 98.942 C 51.368 98.399,51.187 97.000,50.528 97.000 C 50.274 97.000,49.917 96.836,49.733 96.636 C 49.540 96.424,49.610 96.392,49.900 96.559 C 50.180 96.720,50.400 96.640,50.400 96.377 C 50.400 96.093,50.060 95.996,49.542 96.131 C 48.887 96.302,48.795 96.245,49.153 95.887 C 49.839 95.201,50.919 95.999,51.383 97.534 L 51.765 98.800 161.883 98.800 C 255.595 98.800,272.000 98.717,272.000 98.244 C 272.000 97.241,273.374 96.007,274.798 95.732 C 276.396 95.422,275.818 96.423,274.081 96.974 C 273.169 97.264,272.820 98.800,273.667 98.800 C 273.923 98.800,274.015 98.682,273.870 98.537 C 273.571 98.238,274.321 97.200,274.836 97.200 C 275.023 97.200,275.074 97.515,274.950 97.900 C 274.764 98.478,274.797 98.497,275.141 98.011 C 275.498 97.506,275.596 97.525,275.834 98.145 C 276.050 98.708,276.184 98.750,276.439 98.337 C 276.700 97.915,276.868 97.908,277.263 98.303 C 277.537 98.577,277.891 98.800,278.052 98.800 C 278.403 98.800,277.756 96.396,277.275 95.915 C 276.879 95.519,49.865 95.272,47.940 95.666 M277.120 96.480 C 277.384 96.744,277.600 97.214,277.600 97.524 C 277.600 97.934,277.409 97.880,276.900 97.325 C 276.515 96.906,276.333 96.767,276.497 97.018 C 276.929 97.682,276.366 98.069,275.732 97.543 C 275.323 97.204,275.301 96.960,275.644 96.547 C 276.202 95.875,276.501 95.861,277.120 96.480 M42.032 98.663 C 42.014 98.917,41.657 99.035,41.237 98.926 C 40.225 98.661,38.661 100.225,38.926 101.237 C 39.035 101.657,39.007 102.000,38.862 102.000 C 38.717 102.000,38.591 102.539,38.582 103.197 C 38.560 104.855,39.196 104.071,39.375 102.219 C 39.536 100.557,40.203 99.669,41.472 99.425 C 42.037 99.316,42.284 99.464,42.250 99.890 C 42.223 100.233,42.470 100.608,42.800 100.722 C 43.298 100.895,43.313 100.825,42.890 100.312 C 42.279 99.571,43.216 98.976,43.906 99.666 C 44.178 99.938,44.410 99.907,44.617 99.573 C 44.815 99.252,44.759 99.178,44.459 99.364 C 44.199 99.524,43.889 99.375,43.754 99.025 C 43.622 98.681,43.343 98.400,43.134 98.400 C 42.924 98.400,42.864 98.580,43.000 98.800 C 43.136 99.020,43.072 99.200,42.857 99.200 C 42.642 99.200,42.376 98.975,42.265 98.700 C 42.129 98.364,42.053 98.352,42.032 98.663 M282.694 98.639 C 282.563 98.771,282.552 99.131,282.670 99.439 C 282.789 99.748,282.715 100.000,282.507 100.000 C 282.299 100.000,281.940 100.414,281.709 100.920 C 281.336 101.740,281.394 101.840,282.245 101.840 C 282.770 101.840,283.200 101.696,283.200 101.520 C 283.200 101.344,283.020 101.200,282.800 101.200 C 282.580 101.200,282.400 101.009,282.400 100.776 C 282.400 100.543,282.625 100.482,282.900 100.641 C 283.175 100.799,283.271 100.786,283.114 100.612 C 282.712 100.166,283.553 98.724,284.039 99.024 C 284.299 99.185,284.279 99.463,283.985 99.818 C 283.522 100.376,283.767 101.200,284.396 101.200 C 284.797 101.200,284.697 99.604,284.251 98.883 C 283.935 98.371,283.094 98.239,282.694 98.639 M40.440 100.360 C 39.638 101.162,39.624 101.286,40.204 102.407 C 40.942 103.835,41.114 103.897,41.021 102.700 C 40.983 102.205,41.179 101.526,41.456 101.191 C 42.353 100.105,41.441 99.359,40.440 100.360 M41.384 101.625 C 41.257 101.831,41.433 102.000,41.776 102.000 C 42.119 102.000,42.531 102.014,42.690 102.030 C 42.850 102.047,43.032 101.905,43.095 101.715 C 43.252 101.243,41.672 101.160,41.384 101.625 M285.317 102.796 C 285.203 103.233,284.922 103.475,284.693 103.334 C 284.432 103.173,284.399 103.274,284.604 103.606 C 284.844 103.994,284.747 104.065,284.245 103.873 C 283.820 103.709,283.656 103.767,283.815 104.024 C 283.956 104.252,284.370 104.388,284.735 104.326 C 285.101 104.264,285.400 104.387,285.400 104.600 C 285.400 104.813,285.040 104.940,284.600 104.882 C 283.868 104.786,283.860 104.814,284.500 105.209 C 284.885 105.446,285.197 105.856,285.194 106.120 C 285.190 106.414,285.037 106.367,284.800 106.000 C 284.587 105.670,284.412 105.580,284.412 105.800 C 284.412 106.722,285.091 107.101,286.531 106.985 C 287.722 106.889,288.014 106.988,287.844 107.431 C 287.723 107.744,287.799 108.000,288.013 108.000 C 288.447 108.000,288.527 106.797,288.157 105.833 C 287.850 105.032,286.958 105.012,286.655 105.800 C 286.393 106.484,285.600 106.616,285.600 105.976 C 285.600 105.743,285.780 105.664,286.000 105.800 C 286.220 105.936,286.400 105.788,286.400 105.470 C 286.400 105.153,286.760 104.799,287.200 104.684 C 288.088 104.452,288.266 103.226,287.520 102.480 C 286.776 101.736,285.548 101.912,285.317 102.796 M287.214 103.017 C 287.604 103.486,287.615 103.745,287.260 104.100 C 286.688 104.672,285.347 103.533,285.776 102.838 C 286.151 102.233,286.611 102.290,287.214 103.017 M286.075 103.225 C 286.171 103.514,286.486 103.829,286.775 103.925 C 287.075 104.025,287.225 103.875,287.125 103.575 C 287.029 103.286,286.714 102.971,286.425 102.875 C 286.125 102.775,285.975 102.925,286.075 103.225 M287.646 110.051 C 287.621 110.409,287.330 110.926,287.000 111.200 C 286.212 111.854,286.074 370.617,286.860 373.241 C 287.211 374.414,287.207 374.910,286.840 375.352 C 286.514 375.745,286.495 376.011,286.781 376.188 C 287.480 376.620,288.000 376.019,288.000 374.776 C 288.000 374.129,287.820 373.600,287.600 373.600 C 287.004 373.600,287.049 111.317,287.646 111.118 C 287.891 111.036,288.002 110.616,287.892 110.185 C 287.748 109.616,287.680 109.579,287.646 110.051 M81.200 141.300 C 81.200 141.465,117.335 141.556,161.500 141.503 C 205.665 141.449,228.750 141.359,212.800 141.303 C 135.557 141.030,81.200 141.029,81.200 141.300 M361.071 290.240 C 361.206 290.593,361.065 291.040,360.758 291.234 C 360.311 291.517,360.340 291.589,360.900 291.594 C 361.382 291.598,361.600 291.288,361.600 290.600 C 361.600 290.050,361.426 289.600,361.213 289.600 C 360.999 289.600,360.936 289.888,361.071 290.240 M359.028 294.672 C 358.796 295.277,358.700 295.293,358.362 294.789 C 358.029 294.293,357.985 294.306,358.083 294.874 C 358.147 295.244,358.020 295.548,357.800 295.548 C 357.580 295.548,357.449 295.244,357.510 294.874 C 357.609 294.268,357.577 294.271,357.190 294.900 C 356.954 295.285,356.499 295.600,356.180 295.600 C 355.486 295.600,355.414 296.238,356.062 296.638 C 356.348 296.815,356.415 296.748,356.238 296.462 C 356.081 296.208,356.133 296.000,356.353 296.000 C 356.573 296.000,356.864 296.180,357.001 296.401 C 357.164 296.666,357.525 296.654,358.062 296.367 C 358.782 295.981,358.845 296.027,358.610 296.768 C 358.280 297.807,359.191 298.247,360.369 297.617 C 361.354 297.089,361.434 296.291,360.586 295.443 C 360.248 295.105,359.991 294.692,360.016 294.524 C 360.110 293.879,359.285 294.002,359.028 294.672 M333.900 294.699 C 337.255 294.766,342.745 294.766,346.100 294.699 C 349.455 294.632,346.710 294.578,340.000 294.578 C 333.290 294.578,330.545 294.632,333.900 294.699 M360.417 295.820 C 360.841 296.331,360.821 296.551,360.304 297.067 C 359.327 298.044,358.619 296.944,359.167 295.300 C 359.269 294.992,359.972 295.284,360.417 295.820 M327.115 295.928 C 326.738 296.078,332.536 296.200,340.000 296.200 C 347.464 296.200,353.262 296.078,352.885 295.928 C 352.508 295.779,346.710 295.656,340.000 295.656 C 333.290 295.656,327.492 295.779,327.115 295.928 M359.371 296.450 C 359.371 296.868,359.547 297.151,359.761 297.080 C 360.389 296.870,360.479 296.116,359.903 295.895 C 359.576 295.769,359.371 295.983,359.371 296.450 M327.200 296.800 C 326.650 296.976,332.410 297.120,340.000 297.120 C 347.590 297.120,353.350 296.976,352.800 296.800 C 352.250 296.624,346.490 296.480,340.000 296.480 C 333.510 296.480,327.750 296.624,327.200 296.800 M355.867 297.467 C 355.327 298.007,355.626 298.400,356.576 298.400 C 357.685 298.400,358.247 297.800,357.545 297.366 C 357.252 297.185,357.184 297.250,357.362 297.538 C 357.519 297.792,357.457 298.000,357.224 298.000 C 356.991 298.000,356.800 297.820,356.800 297.600 C 356.800 297.145,356.265 297.068,355.867 297.467 M332.500 297.899 C 336.625 297.964,343.375 297.964,347.500 297.899 C 351.625 297.834,348.250 297.781,340.000 297.781 C 331.750 297.781,328.375 297.834,332.500 297.899 M38.400 377.000 C 38.400 377.688,38.618 377.998,39.100 377.994 C 39.660 377.989,39.689 377.917,39.242 377.634 C 38.935 377.440,38.794 376.993,38.929 376.640 C 39.064 376.288,39.001 376.000,38.787 376.000 C 38.574 376.000,38.400 376.450,38.400 377.000 M287.771 377.468 C 287.912 377.836,287.797 378.282,287.514 378.462 C 287.114 378.716,287.111 378.789,287.500 378.794 C 287.775 378.797,288.000 378.991,288.000 379.224 C 288.000 379.457,287.792 379.519,287.538 379.362 C 287.272 379.197,287.184 379.251,287.331 379.488 C 287.480 379.729,287.164 379.900,286.569 379.900 C 285.871 379.900,285.619 379.728,285.764 379.350 C 285.880 379.048,285.801 378.800,285.587 378.800 C 285.374 378.800,285.200 379.070,285.200 379.400 C 285.200 379.740,284.841 380.000,284.371 380.000 C 283.602 380.000,283.590 380.047,284.201 380.658 C 284.888 381.345,284.282 382.221,283.467 381.718 C 283.263 381.592,283.187 381.739,283.298 382.044 C 283.409 382.350,283.716 382.551,283.980 382.490 C 284.244 382.430,284.345 382.565,284.206 382.790 C 283.752 383.524,285.539 383.222,286.077 382.474 C 286.365 382.074,286.912 381.631,287.293 381.489 C 287.687 381.342,287.891 380.982,287.766 380.656 C 287.645 380.340,287.738 379.962,287.973 379.817 C 288.539 379.467,288.525 376.800,287.957 376.800 C 287.708 376.800,287.626 377.092,287.771 377.468 M39.200 382.757 C 39.200 383.027,39.020 383.136,38.800 383.000 C 38.580 382.864,38.400 383.072,38.400 383.462 C 38.400 384.128,38.441 384.130,39.076 383.495 C 39.448 383.123,39.628 382.695,39.476 382.543 C 39.324 382.391,39.200 382.487,39.200 382.757 M40.518 382.900 C 40.509 383.175,40.434 383.648,40.351 383.950 C 40.268 384.253,40.425 384.582,40.700 384.683 C 41.032 384.805,41.200 384.451,41.200 383.633 C 41.200 382.488,40.553 381.792,40.518 382.900 M281.165 383.400 C 281.132 383.620,281.124 383.929,281.148 384.086 C 281.171 384.243,280.959 384.282,280.675 384.174 C 280.339 384.044,280.160 384.327,280.160 384.988 C 280.160 385.623,280.391 386.010,280.780 386.028 C 281.219 386.048,281.167 386.156,280.600 386.400 C 280.160 386.589,279.957 386.756,280.149 386.772 C 280.341 386.787,280.276 387.068,280.004 387.396 C 279.732 387.723,279.350 387.893,279.155 387.772 C 278.960 387.651,278.800 387.743,278.800 387.976 C 278.800 388.460,280.115 388.552,280.567 388.100 C 280.732 387.935,281.017 387.800,281.200 387.800 C 281.865 387.800,284.000 385.961,284.000 385.388 C 284.000 385.065,284.180 384.800,284.400 384.800 C 284.620 384.800,284.800 384.530,284.800 384.200 C 284.800 383.870,284.609 383.600,284.376 383.600 C 284.143 383.600,284.040 383.741,284.147 383.914 C 284.254 384.087,284.008 384.229,283.600 384.229 C 283.192 384.229,282.946 384.087,283.053 383.914 C 283.160 383.741,283.057 383.600,282.824 383.600 C 282.591 383.600,282.400 383.814,282.400 384.076 C 282.400 384.339,282.136 384.204,281.813 383.776 C 281.490 383.349,281.198 383.180,281.165 383.400 M41.877 385.456 C 41.999 385.774,42.270 385.977,42.479 385.907 C 43.132 385.689,43.033 385.081,42.328 384.978 C 41.886 384.913,41.731 385.077,41.877 385.456 M42.178 386.835 C 41.829 387.400,42.600 388.171,43.165 387.822 C 43.800 387.429,43.697 386.400,43.024 386.400 C 42.707 386.400,42.326 386.596,42.178 386.835 M44.188 387.219 C 43.847 387.771,44.673 388.385,45.767 388.394 C 46.188 388.397,46.458 388.353,46.367 388.296 C 46.275 388.238,45.813 387.867,45.340 387.470 C 44.716 386.946,44.400 386.877,44.188 387.219 M49.684 387.815 C 49.232 388.328,63.120 388.388,162.684 388.301 L 276.200 388.201 163.277 388.100 C 88.254 388.033,50.436 387.865,50.600 387.599 C 50.979 386.987,50.267 387.155,49.684 387.815 " stroke="none" fill="#484444" fill-rule="evenodd"></path><path id="path2" d="M121.229 18.818 C 121.814 19.180,121.477 21.527,120.873 21.295 C 120.500 21.153,120.471 20.969,120.773 20.667 C 121.008 20.432,121.200 20.018,121.200 19.747 C 121.200 19.090,119.625 18.615,119.120 19.120 C 118.595 19.645,119.102 21.200,119.798 21.200 C 120.098 21.200,120.626 21.483,120.973 21.830 C 121.469 22.326,121.638 22.347,121.769 21.930 C 121.861 21.638,122.101 20.860,122.301 20.200 C 122.512 19.507,122.990 18.943,123.433 18.864 C 124.167 18.734,124.165 18.754,123.401 19.331 C 122.622 19.919,122.793 20.582,123.733 20.618 C 123.990 20.628,124.145 20.884,124.077 21.186 C 123.982 21.615,124.079 21.633,124.518 21.268 C 124.943 20.915,153.498 20.776,241.640 20.699 L 358.200 20.597 241.224 20.501 C 137.368 20.416,124.238 20.338,124.159 19.803 C 124.081 19.267,137.109 19.200,241.459 19.200 C 319.616 19.200,358.765 19.334,358.600 19.600 C 358.464 19.820,358.563 20.000,358.819 20.000 C 359.099 20.000,359.178 19.720,359.017 19.301 C 358.849 18.861,359.204 19.037,359.974 19.776 C 361.361 21.104,361.450 21.271,360.600 20.945 C 360.270 20.818,360.000 20.898,360.000 21.122 C 360.000 21.652,361.313 21.460,361.499 20.904 C 361.577 20.669,361.219 20.055,360.702 19.539 L 359.764 18.600 240.320 18.600 C 174.626 18.600,121.035 18.698,121.229 18.818 M120.622 19.635 C 121.034 20.302,120.107 21.067,119.555 20.515 C 119.093 20.053,119.382 19.200,120.000 19.200 C 120.194 19.200,120.474 19.396,120.622 19.635 M118.400 21.157 C 118.400 21.370,118.009 21.602,117.531 21.672 C 116.967 21.755,116.641 22.108,116.600 22.681 C 116.565 23.166,116.686 23.471,116.868 23.358 C 117.381 23.041,117.260 23.775,116.700 24.379 C 116.300 24.810,116.300 24.861,116.700 24.635 C 116.989 24.472,117.203 24.574,117.206 24.876 C 117.211 25.301,117.276 25.299,117.550 24.867 C 117.736 24.575,117.832 23.855,117.763 23.267 C 117.660 22.379,117.804 22.190,118.620 22.142 C 119.159 22.111,119.600 22.276,119.600 22.509 C 119.600 22.742,119.722 22.811,119.871 22.662 C 120.020 22.513,119.750 22.026,119.271 21.580 C 118.792 21.134,118.400 20.943,118.400 21.157 M115.200 58.049 C 115.200 58.755,115.300 58.815,115.796 58.404 C 116.398 57.904,116.269 57.200,115.576 57.200 C 115.369 57.200,115.200 57.582,115.200 58.049 M115.371 60.074 C 115.371 60.621,115.582 60.793,116.086 60.662 C 116.479 60.559,116.800 60.638,116.800 60.837 C 116.800 61.195,116.169 61.368,115.411 61.218 C 115.197 61.175,115.360 61.514,115.773 61.970 C 116.665 62.956,117.200 63.034,117.200 62.180 C 117.200 61.706,117.536 61.815,118.619 62.642 C 119.399 63.237,119.959 63.929,119.863 64.180 C 119.767 64.431,120.048 64.664,120.489 64.697 C 120.930 64.730,121.183 64.650,121.051 64.518 C 120.920 64.387,121.121 64.053,121.499 63.777 C 122.093 63.343,122.031 63.305,121.033 63.496 C 120.228 63.650,119.966 63.578,120.164 63.258 C 120.320 63.006,120.257 62.800,120.024 62.800 C 119.791 62.800,119.600 62.423,119.600 61.963 C 119.600 61.240,118.199 60.379,117.645 60.761 C 117.559 60.820,117.379 60.718,117.245 60.534 C 116.553 59.589,115.371 59.299,115.371 60.074 M115.366 62.945 C 115.078 63.696,115.827 64.800,116.625 64.800 C 117.596 64.800,117.584 64.125,116.598 63.198 C 115.733 62.385,115.592 62.356,115.366 62.945 M117.200 63.138 C 117.200 63.485,118.775 65.054,118.831 64.762 C 118.847 64.673,118.922 64.284,118.995 63.898 C 119.069 63.512,118.966 63.298,118.765 63.422 C 118.564 63.546,118.400 63.457,118.400 63.224 C 118.400 62.991,118.130 62.800,117.800 62.800 C 117.470 62.800,117.200 62.952,117.200 63.138 M172.300 64.300 C 198.535 64.357,241.465 64.357,267.700 64.300 C 293.935 64.243,272.470 64.197,220.000 64.197 C 167.530 64.197,146.065 64.243,172.300 64.300 M315.698 64.633 C 315.297 65.062,315.216 87.943,315.298 178.085 C 315.409 300.777,315.257 292.808,317.502 293.795 C 318.142 294.076,318.400 294.530,318.400 295.375 C 318.400 296.297,318.507 296.453,318.880 296.080 C 319.144 295.816,319.517 295.600,319.709 295.600 C 319.900 295.600,319.774 295.883,319.429 296.229 C 318.622 297.035,318.632 297.560,319.458 297.878 C 319.842 298.025,320.309 297.865,320.580 297.495 C 320.998 296.924,321.093 296.937,321.526 297.630 C 322.025 298.429,324.400 298.746,324.400 298.013 C 324.400 297.799,324.130 297.729,323.800 297.855 C 323.470 297.982,323.200 297.886,323.200 297.643 C 323.200 297.399,323.414 297.200,323.676 297.200 C 323.939 297.200,323.805 296.946,323.381 296.635 C 322.956 296.325,322.502 296.137,322.371 296.218 C 322.240 296.299,322.133 296.106,322.133 295.789 C 322.133 295.349,322.262 295.319,322.676 295.663 C 322.975 295.911,323.335 295.998,323.476 295.857 C 323.618 295.716,323.523 295.600,323.267 295.600 C 323.010 295.600,322.800 295.229,322.800 294.776 C 322.800 294.295,322.623 294.062,322.373 294.216 C 322.139 294.361,321.688 294.147,321.372 293.740 C 320.904 293.137,320.841 293.123,321.030 293.669 C 321.330 294.536,319.732 295.492,319.077 294.837 C 318.761 294.521,318.773 294.400,319.120 294.400 C 319.384 294.400,319.600 294.145,319.600 293.833 C 319.600 293.522,319.825 293.169,320.100 293.049 C 320.375 292.930,320.060 292.929,319.400 293.048 C 318.491 293.212,318.345 293.164,318.800 292.847 C 319.412 292.421,319.724 289.876,319.119 290.250 C 318.936 290.363,318.889 290.621,319.014 290.823 C 319.139 291.025,318.947 291.078,318.587 290.940 C 318.063 290.738,318.039 290.620,318.466 290.344 C 318.911 290.057,318.911 289.943,318.466 289.655 C 318.172 289.466,317.961 289.155,317.996 288.965 C 318.127 288.257,317.222 288.378,316.425 289.175 C 315.904 289.696,315.600 289.808,315.600 289.480 C 315.600 289.194,315.780 288.780,316.001 288.559 C 316.267 288.293,316.368 250.547,316.301 176.127 C 316.220 86.231,316.101 64.202,315.698 64.633 M47.940 95.666 C 46.527 95.955,45.600 96.920,45.600 98.100 C 45.600 98.541,45.420 98.736,45.160 98.575 C 44.897 98.413,44.930 98.685,45.243 99.252 C 45.686 100.057,45.787 100.094,45.912 99.500 C 45.993 99.115,46.236 98.800,46.453 98.800 C 46.670 98.800,46.744 98.968,46.617 99.172 C 46.491 99.377,46.598 99.675,46.855 99.834 C 47.148 100.015,47.216 99.950,47.038 99.662 C 46.867 99.385,47.013 99.200,47.400 99.200 C 47.756 99.200,47.955 99.050,47.841 98.867 C 47.728 98.683,47.905 98.533,48.235 98.533 C 48.607 98.533,48.752 98.774,48.616 99.167 C 48.470 99.591,48.597 99.543,48.999 99.024 C 49.368 98.547,49.600 98.450,49.600 98.773 C 49.600 99.197,49.730 99.193,50.277 98.749 C 50.860 98.276,50.907 98.283,50.618 98.800 C 50.359 99.264,50.395 99.296,50.779 98.942 C 51.368 98.399,51.187 97.000,50.528 97.000 C 50.274 97.000,49.917 96.836,49.733 96.636 C 49.540 96.424,49.610 96.392,49.900 96.559 C 50.180 96.720,50.400 96.640,50.400 96.377 C 50.400 96.093,50.060 95.996,49.542 96.131 C 48.887 96.302,48.795 96.245,49.153 95.887 C 49.839 95.201,50.919 95.999,51.383 97.534 L 51.765 98.800 161.883 98.800 C 255.595 98.800,272.000 98.717,272.000 98.244 C 272.000 97.241,273.374 96.007,274.798 95.732 C 276.396 95.422,275.818 96.423,274.081 96.974 C 273.169 97.264,272.820 98.800,273.667 98.800 C 273.923 98.800,274.015 98.682,273.870 98.537 C 273.571 98.238,274.321 97.200,274.836 97.200 C 275.023 97.200,275.074 97.515,274.950 97.900 C 274.764 98.478,274.797 98.497,275.141 98.011 C 275.498 97.506,275.596 97.525,275.834 98.145 C 276.050 98.708,276.184 98.750,276.439 98.337 C 276.700 97.915,276.868 97.908,277.263 98.303 C 277.537 98.577,277.891 98.800,278.052 98.800 C 278.403 98.800,277.756 96.396,277.275 95.915 C 276.879 95.519,49.865 95.272,47.940 95.666 M277.120 96.480 C 277.384 96.744,277.600 97.214,277.600 97.524 C 277.600 97.934,277.409 97.880,276.900 97.325 C 276.515 96.906,276.333 96.767,276.497 97.018 C 276.929 97.682,276.366 98.069,275.732 97.543 C 275.323 97.204,275.301 96.960,275.644 96.547 C 276.202 95.875,276.501 95.861,277.120 96.480 M42.032 98.663 C 42.014 98.917,41.657 99.035,41.237 98.926 C 40.225 98.661,38.661 100.225,38.926 101.237 C 39.035 101.657,39.007 102.000,38.862 102.000 C 38.717 102.000,38.591 102.539,38.582 103.197 C 38.560 104.855,39.196 104.071,39.375 102.219 C 39.536 100.557,40.203 99.669,41.472 99.425 C 42.037 99.316,42.284 99.464,42.250 99.890 C 42.223 100.233,42.470 100.608,42.800 100.722 C 43.298 100.895,43.313 100.825,42.890 100.312 C 42.279 99.571,43.216 98.976,43.906 99.666 C 44.178 99.938,44.410 99.907,44.617 99.573 C 44.815 99.252,44.759 99.178,44.459 99.364 C 44.199 99.524,43.889 99.375,43.754 99.025 C 43.622 98.681,43.343 98.400,43.134 98.400 C 42.924 98.400,42.864 98.580,43.000 98.800 C 43.136 99.020,43.072 99.200,42.857 99.200 C 42.642 99.200,42.376 98.975,42.265 98.700 C 42.129 98.364,42.053 98.352,42.032 98.663 M282.694 98.639 C 282.563 98.771,282.552 99.131,282.670 99.439 C 282.789 99.748,282.715 100.000,282.507 100.000 C 282.299 100.000,281.940 100.414,281.709 100.920 C 281.336 101.740,281.394 101.840,282.245 101.840 C 282.770 101.840,283.200 101.696,283.200 101.520 C 283.200 101.344,283.020 101.200,282.800 101.200 C 282.580 101.200,282.400 101.009,282.400 100.776 C 282.400 100.543,282.625 100.482,282.900 100.641 C 283.175 100.799,283.271 100.786,283.114 100.612 C 282.712 100.166,283.553 98.724,284.039 99.024 C 284.299 99.185,284.279 99.463,283.985 99.818 C 283.522 100.376,283.767 101.200,284.396 101.200 C 284.797 101.200,284.697 99.604,284.251 98.883 C 283.935 98.371,283.094 98.239,282.694 98.639 M40.440 100.360 C 39.638 101.162,39.624 101.286,40.204 102.407 C 40.942 103.835,41.114 103.897,41.021 102.700 C 40.983 102.205,41.179 101.526,41.456 101.191 C 42.353 100.105,41.441 99.359,40.440 100.360 M41.384 101.625 C 41.257 101.831,41.433 102.000,41.776 102.000 C 42.119 102.000,42.531 102.014,42.690 102.030 C 42.850 102.047,43.032 101.905,43.095 101.715 C 43.252 101.243,41.672 101.160,41.384 101.625 M285.317 102.796 C 285.203 103.233,284.922 103.475,284.693 103.334 C 284.432 103.173,284.399 103.274,284.604 103.606 C 284.844 103.994,284.747 104.065,284.245 103.873 C 283.820 103.709,283.656 103.767,283.815 104.024 C 283.956 104.252,284.370 104.388,284.735 104.326 C 285.101 104.264,285.400 104.387,285.400 104.600 C 285.400 104.813,285.040 104.940,284.600 104.882 C 283.868 104.786,283.860 104.814,284.500 105.209 C 284.885 105.446,285.197 105.856,285.194 106.120 C 285.190 106.414,285.037 106.367,284.800 106.000 C 284.587 105.670,284.412 105.580,284.412 105.800 C 284.412 106.722,285.091 107.101,286.531 106.985 C 287.722 106.889,288.014 106.988,287.844 107.431 C 287.723 107.744,287.799 108.000,288.013 108.000 C 288.447 108.000,288.527 106.797,288.157 105.833 C 287.850 105.032,286.958 105.012,286.655 105.800 C 286.393 106.484,285.600 106.616,285.600 105.976 C 285.600 105.743,285.780 105.664,286.000 105.800 C 286.220 105.936,286.400 105.788,286.400 105.470 C 286.400 105.153,286.760 104.799,287.200 104.684 C 288.088 104.452,288.266 103.226,287.520 102.480 C 286.776 101.736,285.548 101.912,285.317 102.796 M287.214 103.017 C 287.604 103.486,287.615 103.745,287.260 104.100 C 286.688 104.672,285.347 103.533,285.776 102.838 C 286.151 102.233,286.611 102.290,287.214 103.017 M286.075 103.225 C 286.171 103.514,286.486 103.829,286.775 103.925 C 287.075 104.025,287.225 103.875,287.125 103.575 C 287.029 103.286,286.714 102.971,286.425 102.875 C 286.125 102.775,285.975 102.925,286.075 103.225 M287.646 110.051 C 287.621 110.409,287.330 110.926,287.000 111.200 C 286.212 111.854,286.074 370.617,286.860 373.241 C 287.211 374.414,287.207 374.910,286.840 375.352 C 286.514 375.745,286.495 376.011,286.781 376.188 C 287.480 376.620,288.000 376.019,288.000 374.776 C 288.000 374.129,287.820 373.600,287.600 373.600 C 287.004 373.600,287.049 111.317,287.646 111.118 C 287.891 111.036,288.002 110.616,287.892 110.185 C 287.748 109.616,287.680 109.579,287.646 110.051 M81.200 141.300 C 81.200 141.465,117.335 141.556,161.500 141.503 C 205.665 141.449,228.750 141.359,212.800 141.303 C 135.557 141.030,81.200 141.029,81.200 141.300 M361.071 290.240 C 361.206 290.593,361.065 291.040,360.758 291.234 C 360.311 291.517,360.340 291.589,360.900 291.594 C 361.382 291.598,361.600 291.288,361.600 290.600 C 361.600 290.050,361.426 289.600,361.213 289.600 C 360.999 289.600,360.936 289.888,361.071 290.240 M359.028 294.672 C 358.796 295.277,358.700 295.293,358.362 294.789 C 358.029 294.293,357.985 294.306,358.083 294.874 C 358.147 295.244,358.020 295.548,357.800 295.548 C 357.580 295.548,357.449 295.244,357.510 294.874 C 357.609 294.268,357.577 294.271,357.190 294.900 C 356.954 295.285,356.499 295.600,356.180 295.600 C 355.486 295.600,355.414 296.238,356.062 296.638 C 356.348 296.815,356.415 296.748,356.238 296.462 C 356.081 296.208,356.133 296.000,356.353 296.000 C 356.573 296.000,356.864 296.180,357.001 296.401 C 357.164 296.666,357.525 296.654,358.062 296.367 C 358.782 295.981,358.845 296.027,358.610 296.768 C 358.280 297.807,359.191 298.247,360.369 297.617 C 361.354 297.089,361.434 296.291,360.586 295.443 C 360.248 295.105,359.991 294.692,360.016 294.524 C 360.110 293.879,359.285 294.002,359.028 294.672 M333.900 294.699 C 337.255 294.766,342.745 294.766,346.100 294.699 C 349.455 294.632,346.710 294.578,340.000 294.578 C 333.290 294.578,330.545 294.632,333.900 294.699 M360.417 295.820 C 360.841 296.331,360.821 296.551,360.304 297.067 C 359.327 298.044,358.619 296.944,359.167 295.300 C 359.269 294.992,359.972 295.284,360.417 295.820 M327.115 295.928 C 326.738 296.078,332.536 296.200,340.000 296.200 C 347.464 296.200,353.262 296.078,352.885 295.928 C 352.508 295.779,346.710 295.656,340.000 295.656 C 333.290 295.656,327.492 295.779,327.115 295.928 M359.371 296.450 C 359.371 296.868,359.547 297.151,359.761 297.080 C 360.389 296.870,360.479 296.116,359.903 295.895 C 359.576 295.769,359.371 295.983,359.371 296.450 M327.200 296.800 C 326.650 296.976,332.410 297.120,340.000 297.120 C 347.590 297.120,353.350 296.976,352.800 296.800 C 352.250 296.624,346.490 296.480,340.000 296.480 C 333.510 296.480,327.750 296.624,327.200 296.800 M355.867 297.467 C 355.327 298.007,355.626 298.400,356.576 298.400 C 357.685 298.400,358.247 297.800,357.545 297.366 C 357.252 297.185,357.184 297.250,357.362 297.538 C 357.519 297.792,357.457 298.000,357.224 298.000 C 356.991 298.000,356.800 297.820,356.800 297.600 C 356.800 297.145,356.265 297.068,355.867 297.467 M332.500 297.899 C 336.625 297.964,343.375 297.964,347.500 297.899 C 351.625 297.834,348.250 297.781,340.000 297.781 C 331.750 297.781,328.375 297.834,332.500 297.899 M38.400 377.000 C 38.400 377.688,38.618 377.998,39.100 377.994 C 39.660 377.989,39.689 377.917,39.242 377.634 C 38.935 377.440,38.794 376.993,38.929 376.640 C 39.064 376.288,39.001 376.000,38.787 376.000 C 38.574 376.000,38.400 376.450,38.400 377.000 M287.771 377.468 C 287.912 377.836,287.797 378.282,287.514 378.462 C 287.114 378.716,287.111 378.789,287.500 378.794 C 287.775 378.797,288.000 378.991,288.000 379.224 C 288.000 379.457,287.792 379.519,287.538 379.362 C 287.272 379.197,287.184 379.251,287.331 379.488 C 287.480 379.729,287.164 379.900,286.569 379.900 C 285.871 379.900,285.619 379.728,285.764 379.350 C 285.880 379.048,285.801 378.800,285.587 378.800 C 285.374 378.800,285.200 379.070,285.200 379.400 C 285.200 379.740,284.841 380.000,284.371 380.000 C 283.602 380.000,283.590 380.047,284.201 380.658 C 284.888 381.345,284.282 382.221,283.467 381.718 C 283.263 381.592,283.187 381.739,283.298 382.044 C 283.409 382.350,283.716 382.551,283.980 382.490 C 284.244 382.430,284.345 382.565,284.206 382.790 C 283.752 383.524,285.539 383.222,286.077 382.474 C 286.365 382.074,286.912 381.631,287.293 381.489 C 287.687 381.342,287.891 380.982,287.766 380.656 C 287.645 380.340,287.738 379.962,287.973 379.817 C 288.539 379.467,288.525 376.800,287.957 376.800 C 287.708 376.800,287.626 377.092,287.771 377.468 M39.200 382.757 C 39.200 383.027,39.020 383.136,38.800 383.000 C 38.580 382.864,38.400 383.072,38.400 383.462 C 38.400 384.128,38.441 384.130,39.076 383.495 C 39.448 383.123,39.628 382.695,39.476 382.543 C 39.324 382.391,39.200 382.487,39.200 382.757 M40.518 382.900 C 40.509 383.175,40.434 383.648,40.351 383.950 C 40.268 384.253,40.425 384.582,40.700 384.683 C 41.032 384.805,41.200 384.451,41.200 383.633 C 41.200 382.488,40.553 381.792,40.518 382.900 M281.165 383.400 C 281.132 383.620,281.124 383.929,281.148 384.086 C 281.171 384.243,280.959 384.282,280.675 384.174 C 280.339 384.044,280.160 384.327,280.160 384.988 C 280.160 385.623,280.391 386.010,280.780 386.028 C 281.219 386.048,281.167 386.156,280.600 386.400 C 280.160 386.589,279.957 386.756,280.149 386.772 C 280.341 386.787,280.276 387.068,280.004 387.396 C 279.732 387.723,279.350 387.893,279.155 387.772 C 278.960 387.651,278.800 387.743,278.800 387.976 C 278.800 388.460,280.115 388.552,280.567 388.100 C 280.732 387.935,281.017 387.800,281.200 387.800 C 281.865 387.800,284.000 385.961,284.000 385.388 C 284.000 385.065,284.180 384.800,284.400 384.800 C 284.620 384.800,284.800 384.530,284.800 384.200 C 284.800 383.870,284.609 383.600,284.376 383.600 C 284.143 383.600,284.040 383.741,284.147 383.914 C 284.254 384.087,284.008 384.229,283.600 384.229 C 283.192 384.229,282.946 384.087,283.053 383.914 C 283.160 383.741,283.057 383.600,282.824 383.600 C 282.591 383.600,282.400 383.814,282.400 384.076 C 282.400 384.339,282.136 384.204,281.813 383.776 C 281.490 383.349,281.198 383.180,281.165 383.400 M41.877 385.456 C 41.999 385.774,42.270 385.977,42.479 385.907 C 43.132 385.689,43.033 385.081,42.328 384.978 C 41.886 384.913,41.731 385.077,41.877 385.456 M42.178 386.835 C 41.829 387.400,42.600 388.171,43.165 387.822 C 43.800 387.429,43.697 386.400,43.024 386.400 C 42.707 386.400,42.326 386.596,42.178 386.835 M44.188 387.219 C 43.847 387.771,44.673 388.385,45.767 388.394 C 46.188 388.397,46.458 388.353,46.367 388.296 C 46.275 388.238,45.813 387.867,45.340 387.470 C 44.716 386.946,44.400 386.877,44.188 387.219 M49.684 387.815 C 49.232 388.328,63.120 388.388,162.684 388.301 L 276.200 388.201 163.277 388.100 C 88.254 388.033,50.436 387.865,50.600 387.599 C 50.979 386.987,50.267 387.155,49.684 387.815 " stroke="none" fill="#484444" fill-rule="evenodd"></path><path id="path3" d="M121.229 18.818 C 121.814 19.180,121.477 21.527,120.873 21.295 C 120.500 21.153,120.471 20.969,120.773 20.667 C 121.008 20.432,121.200 20.018,121.200 19.747 C 121.200 19.090,119.625 18.615,119.120 19.120 C 118.595 19.645,119.102 21.200,119.798 21.200 C 120.098 21.200,120.626 21.483,120.973 21.830 C 121.469 22.326,121.638 22.347,121.769 21.930 C 121.861 21.638,122.101 20.860,122.301 20.200 C 122.512 19.507,122.990 18.943,123.433 18.864 C 124.167 18.734,124.165 18.754,123.401 19.331 C 122.622 19.919,122.793 20.582,123.733 20.618 C 123.990 20.628,124.145 20.884,124.077 21.186 C 123.982 21.615,124.079 21.633,124.518 21.268 C 124.943 20.915,153.498 20.776,241.640 20.699 L 358.200 20.597 241.224 20.501 C 137.368 20.416,124.238 20.338,124.159 19.803 C 124.081 19.267,137.109 19.200,241.459 19.200 C 319.616 19.200,358.765 19.334,358.600 19.600 C 358.464 19.820,358.563 20.000,358.819 20.000 C 359.099 20.000,359.178 19.720,359.017 19.301 C 358.849 18.861,359.204 19.037,359.974 19.776 C 361.361 21.104,361.450 21.271,360.600 20.945 C 360.270 20.818,360.000 20.898,360.000 21.122 C 360.000 21.652,361.313 21.460,361.499 20.904 C 361.577 20.669,361.219 20.055,360.702 19.539 L 359.764 18.600 240.320 18.600 C 174.626 18.600,121.035 18.698,121.229 18.818 M120.622 19.635 C 121.034 20.302,120.107 21.067,119.555 20.515 C 119.093 20.053,119.382 19.200,120.000 19.200 C 120.194 19.200,120.474 19.396,120.622 19.635 M118.400 21.157 C 118.400 21.370,118.009 21.602,117.531 21.672 C 116.967 21.755,116.641 22.108,116.600 22.681 C 116.565 23.166,116.686 23.471,116.868 23.358 C 117.381 23.041,117.260 23.775,116.700 24.379 C 116.300 24.810,116.300 24.861,116.700 24.635 C 116.989 24.472,117.203 24.574,117.206 24.876 C 117.211 25.301,117.276 25.299,117.550 24.867 C 117.736 24.575,117.832 23.855,117.763 23.267 C 117.660 22.379,117.804 22.190,118.620 22.142 C 119.159 22.111,119.600 22.276,119.600 22.509 C 119.600 22.742,119.722 22.811,119.871 22.662 C 120.020 22.513,119.750 22.026,119.271 21.580 C 118.792 21.134,118.400 20.943,118.400 21.157 M115.200 58.049 C 115.200 58.755,115.300 58.815,115.796 58.404 C 116.398 57.904,116.269 57.200,115.576 57.200 C 115.369 57.200,115.200 57.582,115.200 58.049 M115.371 60.074 C 115.371 60.621,115.582 60.793,116.086 60.662 C 116.479 60.559,116.800 60.638,116.800 60.837 C 116.800 61.195,116.169 61.368,115.411 61.218 C 115.197 61.175,115.360 61.514,115.773 61.970 C 116.665 62.956,117.200 63.034,117.200 62.180 C 117.200 61.706,117.536 61.815,118.619 62.642 C 119.399 63.237,119.959 63.929,119.863 64.180 C 119.767 64.431,120.048 64.664,120.489 64.697 C 120.930 64.730,121.183 64.650,121.051 64.518 C 120.920 64.387,121.121 64.053,121.499 63.777 C 122.093 63.343,122.031 63.305,121.033 63.496 C 120.228 63.650,119.966 63.578,120.164 63.258 C 120.320 63.006,120.257 62.800,120.024 62.800 C 119.791 62.800,119.600 62.423,119.600 61.963 C 119.600 61.240,118.199 60.379,117.645 60.761 C 117.559 60.820,117.379 60.718,117.245 60.534 C 116.553 59.589,115.371 59.299,115.371 60.074 M115.366 62.945 C 115.078 63.696,115.827 64.800,116.625 64.800 C 117.596 64.800,117.584 64.125,116.598 63.198 C 115.733 62.385,115.592 62.356,115.366 62.945 M117.200 63.138 C 117.200 63.485,118.775 65.054,118.831 64.762 C 118.847 64.673,118.922 64.284,118.995 63.898 C 119.069 63.512,118.966 63.298,118.765 63.422 C 118.564 63.546,118.400 63.457,118.400 63.224 C 118.400 62.991,118.130 62.800,117.800 62.800 C 117.470 62.800,117.200 62.952,117.200 63.138 M172.300 64.300 C 198.535 64.357,241.465 64.357,267.700 64.300 C 293.935 64.243,272.470 64.197,220.000 64.197 C 167.530 64.197,146.065 64.243,172.300 64.300 M315.698 64.633 C 315.297 65.062,315.216 87.943,315.298 178.085 C 315.409 300.777,315.257 292.808,317.502 293.795 C 318.142 294.076,318.400 294.530,318.400 295.375 C 318.400 296.297,318.507 296.453,318.880 296.080 C 319.144 295.816,319.517 295.600,319.709 295.600 C 319.900 295.600,319.774 295.883,319.429 296.229 C 318.622 297.035,318.632 297.560,319.458 297.878 C 319.842 298.025,320.309 297.865,320.580 297.495 C 320.998 296.924,321.093 296.937,321.526 297.630 C 322.025 298.429,324.400 298.746,324.400 298.013 C 324.400 297.799,324.130 297.729,323.800 297.855 C 323.470 297.982,323.200 297.886,323.200 297.643 C 323.200 297.399,323.414 297.200,323.676 297.200 C 323.939 297.200,323.805 296.946,323.381 296.635 C 322.956 296.325,322.502 296.137,322.371 296.218 C 322.240 296.299,322.133 296.106,322.133 295.789 C 322.133 295.349,322.262 295.319,322.676 295.663 C 322.975 295.911,323.335 295.998,323.476 295.857 C 323.618 295.716,323.523 295.600,323.267 295.600 C 323.010 295.600,322.800 295.229,322.800 294.776 C 322.800 294.295,322.623 294.062,322.373 294.216 C 322.139 294.361,321.688 294.147,321.372 293.740 C 320.904 293.137,320.841 293.123,321.030 293.669 C 321.330 294.536,319.732 295.492,319.077 294.837 C 318.761 294.521,318.773 294.400,319.120 294.400 C 319.384 294.400,319.600 294.145,319.600 293.833 C 319.600 293.522,319.825 293.169,320.100 293.049 C 320.375 292.930,320.060 292.929,319.400 293.048 C 318.491 293.212,318.345 293.164,318.800 292.847 C 319.412 292.421,319.724 289.876,319.119 290.250 C 318.936 290.363,318.889 290.621,319.014 290.823 C 319.139 291.025,318.947 291.078,318.587 290.940 C 318.063 290.738,318.039 290.620,318.466 290.344 C 318.911 290.057,318.911 289.943,318.466 289.655 C 318.172 289.466,317.961 289.155,317.996 288.965 C 318.127 288.257,317.222 288.378,316.425 289.175 C 315.904 289.696,315.600 289.808,315.600 289.480 C 315.600 289.194,315.780 288.780,316.001 288.559 C 316.267 288.293,316.368 250.547,316.301 176.127 C 316.220 86.231,316.101 64.202,315.698 64.633 M47.940 95.666 C 46.527 95.955,45.600 96.920,45.600 98.100 C 45.600 98.541,45.420 98.736,45.160 98.575 C 44.897 98.413,44.930 98.685,45.243 99.252 C 45.686 100.057,45.787 100.094,45.912 99.500 C 45.993 99.115,46.236 98.800,46.453 98.800 C 46.670 98.800,46.744 98.968,46.617 99.172 C 46.491 99.377,46.598 99.675,46.855 99.834 C 47.148 100.015,47.216 99.950,47.038 99.662 C 46.867 99.385,47.013 99.200,47.400 99.200 C 47.756 99.200,47.955 99.050,47.841 98.867 C 47.728 98.683,47.905 98.533,48.235 98.533 C 48.607 98.533,48.752 98.774,48.616 99.167 C 48.470 99.591,48.597 99.543,48.999 99.024 C 49.368 98.547,49.600 98.450,49.600 98.773 C 49.600 99.197,49.730 99.193,50.277 98.749 C 50.860 98.276,50.907 98.283,50.618 98.800 C 50.359 99.264,50.395 99.296,50.779 98.942 C 51.368 98.399,51.187 97.000,50.528 97.000 C 50.274 97.000,49.917 96.836,49.733 96.636 C 49.540 96.424,49.610 96.392,49.900 96.559 C 50.180 96.720,50.400 96.640,50.400 96.377 C 50.400 96.093,50.060 95.996,49.542 96.131 C 48.887 96.302,48.795 96.245,49.153 95.887 C 49.839 95.201,50.919 95.999,51.383 97.534 L 51.765 98.800 161.883 98.800 C 255.595 98.800,272.000 98.717,272.000 98.244 C 272.000 97.241,273.374 96.007,274.798 95.732 C 276.396 95.422,275.818 96.423,274.081 96.974 C 273.169 97.264,272.820 98.800,273.667 98.800 C 273.923 98.800,274.015 98.682,273.870 98.537 C 273.571 98.238,274.321 97.200,274.836 97.200 C 275.023 97.200,275.074 97.515,274.950 97.900 C 274.764 98.478,274.797 98.497,275.141 98.011 C 275.498 97.506,275.596 97.525,275.834 98.145 C 276.050 98.708,276.184 98.750,276.439 98.337 C 276.700 97.915,276.868 97.908,277.263 98.303 C 277.537 98.577,277.891 98.800,278.052 98.800 C 278.403 98.800,277.756 96.396,277.275 95.915 C 276.879 95.519,49.865 95.272,47.940 95.666 M277.120 96.480 C 277.384 96.744,277.600 97.214,277.600 97.524 C 277.600 97.934,277.409 97.880,276.900 97.325 C 276.515 96.906,276.333 96.767,276.497 97.018 C 276.929 97.682,276.366 98.069,275.732 97.543 C 275.323 97.204,275.301 96.960,275.644 96.547 C 276.202 95.875,276.501 95.861,277.120 96.480 M42.032 98.663 C 42.014 98.917,41.657 99.035,41.237 98.926 C 40.225 98.661,38.661 100.225,38.926 101.237 C 39.035 101.657,39.007 102.000,38.862 102.000 C 38.717 102.000,38.591 102.539,38.582 103.197 C 38.560 104.855,39.196 104.071,39.375 102.219 C 39.536 100.557,40.203 99.669,41.472 99.425 C 42.037 99.316,42.284 99.464,42.250 99.890 C 42.223 100.233,42.470 100.608,42.800 100.722 C 43.298 100.895,43.313 100.825,42.890 100.312 C 42.279 99.571,43.216 98.976,43.906 99.666 C 44.178 99.938,44.410 99.907,44.617 99.573 C 44.815 99.252,44.759 99.178,44.459 99.364 C 44.199 99.524,43.889 99.375,43.754 99.025 C 43.622 98.681,43.343 98.400,43.134 98.400 C 42.924 98.400,42.864 98.580,43.000 98.800 C 43.136 99.020,43.072 99.200,42.857 99.200 C 42.642 99.200,42.376 98.975,42.265 98.700 C 42.129 98.364,42.053 98.352,42.032 98.663 M282.694 98.639 C 282.563 98.771,282.552 99.131,282.670 99.439 C 282.789 99.748,282.715 100.000,282.507 100.000 C 282.299 100.000,281.940 100.414,281.709 100.920 C 281.336 101.740,281.394 101.840,282.245 101.840 C 282.770 101.840,283.200 101.696,283.200 101.520 C 283.200 101.344,283.020 101.200,282.800 101.200 C 282.580 101.200,282.400 101.009,282.400 100.776 C 282.400 100.543,282.625 100.482,282.900 100.641 C 283.175 100.799,283.271 100.786,283.114 100.612 C 282.712 100.166,283.553 98.724,284.039 99.024 C 284.299 99.185,284.279 99.463,283.985 99.818 C 283.522 100.376,283.767 101.200,284.396 101.200 C 284.797 101.200,284.697 99.604,284.251 98.883 C 283.935 98.371,283.094 98.239,282.694 98.639 M40.440 100.360 C 39.638 101.162,39.624 101.286,40.204 102.407 C 40.942 103.835,41.114 103.897,41.021 102.700 C 40.983 102.205,41.179 101.526,41.456 101.191 C 42.353 100.105,41.441 99.359,40.440 100.360 M41.384 101.625 C 41.257 101.831,41.433 102.000,41.776 102.000 C 42.119 102.000,42.531 102.014,42.690 102.030 C 42.850 102.047,43.032 101.905,43.095 101.715 C 43.252 101.243,41.672 101.160,41.384 101.625 M285.317 102.796 C 285.203 103.233,284.922 103.475,284.693 103.334 C 284.432 103.173,284.399 103.274,284.604 103.606 C 284.844 103.994,284.747 104.065,284.245 103.873 C 283.820 103.709,283.656 103.767,283.815 104.024 C 283.956 104.252,284.370 104.388,284.735 104.326 C 285.101 104.264,285.400 104.387,285.400 104.600 C 285.400 104.813,285.040 104.940,284.600 104.882 C 283.868 104.786,283.860 104.814,284.500 105.209 C 284.885 105.446,285.197 105.856,285.194 106.120 C 285.190 106.414,285.037 106.367,284.800 106.000 C 284.587 105.670,284.412 105.580,284.412 105.800 C 284.412 106.722,285.091 107.101,286.531 106.985 C 287.722 106.889,288.014 106.988,287.844 107.431 C 287.723 107.744,287.799 108.000,288.013 108.000 C 288.447 108.000,288.527 106.797,288.157 105.833 C 287.850 105.032,286.958 105.012,286.655 105.800 C 286.393 106.484,285.600 106.616,285.600 105.976 C 285.600 105.743,285.780 105.664,286.000 105.800 C 286.220 105.936,286.400 105.788,286.400 105.470 C 286.400 105.153,286.760 104.799,287.200 104.684 C 288.088 104.452,288.266 103.226,287.520 102.480 C 286.776 101.736,285.548 101.912,285.317 102.796 M287.214 103.017 C 287.604 103.486,287.615 103.745,287.260 104.100 C 286.688 104.672,285.347 103.533,285.776 102.838 C 286.151 102.233,286.611 102.290,287.214 103.017 M286.075 103.225 C 286.171 103.514,286.486 103.829,286.775 103.925 C 287.075 104.025,287.225 103.875,287.125 103.575 C 287.029 103.286,286.714 102.971,286.425 102.875 C 286.125 102.775,285.975 102.925,286.075 103.225 M287.646 110.051 C 287.621 110.409,287.330 110.926,287.000 111.200 C 286.212 111.854,286.074 370.617,286.860 373.241 C 287.211 374.414,287.207 374.910,286.840 375.352 C 286.514 375.745,286.495 376.011,286.781 376.188 C 287.480 376.620,288.000 376.019,288.000 374.776 C 288.000 374.129,287.820 373.600,287.600 373.600 C 287.004 373.600,287.049 111.317,287.646 111.118 C 287.891 111.036,288.002 110.616,287.892 110.185 C 287.748 109.616,287.680 109.579,287.646 110.051 M81.200 141.300 C 81.200 141.465,117.335 141.556,161.500 141.503 C 205.665 141.449,228.750 141.359,212.800 141.303 C 135.557 141.030,81.200 141.029,81.200 141.300 M361.071 290.240 C 361.206 290.593,361.065 291.040,360.758 291.234 C 360.311 291.517,360.340 291.589,360.900 291.594 C 361.382 291.598,361.600 291.288,361.600 290.600 C 361.600 290.050,361.426 289.600,361.213 289.600 C 360.999 289.600,360.936 289.888,361.071 290.240 M359.028 294.672 C 358.796 295.277,358.700 295.293,358.362 294.789 C 358.029 294.293,357.985 294.306,358.083 294.874 C 358.147 295.244,358.020 295.548,357.800 295.548 C 357.580 295.548,357.449 295.244,357.510 294.874 C 357.609 294.268,357.577 294.271,357.190 294.900 C 356.954 295.285,356.499 295.600,356.180 295.600 C 355.486 295.600,355.414 296.238,356.062 296.638 C 356.348 296.815,356.415 296.748,356.238 296.462 C 356.081 296.208,356.133 296.000,356.353 296.000 C 356.573 296.000,356.864 296.180,357.001 296.401 C 357.164 296.666,357.525 296.654,358.062 296.367 C 358.782 295.981,358.845 296.027,358.610 296.768 C 358.280 297.807,359.191 298.247,360.369 297.617 C 361.354 297.089,361.434 296.291,360.586 295.443 C 360.248 295.105,359.991 294.692,360.016 294.524 C 360.110 293.879,359.285 294.002,359.028 294.672 M333.900 294.699 C 337.255 294.766,342.745 294.766,346.100 294.699 C 349.455 294.632,346.710 294.578,340.000 294.578 C 333.290 294.578,330.545 294.632,333.900 294.699 M360.417 295.820 C 360.841 296.331,360.821 296.551,360.304 297.067 C 359.327 298.044,358.619 296.944,359.167 295.300 C 359.269 294.992,359.972 295.284,360.417 295.820 M327.115 295.928 C 326.738 296.078,332.536 296.200,340.000 296.200 C 347.464 296.200,353.262 296.078,352.885 295.928 C 352.508 295.779,346.710 295.656,340.000 295.656 C 333.290 295.656,327.492 295.779,327.115 295.928 M359.371 296.450 C 359.371 296.868,359.547 297.151,359.761 297.080 C 360.389 296.870,360.479 296.116,359.903 295.895 C 359.576 295.769,359.371 295.983,359.371 296.450 M327.200 296.800 C 326.650 296.976,332.410 297.120,340.000 297.120 C 347.590 297.120,353.350 296.976,352.800 296.800 C 352.250 296.624,346.490 296.480,340.000 296.480 C 333.510 296.480,327.750 296.624,327.200 296.800 M355.867 297.467 C 355.327 298.007,355.626 298.400,356.576 298.400 C 357.685 298.400,358.247 297.800,357.545 297.366 C 357.252 297.185,357.184 297.250,357.362 297.538 C 357.519 297.792,357.457 298.000,357.224 298.000 C 356.991 298.000,356.800 297.820,356.800 297.600 C 356.800 297.145,356.265 297.068,355.867 297.467 M332.500 297.899 C 336.625 297.964,343.375 297.964,347.500 297.899 C 351.625 297.834,348.250 297.781,340.000 297.781 C 331.750 297.781,328.375 297.834,332.500 297.899 M38.400 377.000 C 38.400 377.688,38.618 377.998,39.100 377.994 C 39.660 377.989,39.689 377.917,39.242 377.634 C 38.935 377.440,38.794 376.993,38.929 376.640 C 39.064 376.288,39.001 376.000,38.787 376.000 C 38.574 376.000,38.400 376.450,38.400 377.000 M287.771 377.468 C 287.912 377.836,287.797 378.282,287.514 378.462 C 287.114 378.716,287.111 378.789,287.500 378.794 C 287.775 378.797,288.000 378.991,288.000 379.224 C 288.000 379.457,287.792 379.519,287.538 379.362 C 287.272 379.197,287.184 379.251,287.331 379.488 C 287.480 379.729,287.164 379.900,286.569 379.900 C 285.871 379.900,285.619 379.728,285.764 379.350 C 285.880 379.048,285.801 378.800,285.587 378.800 C 285.374 378.800,285.200 379.070,285.200 379.400 C 285.200 379.740,284.841 380.000,284.371 380.000 C 283.602 380.000,283.590 380.047,284.201 380.658 C 284.888 381.345,284.282 382.221,283.467 381.718 C 283.263 381.592,283.187 381.739,283.298 382.044 C 283.409 382.350,283.716 382.551,283.980 382.490 C 284.244 382.430,284.345 382.565,284.206 382.790 C 283.752 383.524,285.539 383.222,286.077 382.474 C 286.365 382.074,286.912 381.631,287.293 381.489 C 287.687 381.342,287.891 380.982,287.766 380.656 C 287.645 380.340,287.738 379.962,287.973 379.817 C 288.539 379.467,288.525 376.800,287.957 376.800 C 287.708 376.800,287.626 377.092,287.771 377.468 M39.200 382.757 C 39.200 383.027,39.020 383.136,38.800 383.000 C 38.580 382.864,38.400 383.072,38.400 383.462 C 38.400 384.128,38.441 384.130,39.076 383.495 C 39.448 383.123,39.628 382.695,39.476 382.543 C 39.324 382.391,39.200 382.487,39.200 382.757 M40.518 382.900 C 40.509 383.175,40.434 383.648,40.351 383.950 C 40.268 384.253,40.425 384.582,40.700 384.683 C 41.032 384.805,41.200 384.451,41.200 383.633 C 41.200 382.488,40.553 381.792,40.518 382.900 M281.165 383.400 C 281.132 383.620,281.124 383.929,281.148 384.086 C 281.171 384.243,280.959 384.282,280.675 384.174 C 280.339 384.044,280.160 384.327,280.160 384.988 C 280.160 385.623,280.391 386.010,280.780 386.028 C 281.219 386.048,281.167 386.156,280.600 386.400 C 280.160 386.589,279.957 386.756,280.149 386.772 C 280.341 386.787,280.276 387.068,280.004 387.396 C 279.732 387.723,279.350 387.893,279.155 387.772 C 278.960 387.651,278.800 387.743,278.800 387.976 C 278.800 388.460,280.115 388.552,280.567 388.100 C 280.732 387.935,281.017 387.800,281.200 387.800 C 281.865 387.800,284.000 385.961,284.000 385.388 C 284.000 385.065,284.180 384.800,284.400 384.800 C 284.620 384.800,284.800 384.530,284.800 384.200 C 284.800 383.870,284.609 383.600,284.376 383.600 C 284.143 383.600,284.040 383.741,284.147 383.914 C 284.254 384.087,284.008 384.229,283.600 384.229 C 283.192 384.229,282.946 384.087,283.053 383.914 C 283.160 383.741,283.057 383.600,282.824 383.600 C 282.591 383.600,282.400 383.814,282.400 384.076 C 282.400 384.339,282.136 384.204,281.813 383.776 C 281.490 383.349,281.198 383.180,281.165 383.400 M41.877 385.456 C 41.999 385.774,42.270 385.977,42.479 385.907 C 43.132 385.689,43.033 385.081,42.328 384.978 C 41.886 384.913,41.731 385.077,41.877 385.456 M42.178 386.835 C 41.829 387.400,42.600 388.171,43.165 387.822 C 43.800 387.429,43.697 386.400,43.024 386.400 C 42.707 386.400,42.326 386.596,42.178 386.835 M44.188 387.219 C 43.847 387.771,44.673 388.385,45.767 388.394 C 46.188 388.397,46.458 388.353,46.367 388.296 C 46.275 388.238,45.813 387.867,45.340 387.470 C 44.716 386.946,44.400 386.877,44.188 387.219 M49.684 387.815 C 49.232 388.328,63.120 388.388,162.684 388.301 L 276.200 388.201 163.277 388.100 C 88.254 388.033,50.436 387.865,50.600 387.599 C 50.979 386.987,50.267 387.155,49.684 387.815 " stroke="none" fill="#484444" fill-rule="evenodd"></path><path id="path4" d="M121.229 18.818 C 121.814 19.180,121.477 21.527,120.873 21.295 C 120.500 21.153,120.471 20.969,120.773 20.667 C 121.008 20.432,121.200 20.018,121.200 19.747 C 121.200 19.090,119.625 18.615,119.120 19.120 C 118.595 19.645,119.102 21.200,119.798 21.200 C 120.098 21.200,120.626 21.483,120.973 21.830 C 121.469 22.326,121.638 22.347,121.769 21.930 C 121.861 21.638,122.101 20.860,122.301 20.200 C 122.512 19.507,122.990 18.943,123.433 18.864 C 124.167 18.734,124.165 18.754,123.401 19.331 C 122.622 19.919,122.793 20.582,123.733 20.618 C 123.990 20.628,124.145 20.884,124.077 21.186 C 123.982 21.615,124.079 21.633,124.518 21.268 C 124.943 20.915,153.498 20.776,241.640 20.699 L 358.200 20.597 241.224 20.501 C 137.368 20.416,124.238 20.338,124.159 19.803 C 124.081 19.267,137.109 19.200,241.459 19.200 C 319.616 19.200,358.765 19.334,358.600 19.600 C 358.464 19.820,358.563 20.000,358.819 20.000 C 359.099 20.000,359.178 19.720,359.017 19.301 C 358.849 18.861,359.204 19.037,359.974 19.776 C 361.361 21.104,361.450 21.271,360.600 20.945 C 360.270 20.818,360.000 20.898,360.000 21.122 C 360.000 21.652,361.313 21.460,361.499 20.904 C 361.577 20.669,361.219 20.055,360.702 19.539 L 359.764 18.600 240.320 18.600 C 174.626 18.600,121.035 18.698,121.229 18.818 M120.622 19.635 C 121.034 20.302,120.107 21.067,119.555 20.515 C 119.093 20.053,119.382 19.200,120.000 19.200 C 120.194 19.200,120.474 19.396,120.622 19.635 M118.400 21.157 C 118.400 21.370,118.009 21.602,117.531 21.672 C 116.967 21.755,116.641 22.108,116.600 22.681 C 116.565 23.166,116.686 23.471,116.868 23.358 C 117.381 23.041,117.260 23.775,116.700 24.379 C 116.300 24.810,116.300 24.861,116.700 24.635 C 116.989 24.472,117.203 24.574,117.206 24.876 C 117.211 25.301,117.276 25.299,117.550 24.867 C 117.736 24.575,117.832 23.855,117.763 23.267 C 117.660 22.379,117.804 22.190,118.620 22.142 C 119.159 22.111,119.600 22.276,119.600 22.509 C 119.600 22.742,119.722 22.811,119.871 22.662 C 120.020 22.513,119.750 22.026,119.271 21.580 C 118.792 21.134,118.400 20.943,118.400 21.157 M115.200 58.049 C 115.200 58.755,115.300 58.815,115.796 58.404 C 116.398 57.904,116.269 57.200,115.576 57.200 C 115.369 57.200,115.200 57.582,115.200 58.049 M115.371 60.074 C 115.371 60.621,115.582 60.793,116.086 60.662 C 116.479 60.559,116.800 60.638,116.800 60.837 C 116.800 61.195,116.169 61.368,115.411 61.218 C 115.197 61.175,115.360 61.514,115.773 61.970 C 116.665 62.956,117.200 63.034,117.200 62.180 C 117.200 61.706,117.536 61.815,118.619 62.642 C 119.399 63.237,119.959 63.929,119.863 64.180 C 119.767 64.431,120.048 64.664,120.489 64.697 C 120.930 64.730,121.183 64.650,121.051 64.518 C 120.920 64.387,121.121 64.053,121.499 63.777 C 122.093 63.343,122.031 63.305,121.033 63.496 C 120.228 63.650,119.966 63.578,120.164 63.258 C 120.320 63.006,120.257 62.800,120.024 62.800 C 119.791 62.800,119.600 62.423,119.600 61.963 C 119.600 61.240,118.199 60.379,117.645 60.761 C 117.559 60.820,117.379 60.718,117.245 60.534 C 116.553 59.589,115.371 59.299,115.371 60.074 M115.366 62.945 C 115.078 63.696,115.827 64.800,116.625 64.800 C 117.596 64.800,117.584 64.125,116.598 63.198 C 115.733 62.385,115.592 62.356,115.366 62.945 M117.200 63.138 C 117.200 63.485,118.775 65.054,118.831 64.762 C 118.847 64.673,118.922 64.284,118.995 63.898 C 119.069 63.512,118.966 63.298,118.765 63.422 C 118.564 63.546,118.400 63.457,118.400 63.224 C 118.400 62.991,118.130 62.800,117.800 62.800 C 117.470 62.800,117.200 62.952,117.200 63.138 M172.300 64.300 C 198.535 64.357,241.465 64.357,267.700 64.300 C 293.935 64.243,272.470 64.197,220.000 64.197 C 167.530 64.197,146.065 64.243,172.300 64.300 M315.698 64.633 C 315.297 65.062,315.216 87.943,315.298 178.085 C 315.409 300.777,315.257 292.808,317.502 293.795 C 318.142 294.076,318.400 294.530,318.400 295.375 C 318.400 296.297,318.507 296.453,318.880 296.080 C 319.144 295.816,319.517 295.600,319.709 295.600 C 319.900 295.600,319.774 295.883,319.429 296.229 C 318.622 297.035,318.632 297.560,319.458 297.878 C 319.842 298.025,320.309 297.865,320.580 297.495 C 320.998 296.924,321.093 296.937,321.526 297.630 C 322.025 298.429,324.400 298.746,324.400 298.013 C 324.400 297.799,324.130 297.729,323.800 297.855 C 323.470 297.982,323.200 297.886,323.200 297.643 C 323.200 297.399,323.414 297.200,323.676 297.200 C 323.939 297.200,323.805 296.946,323.381 296.635 C 322.956 296.325,322.502 296.137,322.371 296.218 C 322.240 296.299,322.133 296.106,322.133 295.789 C 322.133 295.349,322.262 295.319,322.676 295.663 C 322.975 295.911,323.335 295.998,323.476 295.857 C 323.618 295.716,323.523 295.600,323.267 295.600 C 323.010 295.600,322.800 295.229,322.800 294.776 C 322.800 294.295,322.623 294.062,322.373 294.216 C 322.139 294.361,321.688 294.147,321.372 293.740 C 320.904 293.137,320.841 293.123,321.030 293.669 C 321.330 294.536,319.732 295.492,319.077 294.837 C 318.761 294.521,318.773 294.400,319.120 294.400 C 319.384 294.400,319.600 294.145,319.600 293.833 C 319.600 293.522,319.825 293.169,320.100 293.049 C 320.375 292.930,320.060 292.929,319.400 293.048 C 318.491 293.212,318.345 293.164,318.800 292.847 C 319.412 292.421,319.724 289.876,319.119 290.250 C 318.936 290.363,318.889 290.621,319.014 290.823 C 319.139 291.025,318.947 291.078,318.587 290.940 C 318.063 290.738,318.039 290.620,318.466 290.344 C 318.911 290.057,318.911 289.943,318.466 289.655 C 318.172 289.466,317.961 289.155,317.996 288.965 C 318.127 288.257,317.222 288.378,316.425 289.175 C 315.904 289.696,315.600 289.808,315.600 289.480 C 315.600 289.194,315.780 288.780,316.001 288.559 C 316.267 288.293,316.368 250.547,316.301 176.127 C 316.220 86.231,316.101 64.202,315.698 64.633 M47.940 95.666 C 46.527 95.955,45.600 96.920,45.600 98.100 C 45.600 98.541,45.420 98.736,45.160 98.575 C 44.897 98.413,44.930 98.685,45.243 99.252 C 45.686 100.057,45.787 100.094,45.912 99.500 C 45.993 99.115,46.236 98.800,46.453 98.800 C 46.670 98.800,46.744 98.968,46.617 99.172 C 46.491 99.377,46.598 99.675,46.855 99.834 C 47.148 100.015,47.216 99.950,47.038 99.662 C 46.867 99.385,47.013 99.200,47.400 99.200 C 47.756 99.200,47.955 99.050,47.841 98.867 C 47.728 98.683,47.905 98.533,48.235 98.533 C 48.607 98.533,48.752 98.774,48.616 99.167 C 48.470 99.591,48.597 99.543,48.999 99.024 C 49.368 98.547,49.600 98.450,49.600 98.773 C 49.600 99.197,49.730 99.193,50.277 98.749 C 50.860 98.276,50.907 98.283,50.618 98.800 C 50.359 99.264,50.395 99.296,50.779 98.942 C 51.368 98.399,51.187 97.000,50.528 97.000 C 50.274 97.000,49.917 96.836,49.733 96.636 C 49.540 96.424,49.610 96.392,49.900 96.559 C 50.180 96.720,50.400 96.640,50.400 96.377 C 50.400 96.093,50.060 95.996,49.542 96.131 C 48.887 96.302,48.795 96.245,49.153 95.887 C 49.839 95.201,50.919 95.999,51.383 97.534 L 51.765 98.800 161.883 98.800 C 255.595 98.800,272.000 98.717,272.000 98.244 C 272.000 97.241,273.374 96.007,274.798 95.732 C 276.396 95.422,275.818 96.423,274.081 96.974 C 273.169 97.264,272.820 98.800,273.667 98.800 C 273.923 98.800,274.015 98.682,273.870 98.537 C 273.571 98.238,274.321 97.200,274.836 97.200 C 275.023 97.200,275.074 97.515,274.950 97.900 C 274.764 98.478,274.797 98.497,275.141 98.011 C 275.498 97.506,275.596 97.525,275.834 98.145 C 276.050 98.708,276.184 98.750,276.439 98.337 C 276.700 97.915,276.868 97.908,277.263 98.303 C 277.537 98.577,277.891 98.800,278.052 98.800 C 278.403 98.800,277.756 96.396,277.275 95.915 C 276.879 95.519,49.865 95.272,47.940 95.666 M277.120 96.480 C 277.384 96.744,277.600 97.214,277.600 97.524 C 277.600 97.934,277.409 97.880,276.900 97.325 C 276.515 96.906,276.333 96.767,276.497 97.018 C 276.929 97.682,276.366 98.069,275.732 97.543 C 275.323 97.204,275.301 96.960,275.644 96.547 C 276.202 95.875,276.501 95.861,277.120 96.480 M42.032 98.663 C 42.014 98.917,41.657 99.035,41.237 98.926 C 40.225 98.661,38.661 100.225,38.926 101.237 C 39.035 101.657,39.007 102.000,38.862 102.000 C 38.717 102.000,38.591 102.539,38.582 103.197 C 38.560 104.855,39.196 104.071,39.375 102.219 C 39.536 100.557,40.203 99.669,41.472 99.425 C 42.037 99.316,42.284 99.464,42.250 99.890 C 42.223 100.233,42.470 100.608,42.800 100.722 C 43.298 100.895,43.313 100.825,42.890 100.312 C 42.279 99.571,43.216 98.976,43.906 99.666 C 44.178 99.938,44.410 99.907,44.617 99.573 C 44.815 99.252,44.759 99.178,44.459 99.364 C 44.199 99.524,43.889 99.375,43.754 99.025 C 43.622 98.681,43.343 98.400,43.134 98.400 C 42.924 98.400,42.864 98.580,43.000 98.800 C 43.136 99.020,43.072 99.200,42.857 99.200 C 42.642 99.200,42.376 98.975,42.265 98.700 C 42.129 98.364,42.053 98.352,42.032 98.663 M282.694 98.639 C 282.563 98.771,282.552 99.131,282.670 99.439 C 282.789 99.748,282.715 100.000,282.507 100.000 C 282.299 100.000,281.940 100.414,281.709 100.920 C 281.336 101.740,281.394 101.840,282.245 101.840 C 282.770 101.840,283.200 101.696,283.200 101.520 C 283.200 101.344,283.020 101.200,282.800 101.200 C 282.580 101.200,282.400 101.009,282.400 100.776 C 282.400 100.543,282.625 100.482,282.900 100.641 C 283.175 100.799,283.271 100.786,283.114 100.612 C 282.712 100.166,283.553 98.724,284.039 99.024 C 284.299 99.185,284.279 99.463,283.985 99.818 C 283.522 100.376,283.767 101.200,284.396 101.200 C 284.797 101.200,284.697 99.604,284.251 98.883 C 283.935 98.371,283.094 98.239,282.694 98.639 M40.440 100.360 C 39.638 101.162,39.624 101.286,40.204 102.407 C 40.942 103.835,41.114 103.897,41.021 102.700 C 40.983 102.205,41.179 101.526,41.456 101.191 C 42.353 100.105,41.441 99.359,40.440 100.360 M41.384 101.625 C 41.257 101.831,41.433 102.000,41.776 102.000 C 42.119 102.000,42.531 102.014,42.690 102.030 C 42.850 102.047,43.032 101.905,43.095 101.715 C 43.252 101.243,41.672 101.160,41.384 101.625 M285.317 102.796 C 285.203 103.233,284.922 103.475,284.693 103.334 C 284.432 103.173,284.399 103.274,284.604 103.606 C 284.844 103.994,284.747 104.065,284.245 103.873 C 283.820 103.709,283.656 103.767,283.815 104.024 C 283.956 104.252,284.370 104.388,284.735 104.326 C 285.101 104.264,285.400 104.387,285.400 104.600 C 285.400 104.813,285.040 104.940,284.600 104.882 C 283.868 104.786,283.860 104.814,284.500 105.209 C 284.885 105.446,285.197 105.856,285.194 106.120 C 285.190 106.414,285.037 106.367,284.800 106.000 C 284.587 105.670,284.412 105.580,284.412 105.800 C 284.412 106.722,285.091 107.101,286.531 106.985 C 287.722 106.889,288.014 106.988,287.844 107.431 C 287.723 107.744,287.799 108.000,288.013 108.000 C 288.447 108.000,288.527 106.797,288.157 105.833 C 287.850 105.032,286.958 105.012,286.655 105.800 C 286.393 106.484,285.600 106.616,285.600 105.976 C 285.600 105.743,285.780 105.664,286.000 105.800 C 286.220 105.936,286.400 105.788,286.400 105.470 C 286.400 105.153,286.760 104.799,287.200 104.684 C 288.088 104.452,288.266 103.226,287.520 102.480 C 286.776 101.736,285.548 101.912,285.317 102.796 M287.214 103.017 C 287.604 103.486,287.615 103.745,287.260 104.100 C 286.688 104.672,285.347 103.533,285.776 102.838 C 286.151 102.233,286.611 102.290,287.214 103.017 M286.075 103.225 C 286.171 103.514,286.486 103.829,286.775 103.925 C 287.075 104.025,287.225 103.875,287.125 103.575 C 287.029 103.286,286.714 102.971,286.425 102.875 C 286.125 102.775,285.975 102.925,286.075 103.225 M287.646 110.051 C 287.621 110.409,287.330 110.926,287.000 111.200 C 286.212 111.854,286.074 370.617,286.860 373.241 C 287.211 374.414,287.207 374.910,286.840 375.352 C 286.514 375.745,286.495 376.011,286.781 376.188 C 287.480 376.620,288.000 376.019,288.000 374.776 C 288.000 374.129,287.820 373.600,287.600 373.600 C 287.004 373.600,287.049 111.317,287.646 111.118 C 287.891 111.036,288.002 110.616,287.892 110.185 C 287.748 109.616,287.680 109.579,287.646 110.051 M81.200 141.300 C 81.200 141.465,117.335 141.556,161.500 141.503 C 205.665 141.449,228.750 141.359,212.800 141.303 C 135.557 141.030,81.200 141.029,81.200 141.300 M361.071 290.240 C 361.206 290.593,361.065 291.040,360.758 291.234 C 360.311 291.517,360.340 291.589,360.900 291.594 C 361.382 291.598,361.600 291.288,361.600 290.600 C 361.600 290.050,361.426 289.600,361.213 289.600 C 360.999 289.600,360.936 289.888,361.071 290.240 M359.028 294.672 C 358.796 295.277,358.700 295.293,358.362 294.789 C 358.029 294.293,357.985 294.306,358.083 294.874 C 358.147 295.244,358.020 295.548,357.800 295.548 C 357.580 295.548,357.449 295.244,357.510 294.874 C 357.609 294.268,357.577 294.271,357.190 294.900 C 356.954 295.285,356.499 295.600,356.180 295.600 C 355.486 295.600,355.414 296.238,356.062 296.638 C 356.348 296.815,356.415 296.748,356.238 296.462 C 356.081 296.208,356.133 296.000,356.353 296.000 C 356.573 296.000,356.864 296.180,357.001 296.401 C 357.164 296.666,357.525 296.654,358.062 296.367 C 358.782 295.981,358.845 296.027,358.610 296.768 C 358.280 297.807,359.191 298.247,360.369 297.617 C 361.354 297.089,361.434 296.291,360.586 295.443 C 360.248 295.105,359.991 294.692,360.016 294.524 C 360.110 293.879,359.285 294.002,359.028 294.672 M333.900 294.699 C 337.255 294.766,342.745 294.766,346.100 294.699 C 349.455 294.632,346.710 294.578,340.000 294.578 C 333.290 294.578,330.545 294.632,333.900 294.699 M360.417 295.820 C 360.841 296.331,360.821 296.551,360.304 297.067 C 359.327 298.044,358.619 296.944,359.167 295.300 C 359.269 294.992,359.972 295.284,360.417 295.820 M327.115 295.928 C 326.738 296.078,332.536 296.200,340.000 296.200 C 347.464 296.200,353.262 296.078,352.885 295.928 C 352.508 295.779,346.710 295.656,340.000 295.656 C 333.290 295.656,327.492 295.779,327.115 295.928 M359.371 296.450 C 359.371 296.868,359.547 297.151,359.761 297.080 C 360.389 296.870,360.479 296.116,359.903 295.895 C 359.576 295.769,359.371 295.983,359.371 296.450 M327.200 296.800 C 326.650 296.976,332.410 297.120,340.000 297.120 C 347.590 297.120,353.350 296.976,352.800 296.800 C 352.250 296.624,346.490 296.480,340.000 296.480 C 333.510 296.480,327.750 296.624,327.200 296.800 M355.867 297.467 C 355.327 298.007,355.626 298.400,356.576 298.400 C 357.685 298.400,358.247 297.800,357.545 297.366 C 357.252 297.185,357.184 297.250,357.362 297.538 C 357.519 297.792,357.457 298.000,357.224 298.000 C 356.991 298.000,356.800 297.820,356.800 297.600 C 356.800 297.145,356.265 297.068,355.867 297.467 M332.500 297.899 C 336.625 297.964,343.375 297.964,347.500 297.899 C 351.625 297.834,348.250 297.781,340.000 297.781 C 331.750 297.781,328.375 297.834,332.500 297.899 M38.400 377.000 C 38.400 377.688,38.618 377.998,39.100 377.994 C 39.660 377.989,39.689 377.917,39.242 377.634 C 38.935 377.440,38.794 376.993,38.929 376.640 C 39.064 376.288,39.001 376.000,38.787 376.000 C 38.574 376.000,38.400 376.450,38.400 377.000 M287.771 377.468 C 287.912 377.836,287.797 378.282,287.514 378.462 C 287.114 378.716,287.111 378.789,287.500 378.794 C 287.775 378.797,288.000 378.991,288.000 379.224 C 288.000 379.457,287.792 379.519,287.538 379.362 C 287.272 379.197,287.184 379.251,287.331 379.488 C 287.480 379.729,287.164 379.900,286.569 379.900 C 285.871 379.900,285.619 379.728,285.764 379.350 C 285.880 379.048,285.801 378.800,285.587 378.800 C 285.374 378.800,285.200 379.070,285.200 379.400 C 285.200 379.740,284.841 380.000,284.371 380.000 C 283.602 380.000,283.590 380.047,284.201 380.658 C 284.888 381.345,284.282 382.221,283.467 381.718 C 283.263 381.592,283.187 381.739,283.298 382.044 C 283.409 382.350,283.716 382.551,283.980 382.490 C 284.244 382.430,284.345 382.565,284.206 382.790 C 283.752 383.524,285.539 383.222,286.077 382.474 C 286.365 382.074,286.912 381.631,287.293 381.489 C 287.687 381.342,287.891 380.982,287.766 380.656 C 287.645 380.340,287.738 379.962,287.973 379.817 C 288.539 379.467,288.525 376.800,287.957 376.800 C 287.708 376.800,287.626 377.092,287.771 377.468 M39.200 382.757 C 39.200 383.027,39.020 383.136,38.800 383.000 C 38.580 382.864,38.400 383.072,38.400 383.462 C 38.400 384.128,38.441 384.130,39.076 383.495 C 39.448 383.123,39.628 382.695,39.476 382.543 C 39.324 382.391,39.200 382.487,39.200 382.757 M40.518 382.900 C 40.509 383.175,40.434 383.648,40.351 383.950 C 40.268 384.253,40.425 384.582,40.700 384.683 C 41.032 384.805,41.200 384.451,41.200 383.633 C 41.200 382.488,40.553 381.792,40.518 382.900 M281.165 383.400 C 281.132 383.620,281.124 383.929,281.148 384.086 C 281.171 384.243,280.959 384.282,280.675 384.174 C 280.339 384.044,280.160 384.327,280.160 384.988 C 280.160 385.623,280.391 386.010,280.780 386.028 C 281.219 386.048,281.167 386.156,280.600 386.400 C 280.160 386.589,279.957 386.756,280.149 386.772 C 280.341 386.787,280.276 387.068,280.004 387.396 C 279.732 387.723,279.350 387.893,279.155 387.772 C 278.960 387.651,278.800 387.743,278.800 387.976 C 278.800 388.460,280.115 388.552,280.567 388.100 C 280.732 387.935,281.017 387.800,281.200 387.800 C 281.865 387.800,284.000 385.961,284.000 385.388 C 284.000 385.065,284.180 384.800,284.400 384.800 C 284.620 384.800,284.800 384.530,284.800 384.200 C 284.800 383.870,284.609 383.600,284.376 383.600 C 284.143 383.600,284.040 383.741,284.147 383.914 C 284.254 384.087,284.008 384.229,283.600 384.229 C 283.192 384.229,282.946 384.087,283.053 383.914 C 283.160 383.741,283.057 383.600,282.824 383.600 C 282.591 383.600,282.400 383.814,282.400 384.076 C 282.400 384.339,282.136 384.204,281.813 383.776 C 281.490 383.349,281.198 383.180,281.165 383.400 M41.877 385.456 C 41.999 385.774,42.270 385.977,42.479 385.907 C 43.132 385.689,43.033 385.081,42.328 384.978 C 41.886 384.913,41.731 385.077,41.877 385.456 M42.178 386.835 C 41.829 387.400,42.600 388.171,43.165 387.822 C 43.800 387.429,43.697 386.400,43.024 386.400 C 42.707 386.400,42.326 386.596,42.178 386.835 M44.188 387.219 C 43.847 387.771,44.673 388.385,45.767 388.394 C 46.188 388.397,46.458 388.353,46.367 388.296 C 46.275 388.238,45.813 387.867,45.340 387.470 C 44.716 386.946,44.400 386.877,44.188 387.219 M49.684 387.815 C 49.232 388.328,63.120 388.388,162.684 388.301 L 276.200 388.201 163.277 388.100 C 88.254 388.033,50.436 387.865,50.600 387.599 C 50.979 386.987,50.267 387.155,49.684 387.815 " stroke="none" fill="#484444" fill-rule="evenodd"></path></g></svg>