<svg id="svg" version="1.1" xmlns="http://www.w3.org/2000/svg" xmlns:xlink="http://www.w3.org/1999/xlink" width="400" height="420" viewBox="0, 0, 400,420"><g id="svgg"><path id="path0" d="M128.460 25.580 C 128.548 25.844,128.751 26.047,128.910 26.030 C 129.388 25.981,129.296 25.432,128.780 25.260 C 128.516 25.172,128.372 25.316,128.460 25.580 M130.000 25.551 C 130.000 26.063,131.176 26.957,131.467 26.667 C 131.757 26.376,130.863 25.200,130.351 25.200 C 130.158 25.200,130.000 25.358,130.000 25.551 M131.600 25.520 C 131.600 25.696,131.816 26.056,132.080 26.320 C 132.453 26.693,132.453 26.800,132.080 26.800 C 131.816 26.800,131.600 26.992,131.600 27.227 C 131.600 27.469,131.989 27.557,132.500 27.431 C 132.995 27.308,133.185 27.307,132.922 27.430 C 132.660 27.552,132.542 27.955,132.660 28.326 C 132.786 28.721,132.736 28.835,132.538 28.600 C 132.075 28.052,131.200 27.913,131.200 28.387 C 131.200 28.601,130.930 28.671,130.600 28.545 C 130.249 28.410,129.997 28.540,129.994 28.857 C 129.989 29.276,129.900 29.263,129.603 28.800 C 129.391 28.470,129.316 27.885,129.436 27.500 C 129.709 26.623,128.864 26.568,128.529 27.440 C 128.394 27.793,128.535 28.240,128.842 28.434 C 129.149 28.629,129.243 28.791,129.051 28.794 C 128.859 28.797,128.930 29.074,129.208 29.410 C 129.486 29.745,129.598 30.135,129.457 30.276 C 129.316 30.418,129.200 30.323,129.200 30.067 C 129.200 29.810,129.026 29.600,128.813 29.600 C 128.568 29.600,128.425 36.682,128.424 48.800 C 128.423 60.965,128.565 68.000,128.811 68.000 C 129.291 68.000,129.144 68.896,128.600 69.288 C 128.361 69.459,128.648 70.024,129.312 70.688 C 130.250 71.626,130.484 71.706,130.806 71.200 C 131.016 70.870,131.191 70.757,131.194 70.949 C 131.197 71.141,131.474 71.070,131.809 70.792 C 132.318 70.370,132.377 70.394,132.168 70.939 C 131.937 71.540,137.275 71.592,200.584 71.598 C 250.620 71.603,269.176 71.484,268.977 71.162 C 268.791 70.862,268.986 70.871,269.586 71.193 C 270.694 71.785,270.995 71.511,270.418 70.434 C 270.122 69.880,270.111 69.600,270.386 69.600 C 270.614 69.600,270.800 69.780,270.800 70.000 C 270.800 70.220,271.149 70.400,271.576 70.400 C 272.003 70.400,272.458 70.571,272.587 70.779 C 272.718 70.990,272.431 71.083,271.940 70.988 C 271.295 70.864,271.177 70.937,271.502 71.262 C 272.093 71.853,273.245 71.383,272.969 70.663 C 272.846 70.343,273.197 69.746,273.776 69.291 C 274.773 68.506,275.228 67.688,274.373 68.217 C 274.118 68.374,273.997 68.188,274.073 67.755 C 274.152 67.302,273.917 66.971,273.447 66.875 C 272.819 66.746,272.736 66.890,272.948 67.736 C 273.088 68.294,273.019 68.864,272.795 69.003 C 272.571 69.142,272.491 69.423,272.617 69.628 C 272.744 69.832,272.432 69.997,271.924 69.994 C 271.181 69.989,271.117 69.912,271.600 69.600 C 272.177 69.227,271.390 68.968,270.270 69.163 C 270.089 69.194,270.056 69.032,270.198 68.803 C 270.339 68.574,270.610 68.483,270.800 68.600 C 270.990 68.717,271.260 68.627,271.400 68.400 C 271.540 68.173,271.823 68.091,272.028 68.217 C 272.232 68.344,272.400 68.249,272.400 68.006 C 272.400 67.763,272.142 67.618,271.826 67.682 C 271.511 67.747,271.286 67.620,271.326 67.400 C 271.367 67.180,271.505 67.035,271.633 67.078 C 272.061 67.220,271.886 65.805,271.439 65.506 C 271.168 65.325,271.266 65.210,271.696 65.206 C 272.344 65.200,272.399 64.034,272.500 48.100 L 272.609 31.000 272.704 48.436 L 272.800 65.872 273.700 66.282 L 274.600 66.692 274.515 48.446 C 274.447 33.899,274.326 30.192,273.915 30.161 C 273.514 30.131,273.512 30.160,273.905 30.292 C 274.183 30.385,274.314 30.616,274.196 30.806 C 273.853 31.361,273.769 65.583,274.110 65.770 C 274.281 65.864,274.228 65.906,273.993 65.864 C 273.698 65.812,273.571 60.532,273.582 48.794 C 273.597 31.662,273.479 30.139,272.214 31.189 C 271.682 31.630,271.480 31.633,271.083 31.204 C 270.766 30.861,270.757 30.770,271.057 30.939 C 271.327 31.090,271.617 30.785,271.766 30.194 C 271.987 29.314,272.187 29.216,273.447 29.372 C 274.858 29.547,274.868 29.538,274.150 28.745 C 273.631 28.172,273.585 27.978,273.987 28.070 C 274.298 28.142,274.625 27.864,274.715 27.453 C 274.816 26.985,274.713 26.807,274.438 26.976 C 273.852 27.339,273.878 26.682,274.473 26.087 C 274.734 25.826,274.821 25.487,274.667 25.333 C 274.513 25.179,274.174 25.266,273.913 25.527 C 273.318 26.122,272.661 26.148,273.024 25.562 C 273.193 25.287,273.015 25.184,272.547 25.285 C 272.136 25.375,271.845 25.662,271.900 25.924 C 271.955 26.186,271.820 26.400,271.600 26.400 C 271.380 26.400,271.200 26.130,271.200 25.800 C 271.200 25.090,270.567 25.006,270.162 25.662 C 269.973 25.967,270.054 26.014,270.400 25.800 C 270.768 25.572,270.828 25.631,270.601 25.999 C 270.345 26.413,270.178 26.384,269.795 25.861 C 269.325 25.219,268.567 24.899,268.938 25.500 C 269.040 25.665,238.586 25.710,201.262 25.600 C 163.776 25.490,133.288 25.553,133.150 25.743 C 133.013 25.931,132.777 25.886,132.626 25.643 C 132.311 25.132,131.600 25.047,131.600 25.520 M273.425 26.862 C 274.071 27.556,274.374 27.994,274.097 27.837 C 273.805 27.670,273.494 27.811,273.354 28.175 C 273.222 28.519,272.873 28.800,272.577 28.800 C 272.282 28.800,271.888 29.072,271.702 29.404 C 271.402 29.939,271.275 29.936,270.582 29.371 C 269.888 28.807,269.882 28.760,270.521 28.963 C 270.942 29.096,271.140 29.027,270.997 28.795 C 270.863 28.578,270.448 28.386,270.076 28.368 C 269.527 28.343,269.513 28.296,270.000 28.118 C 270.952 27.770,272.396 26.317,272.164 25.942 C 271.725 25.231,272.292 25.645,273.425 26.862 M130.000 27.367 C 130.000 27.715,130.285 28.000,130.633 28.000 C 131.340 28.000,131.217 27.139,130.475 26.892 C 130.214 26.805,130.000 27.018,130.000 27.367 M271.864 27.377 C 271.585 28.104,272.056 28.460,272.738 28.038 C 273.129 27.797,273.113 27.626,272.666 27.254 C 272.216 26.881,272.045 26.907,271.864 27.377 M274.273 69.845 C 274.460 70.335,274.391 70.442,274.030 70.218 C 273.681 70.003,273.566 70.127,273.662 70.619 C 273.738 71.012,274.002 71.401,274.250 71.484 C 274.775 71.658,274.872 69.692,274.355 69.372 C 274.165 69.255,274.128 69.467,274.273 69.845 M235.100 71.100 C 216.675 71.157,186.525 71.157,168.100 71.100 C 149.675 71.042,164.750 70.995,201.600 70.995 C 238.450 70.995,253.525 71.042,235.100 71.100 M39.702 85.947 C 39.835 86.454,39.694 86.679,39.264 86.647 C 38.916 86.621,38.561 86.936,38.477 87.347 C 38.380 87.816,38.488 87.993,38.765 87.822 C 39.064 87.637,39.052 87.887,38.726 88.603 C 38.333 89.465,38.351 89.724,38.823 90.023 C 39.196 90.259,39.229 90.390,38.916 90.394 C 38.271 90.402,38.166 125.215,38.806 126.412 C 39.095 126.950,39.097 127.200,38.814 127.200 C 38.586 127.200,38.400 127.470,38.400 127.800 C 38.400 128.130,38.625 128.403,38.900 128.406 C 39.274 128.411,39.265 128.498,38.866 128.751 C 38.187 129.181,38.187 129.619,38.866 130.049 C 39.160 130.235,39.205 130.391,38.967 130.394 C 38.728 130.397,38.533 130.640,38.533 130.933 C 38.533 131.227,38.773 131.467,39.067 131.467 C 39.360 131.467,39.603 131.272,39.606 131.033 C 39.609 130.795,39.765 130.840,39.951 131.134 C 40.137 131.428,40.429 131.668,40.600 131.668 C 40.771 131.668,41.063 131.428,41.249 131.134 C 41.502 130.735,41.589 130.726,41.594 131.100 C 41.599 131.490,44.550 131.600,55.000 131.600 L 68.400 131.600 68.447 260.300 C 68.473 331.085,68.473 389.135,68.447 389.300 C 68.421 389.465,68.580 389.600,68.800 389.600 C 69.020 389.600,69.200 389.791,69.200 390.024 C 69.200 390.257,69.020 390.336,68.800 390.200 C 68.232 389.849,68.302 391.342,68.880 391.920 C 69.253 392.293,69.246 392.400,68.847 392.400 C 68.564 392.400,68.408 392.624,68.499 392.898 C 68.691 393.474,69.880 393.569,70.911 393.090 C 71.841 392.658,71.432 392.014,70.400 392.284 C 69.844 392.430,69.600 392.296,69.600 391.847 C 69.600 391.044,70.018 391.027,71.024 391.787 C 72.201 392.678,327.799 392.678,328.976 391.787 C 329.982 391.027,330.400 391.044,330.400 391.847 C 330.400 392.296,330.156 392.430,329.600 392.284 C 328.568 392.014,328.159 392.658,329.089 393.090 C 330.120 393.569,331.309 393.474,331.501 392.898 C 331.592 392.624,331.436 392.400,331.153 392.400 C 330.754 392.400,330.747 392.293,331.120 391.920 C 331.698 391.342,331.768 389.849,331.200 390.200 C 330.980 390.336,330.800 390.257,330.800 390.024 C 330.800 389.791,330.980 389.600,331.200 389.600 C 331.420 389.600,331.579 389.465,331.553 389.300 C 331.527 389.135,331.527 331.085,331.553 260.300 L 331.600 131.600 345.000 131.600 C 355.450 131.600,358.401 131.490,358.406 131.100 C 358.411 130.726,358.498 130.735,358.751 131.134 C 359.181 131.813,359.619 131.813,360.049 131.134 C 360.235 130.840,360.391 130.795,360.394 131.033 C 360.397 131.272,360.640 131.467,360.933 131.467 C 361.227 131.467,361.467 131.227,361.467 130.933 C 361.467 130.640,361.272 130.397,361.033 130.394 C 360.795 130.391,360.840 130.235,361.134 130.049 C 361.813 129.619,361.813 129.181,361.134 128.751 C 360.735 128.498,360.726 128.411,361.100 128.406 C 361.375 128.403,361.600 128.130,361.600 127.800 C 361.600 127.470,361.414 127.200,361.186 127.200 C 360.903 127.200,360.905 126.950,361.194 126.412 C 361.834 125.215,361.729 90.402,361.084 90.394 C 360.771 90.390,360.804 90.259,361.177 90.023 C 361.649 89.724,361.667 89.465,361.274 88.603 C 360.948 87.887,360.936 87.637,361.235 87.822 C 361.512 87.993,361.620 87.816,361.523 87.347 C 361.439 86.936,361.084 86.621,360.736 86.647 C 360.306 86.679,360.165 86.454,360.298 85.947 C 360.514 85.121,359.786 84.905,359.465 85.700 C 359.304 86.100,359.257 86.100,359.232 85.700 C 359.214 85.425,359.009 85.200,358.776 85.200 C 358.543 85.200,358.436 85.335,358.538 85.500 C 358.829 85.969,331.450 85.869,331.112 85.400 C 330.925 85.140,330.540 85.176,330.012 85.503 C 329.532 85.801,329.200 85.842,329.200 85.603 C 329.200 85.333,286.590 85.200,200.000 85.200 C 113.410 85.200,70.800 85.333,70.800 85.603 C 70.800 85.842,70.468 85.801,69.988 85.503 C 69.460 85.176,69.075 85.140,68.888 85.400 C 68.550 85.869,41.171 85.969,41.462 85.500 C 41.564 85.335,41.472 85.200,41.257 85.200 C 41.042 85.200,40.776 85.425,40.665 85.700 C 40.504 86.100,40.457 86.100,40.432 85.700 C 40.414 85.425,40.199 85.200,39.953 85.200 C 39.708 85.200,39.595 85.536,39.702 85.947 M54.880 86.700 C 47.089 86.763,41.254 86.963,41.377 87.163 C 41.497 87.357,41.322 87.621,40.988 87.749 C 40.494 87.939,40.460 87.836,40.805 87.191 C 41.215 86.424,41.639 86.403,54.914 86.495 L 68.600 86.589 54.880 86.700 M359.195 87.191 C 359.540 87.836,359.506 87.939,359.012 87.749 C 358.678 87.621,358.503 87.357,358.623 87.163 C 358.746 86.963,352.911 86.763,345.120 86.700 L 331.400 86.589 345.086 86.495 C 358.361 86.403,358.785 86.424,359.195 87.191 M288.499 239.800 L 288.600 348.800 200.000 348.800 L 111.400 348.800 111.501 239.800 L 111.603 130.800 200.000 130.800 L 288.397 130.800 288.499 239.800 M138.545 175.800 C 138.205 176.685,138.693 177.647,139.602 177.885 C 140.041 177.999,140.397 178.387,140.394 178.747 C 140.390 179.158,140.279 179.237,140.094 178.961 C 139.688 178.353,138.533 178.419,138.533 179.049 C 138.533 179.333,138.728 179.448,138.967 179.306 C 139.205 179.163,139.176 179.323,138.903 179.661 C 138.174 180.561,138.174 299.439,138.903 300.339 C 139.176 300.677,139.205 300.837,138.967 300.694 C 138.728 300.552,138.533 300.667,138.533 300.951 C 138.533 301.581,139.688 301.647,140.094 301.039 C 140.284 300.756,140.390 300.815,140.394 301.205 C 140.397 301.538,139.995 301.988,139.500 302.205 C 138.914 302.462,138.600 302.947,138.600 303.595 C 138.600 304.796,139.631 305.112,140.551 304.191 C 141.142 303.601,141.373 303.703,141.247 304.500 C 141.221 304.665,149.660 304.800,160.000 304.800 C 170.340 304.800,178.779 304.665,178.753 304.500 C 178.627 303.703,178.858 303.601,179.449 304.191 C 180.369 305.112,181.400 304.796,181.400 303.595 C 181.400 302.947,181.086 302.462,180.500 302.205 C 180.005 301.988,179.603 301.538,179.606 301.205 C 179.610 300.815,179.716 300.756,179.906 301.039 C 180.312 301.647,181.467 301.581,181.467 300.951 C 181.467 300.667,181.272 300.552,181.033 300.694 C 180.795 300.837,180.824 300.677,181.097 300.339 C 181.489 299.855,181.595 287.014,181.595 240.000 C 181.595 192.986,181.489 180.145,181.097 179.661 C 180.824 179.323,180.795 179.163,181.033 179.306 C 181.272 179.448,181.467 179.333,181.467 179.049 C 181.467 178.419,180.312 178.353,179.906 178.961 C 179.716 179.244,179.610 179.185,179.606 178.795 C 179.603 178.462,180.005 178.012,180.500 177.795 C 181.086 177.538,181.400 177.053,181.400 176.405 C 181.400 175.204,180.369 174.888,179.449 175.809 C 178.858 176.399,178.627 176.297,178.753 175.500 C 178.779 175.335,170.340 175.200,160.000 175.200 C 149.660 175.200,141.221 175.335,141.247 175.500 C 141.372 176.291,141.145 176.402,140.571 175.829 C 139.777 175.034,138.844 175.021,138.545 175.800 M218.545 175.800 C 218.205 176.685,218.693 177.647,219.602 177.885 C 220.041 177.999,220.397 178.387,220.394 178.747 C 220.390 179.158,220.279 179.237,220.094 178.961 C 219.688 178.353,218.533 178.419,218.533 179.049 C 218.533 179.333,218.728 179.448,218.967 179.306 C 219.205 179.163,219.176 179.323,218.903 179.661 C 218.511 180.145,218.405 192.986,218.405 240.000 C 218.405 287.014,218.511 299.855,218.903 300.339 C 219.176 300.677,219.205 300.837,218.967 300.694 C 218.728 300.552,218.533 300.667,218.533 300.951 C 218.533 301.581,219.688 301.647,220.094 301.039 C 220.284 300.756,220.390 300.815,220.394 301.205 C 220.397 301.538,219.995 301.988,219.500 302.205 C 218.914 302.462,218.600 302.947,218.600 303.595 C 218.600 304.796,219.631 305.112,220.551 304.191 C 221.142 303.601,221.373 303.703,221.247 304.500 C 221.221 304.665,229.660 304.800,240.000 304.800 C 250.340 304.800,258.779 304.665,258.753 304.500 C 258.627 303.703,258.858 303.601,259.449 304.191 C 260.369 305.112,261.400 304.796,261.400 303.595 C 261.400 302.947,261.086 302.462,260.500 302.205 C 260.005 301.988,259.603 301.538,259.606 301.205 C 259.610 300.815,259.716 300.756,259.906 301.039 C 260.312 301.647,261.467 301.581,261.467 300.951 C 261.467 300.667,261.272 300.552,261.033 300.694 C 260.795 300.837,260.824 300.677,261.097 300.339 C 261.489 299.855,261.595 287.014,261.595 240.000 C 261.595 192.986,261.489 180.145,261.097 179.661 C 260.824 179.323,260.795 179.163,261.033 179.306 C 261.272 179.448,261.467 179.333,261.467 179.049 C 261.467 178.419,260.312 178.353,259.906 178.961 C 259.716 179.244,259.610 179.185,259.606 178.795 C 259.603 178.462,260.005 178.012,260.500 177.795 C 261.086 177.538,261.400 177.053,261.400 176.405 C 261.400 175.204,260.369 174.888,259.449 175.809 C 258.858 176.399,258.627 176.297,258.753 175.500 C 258.779 175.335,250.340 175.200,240.000 175.200 C 229.660 175.200,221.221 175.335,221.247 175.500 C 221.372 176.291,221.145 176.402,220.571 175.829 C 219.777 175.034,218.844 175.021,218.545 175.800 M140.130 175.863 C 140.275 176.008,140.170 176.402,139.897 176.738 C 139.474 177.259,139.519 177.305,140.200 177.051 C 140.844 176.811,140.902 176.851,140.497 177.259 C 139.890 177.870,138.523 176.772,138.976 176.038 C 139.282 175.543,139.740 175.473,140.130 175.863 M181.024 176.038 C 181.477 176.772,180.110 177.870,179.503 177.259 C 179.098 176.851,179.156 176.811,179.800 177.051 C 180.481 177.305,180.526 177.259,180.103 176.738 C 179.627 176.151,179.792 175.600,180.443 175.600 C 180.613 175.600,180.875 175.797,181.024 176.038 M220.130 175.863 C 220.275 176.008,220.170 176.402,219.897 176.738 C 219.474 177.259,219.519 177.305,220.200 177.051 C 220.844 176.811,220.902 176.851,220.497 177.259 C 219.890 177.870,218.523 176.772,218.976 176.038 C 219.282 175.543,219.740 175.473,220.130 175.863 M261.024 176.038 C 261.477 176.772,260.110 177.870,259.503 177.259 C 259.098 176.851,259.156 176.811,259.800 177.051 C 260.481 177.305,260.526 177.259,260.103 176.738 C 259.627 176.151,259.792 175.600,260.443 175.600 C 260.613 175.600,260.875 175.797,261.024 176.038 M178.545 178.200 C 178.747 178.728,176.524 178.800,160.000 178.800 C 143.476 178.800,141.253 178.728,141.455 178.200 C 141.655 177.679,144.090 177.600,160.000 177.600 C 175.910 177.600,178.345 177.679,178.545 178.200 M258.545 178.200 C 258.747 178.728,256.524 178.800,240.000 178.800 C 223.476 178.800,221.253 178.728,221.455 178.200 C 221.655 177.679,224.090 177.600,240.000 177.600 C 255.910 177.600,258.345 177.679,258.545 178.200 M178.545 301.800 C 178.345 302.321,175.910 302.400,160.000 302.400 C 144.090 302.400,141.655 302.321,141.455 301.800 C 141.253 301.272,143.476 301.200,160.000 301.200 C 176.524 301.200,178.747 301.272,178.545 301.800 M258.545 301.800 C 258.345 302.321,255.910 302.400,240.000 302.400 C 224.090 302.400,221.655 302.321,221.455 301.800 C 221.253 301.272,223.476 301.200,240.000 301.200 C 256.524 301.200,258.747 301.272,258.545 301.800 M140.597 302.795 C 140.744 303.033,140.554 303.083,140.121 302.921 C 139.502 302.688,139.473 302.741,139.919 303.289 C 140.299 303.757,140.317 304.004,139.985 304.210 C 139.228 304.677,138.594 303.731,139.186 303.017 C 139.776 302.306,140.249 302.232,140.597 302.795 M180.814 303.017 C 181.406 303.731,180.772 304.677,180.015 304.210 C 179.683 304.004,179.701 303.757,180.081 303.289 C 180.527 302.741,180.498 302.688,179.879 302.921 C 179.446 303.083,179.256 303.033,179.403 302.795 C 179.751 302.232,180.224 302.306,180.814 303.017 M220.597 302.795 C 220.744 303.033,220.554 303.083,220.121 302.921 C 219.502 302.688,219.473 302.741,219.919 303.289 C 220.299 303.757,220.317 304.004,219.985 304.210 C 219.228 304.677,218.594 303.731,219.186 303.017 C 219.776 302.306,220.249 302.232,220.597 302.795 M260.814 303.017 C 261.406 303.731,260.772 304.677,260.015 304.210 C 259.683 304.004,259.701 303.757,260.081 303.289 C 260.527 302.741,260.498 302.688,259.879 302.921 C 259.446 303.083,259.256 303.033,259.403 302.795 C 259.751 302.232,260.224 302.306,260.814 303.017 M264.300 391.500 C 228.935 391.556,171.065 391.556,135.700 391.500 C 100.335 391.444,129.270 391.398,200.000 391.398 C 270.730 391.398,299.665 391.444,264.300 391.500 M71.455 393.800 C 71.659 394.332,86.312 394.400,200.000 394.400 C 313.688 394.400,328.341 394.332,328.545 393.800 C 328.749 393.267,314.302 393.200,200.000 393.200 C 85.698 393.200,71.251 393.267,71.455 393.800 " stroke="none" fill="#444444" fill-rule="evenodd"></path><path id="path1" d="M128.792 25.810 C 128.377 26.309,128.420 26.671,129.027 27.798 C 129.463 28.608,129.880 28.994,130.039 28.736 C 130.189 28.495,130.511 28.421,130.755 28.572 C 131.000 28.724,131.200 28.657,131.200 28.424 C 131.200 27.920,132.059 28.033,132.538 28.600 C 132.736 28.835,132.786 28.721,132.660 28.326 C 132.542 27.955,132.660 27.552,132.922 27.430 C 133.185 27.307,132.995 27.308,132.500 27.431 C 131.989 27.557,131.600 27.469,131.600 27.227 C 131.600 26.992,131.780 26.800,132.000 26.800 C 132.220 26.800,132.355 26.575,132.300 26.300 C 132.245 26.025,132.425 25.845,132.700 25.900 C 132.975 25.955,133.200 25.820,133.200 25.600 C 133.200 25.058,132.664 25.096,132.080 25.680 C 131.707 26.053,131.600 26.053,131.600 25.680 C 131.600 25.416,131.398 25.200,131.151 25.200 C 130.844 25.200,130.862 25.393,131.208 25.810 C 131.486 26.145,131.583 26.550,131.423 26.710 C 131.262 26.869,130.803 26.595,130.401 26.100 C 129.536 25.033,129.449 25.017,128.792 25.810 M158.400 25.497 C 222.639 25.770,269.106 25.771,268.938 25.500 C 268.836 25.335,238.478 25.244,201.476 25.297 C 164.474 25.350,145.090 25.440,158.400 25.497 M269.660 25.580 C 269.832 26.096,270.381 26.188,270.430 25.710 C 270.447 25.550,270.244 25.348,269.980 25.260 C 269.716 25.172,269.572 25.316,269.660 25.580 M271.200 25.800 C 271.200 26.130,271.391 26.400,271.624 26.400 C 271.857 26.400,271.919 26.192,271.762 25.938 C 271.584 25.650,271.652 25.585,271.945 25.766 C 272.202 25.925,272.324 26.199,272.216 26.374 C 271.933 26.831,273.399 28.061,273.797 27.701 C 273.979 27.535,274.006 27.613,273.858 27.872 C 273.709 28.132,273.773 28.460,274.000 28.600 C 274.727 29.050,273.985 29.612,272.993 29.362 C 272.203 29.164,271.989 29.304,271.775 30.158 C 271.620 30.774,271.329 31.091,271.057 30.939 C 270.757 30.770,270.766 30.861,271.083 31.204 C 271.480 31.633,271.682 31.630,272.214 31.189 C 273.479 30.139,273.597 31.662,273.582 48.794 C 273.571 60.532,273.698 65.812,273.993 65.864 C 274.228 65.906,274.281 65.864,274.110 65.770 C 273.690 65.540,273.894 31.221,274.319 30.651 C 274.815 29.985,274.852 28.079,274.374 27.784 C 274.098 27.614,274.122 27.335,274.446 26.944 C 275.156 26.089,273.911 24.844,273.056 25.554 C 272.659 25.883,272.388 25.904,272.212 25.619 C 271.828 24.999,271.200 25.111,271.200 25.800 M274.136 26.623 C 273.955 27.093,273.784 27.119,273.334 26.746 C 272.887 26.374,272.871 26.203,273.262 25.962 C 273.944 25.540,274.415 25.896,274.136 26.623 M131.108 27.525 C 131.195 27.786,130.982 28.000,130.633 28.000 C 130.285 28.000,130.000 27.715,130.000 27.367 C 130.000 26.660,130.861 26.783,131.108 27.525 M271.200 27.400 C 270.926 27.730,270.409 28.011,270.051 28.025 C 269.610 28.043,269.691 28.168,270.300 28.412 C 271.358 28.838,271.519 29.275,270.500 28.955 C 269.907 28.768,269.919 28.832,270.582 29.371 C 271.275 29.936,271.402 29.939,271.702 29.404 C 271.888 29.072,272.301 28.800,272.620 28.800 C 272.939 28.800,273.200 28.601,273.200 28.357 C 273.200 28.114,272.936 28.016,272.613 28.140 C 272.290 28.264,271.902 28.165,271.751 27.921 C 271.586 27.653,271.658 27.589,271.934 27.759 C 272.229 27.942,272.307 27.822,272.153 27.421 C 271.859 26.656,271.818 26.655,271.200 27.400 M128.400 28.829 C 128.400 29.064,128.670 29.527,129.000 29.857 C 129.330 30.187,129.600 30.275,129.600 30.052 C 129.600 29.829,129.417 29.534,129.193 29.396 C 128.970 29.258,128.891 28.977,129.017 28.772 C 129.144 28.568,129.057 28.400,128.824 28.400 C 128.591 28.400,128.400 28.593,128.400 28.829 M272.496 48.100 C 272.406 64.080,272.354 65.200,271.700 65.206 C 271.269 65.210,271.169 65.325,271.439 65.506 C 271.886 65.805,272.061 67.220,271.633 67.078 C 271.505 67.035,271.395 67.180,271.388 67.400 C 271.382 67.620,271.607 67.747,271.888 67.682 C 272.170 67.618,272.400 67.763,272.400 68.006 C 272.400 68.249,272.232 68.344,272.028 68.217 C 271.823 68.091,271.540 68.173,271.400 68.400 C 271.260 68.627,270.990 68.717,270.800 68.600 C 270.610 68.483,270.339 68.574,270.198 68.803 C 270.056 69.032,270.089 69.194,270.270 69.163 C 271.390 68.968,272.177 69.227,271.600 69.600 C 271.117 69.912,271.181 69.989,271.924 69.994 C 272.432 69.997,272.744 69.832,272.617 69.628 C 272.491 69.423,272.571 69.142,272.795 69.003 C 273.019 68.864,273.088 68.294,272.948 67.736 C 272.736 66.890,272.819 66.746,273.447 66.875 C 273.917 66.971,274.152 67.302,274.073 67.755 C 273.997 68.188,274.118 68.374,274.373 68.217 C 275.121 67.754,274.833 66.798,273.804 66.329 L 272.808 65.875 272.700 48.438 L 272.591 31.000 272.496 48.100 M274.583 48.400 C 274.583 57.750,274.636 61.575,274.700 56.900 C 274.764 52.225,274.764 44.575,274.700 39.900 C 274.636 35.225,274.583 39.050,274.583 48.400 M273.796 69.207 C 273.658 69.430,273.393 69.519,273.207 69.405 C 273.022 69.290,272.921 69.660,272.983 70.226 C 273.063 70.958,272.972 71.132,272.668 70.828 C 272.433 70.593,271.916 70.400,271.520 70.400 C 271.124 70.400,270.800 70.220,270.800 70.000 C 270.800 69.780,270.624 69.600,270.409 69.600 C 270.170 69.600,270.196 69.992,270.473 70.600 C 270.954 71.655,271.394 71.858,271.795 71.208 C 271.948 70.961,272.322 70.994,272.809 71.298 C 273.764 71.895,274.477 71.316,274.637 69.816 C 274.746 68.796,274.265 68.448,273.796 69.207 M128.598 70.003 C 128.277 70.523,129.561 71.823,129.932 71.354 C 130.087 71.159,130.137 71.043,130.043 71.097 C 129.700 71.292,128.816 70.298,129.028 69.955 C 129.149 69.760,129.157 69.600,129.047 69.600 C 128.937 69.600,128.735 69.781,128.598 70.003 M131.796 70.807 C 131.658 71.030,131.377 71.109,131.172 70.983 C 130.968 70.856,130.800 70.943,130.800 71.176 C 130.800 71.823,131.883 71.681,132.145 71.000 C 132.406 70.320,132.176 70.192,131.796 70.807 M168.100 71.100 C 186.525 71.157,216.675 71.157,235.100 71.100 C 253.525 71.042,238.450 70.995,201.600 70.995 C 164.750 70.995,149.675 71.042,168.100 71.100 M38.979 85.566 C 39.103 85.767,38.979 86.015,38.702 86.116 C 38.312 86.259,38.324 86.422,38.759 86.850 C 39.233 87.317,39.268 87.314,38.993 86.832 C 38.757 86.419,38.838 86.329,39.289 86.502 C 39.750 86.679,39.858 86.542,39.708 85.970 C 39.597 85.547,39.337 85.200,39.130 85.200 C 38.922 85.200,38.855 85.365,38.979 85.566 M41.462 85.500 C 41.360 85.665,47.469 85.800,55.038 85.800 C 62.607 85.800,68.800 85.665,68.800 85.500 C 68.800 85.335,62.691 85.200,55.224 85.200 C 47.757 85.200,41.564 85.335,41.462 85.500 M331.200 85.500 C 331.200 85.665,337.393 85.800,344.962 85.800 C 352.531 85.800,358.640 85.665,358.538 85.500 C 358.436 85.335,352.243 85.200,344.776 85.200 C 337.309 85.200,331.200 85.335,331.200 85.500 M360.292 85.970 C 360.142 86.542,360.250 86.679,360.711 86.502 C 361.162 86.329,361.243 86.419,361.007 86.832 C 360.732 87.314,360.767 87.317,361.241 86.850 C 361.676 86.422,361.688 86.259,361.298 86.116 C 361.021 86.015,360.897 85.767,361.021 85.566 C 361.145 85.365,361.078 85.200,360.870 85.200 C 360.663 85.200,360.403 85.547,360.292 85.970 M40.805 87.191 C 40.460 87.836,40.494 87.939,40.988 87.749 C 41.322 87.621,41.497 87.357,41.377 87.163 C 41.254 86.963,47.089 86.763,54.880 86.700 L 68.600 86.589 54.914 86.495 C 41.639 86.403,41.215 86.424,40.805 87.191 M345.120 86.700 C 352.911 86.763,358.746 86.963,358.623 87.163 C 358.503 87.357,358.678 87.621,359.012 87.749 C 359.506 87.939,359.540 87.836,359.195 87.191 C 358.785 86.424,358.361 86.403,345.086 86.495 L 331.400 86.589 345.120 86.700 M111.600 131.200 C 111.600 131.465,141.333 131.600,200.000 131.600 C 258.667 131.600,288.400 131.465,288.400 131.200 C 288.400 130.935,258.667 130.800,200.000 130.800 C 141.333 130.800,111.600 130.935,111.600 131.200 M139.376 175.776 C 138.638 176.323,138.634 176.386,139.297 177.058 C 139.859 177.629,140.092 177.668,140.497 177.259 C 140.902 176.851,140.844 176.811,140.200 177.051 C 139.519 177.305,139.474 177.259,139.897 176.738 C 140.170 176.402,140.275 176.008,140.130 175.863 C 139.985 175.718,140.077 175.600,140.333 175.600 C 140.590 175.600,140.800 175.791,140.800 176.024 C 140.800 176.257,140.983 176.334,141.207 176.196 C 141.711 175.884,141.330 175.200,140.653 175.200 C 140.378 175.200,139.804 175.459,139.376 175.776 M178.617 175.572 C 178.491 175.777,178.570 176.058,178.793 176.196 C 179.017 176.334,179.200 176.257,179.200 176.024 C 179.200 175.791,179.410 175.600,179.667 175.600 C 179.923 175.600,180.015 175.718,179.870 175.863 C 179.725 176.008,179.830 176.402,180.103 176.738 C 180.526 177.259,180.481 177.305,179.800 177.051 C 179.156 176.811,179.098 176.851,179.503 177.259 C 179.908 177.668,180.141 177.629,180.703 177.058 C 181.366 176.386,181.362 176.323,180.624 175.776 C 179.731 175.114,178.949 175.035,178.617 175.572 M219.376 175.776 C 218.638 176.323,218.634 176.386,219.297 177.058 C 219.859 177.629,220.092 177.668,220.497 177.259 C 220.902 176.851,220.844 176.811,220.200 177.051 C 219.519 177.305,219.474 177.259,219.897 176.738 C 220.170 176.402,220.275 176.008,220.130 175.863 C 219.985 175.718,220.077 175.600,220.333 175.600 C 220.590 175.600,220.800 175.791,220.800 176.024 C 220.800 176.257,220.983 176.334,221.207 176.196 C 221.711 175.884,221.330 175.200,220.653 175.200 C 220.378 175.200,219.804 175.459,219.376 175.776 M258.617 175.572 C 258.491 175.777,258.570 176.058,258.793 176.196 C 259.017 176.334,259.200 176.257,259.200 176.024 C 259.200 175.791,259.410 175.600,259.667 175.600 C 259.923 175.600,260.015 175.718,259.870 175.863 C 259.725 176.008,259.830 176.402,260.103 176.738 C 260.526 177.259,260.481 177.305,259.800 177.051 C 259.156 176.811,259.098 176.851,259.503 177.259 C 259.908 177.668,260.141 177.629,260.703 177.058 C 261.366 176.386,261.362 176.323,260.624 175.776 C 259.731 175.114,258.949 175.035,258.617 175.572 M138.526 178.612 C 138.567 179.333,138.738 179.838,138.907 179.734 C 139.075 179.630,139.117 179.390,139.000 179.200 C 138.883 179.010,138.990 178.730,139.238 178.576 C 139.486 178.423,139.847 178.546,140.039 178.849 C 140.327 179.305,140.388 179.296,140.391 178.800 C 140.392 178.470,139.957 177.997,139.423 177.750 C 138.496 177.320,138.456 177.359,138.526 178.612 M180.500 177.744 C 180.005 177.989,179.603 178.462,179.606 178.795 C 179.611 179.294,179.673 179.304,179.961 178.849 C 180.153 178.546,180.514 178.423,180.762 178.576 C 181.010 178.730,181.117 179.010,181.000 179.200 C 180.883 179.390,180.925 179.630,181.093 179.734 C 181.262 179.838,181.435 179.311,181.477 178.562 C 181.519 177.813,181.519 177.222,181.477 177.249 C 181.435 177.276,180.995 177.499,180.500 177.744 M218.526 178.612 C 218.567 179.333,218.738 179.838,218.907 179.734 C 219.075 179.630,219.117 179.390,219.000 179.200 C 218.883 179.010,218.990 178.730,219.238 178.576 C 219.486 178.423,219.847 178.546,220.039 178.849 C 220.327 179.305,220.388 179.296,220.391 178.800 C 220.392 178.470,219.957 177.997,219.423 177.750 C 218.496 177.320,218.456 177.359,218.526 178.612 M260.500 177.744 C 260.005 177.989,259.603 178.462,259.606 178.795 C 259.611 179.294,259.673 179.304,259.961 178.849 C 260.153 178.546,260.514 178.423,260.762 178.576 C 261.010 178.730,261.117 179.010,261.000 179.200 C 260.883 179.390,260.925 179.630,261.093 179.734 C 261.262 179.838,261.435 179.311,261.477 178.562 C 261.519 177.813,261.519 177.222,261.477 177.249 C 261.435 177.276,260.995 177.499,260.500 177.744 M141.455 178.200 C 141.253 178.728,143.476 178.800,160.000 178.800 C 176.524 178.800,178.747 178.728,178.545 178.200 C 178.345 177.679,175.910 177.600,160.000 177.600 C 144.090 177.600,141.655 177.679,141.455 178.200 M221.455 178.200 C 221.253 178.728,223.476 178.800,240.000 178.800 C 256.524 178.800,258.747 178.728,258.545 178.200 C 258.345 177.679,255.910 177.600,240.000 177.600 C 224.090 177.600,221.655 177.679,221.455 178.200 M138.526 301.388 C 138.456 302.641,138.496 302.680,139.423 302.250 C 139.957 302.003,140.392 301.530,140.391 301.200 C 140.388 300.704,140.327 300.695,140.039 301.151 C 139.847 301.454,139.486 301.577,139.238 301.424 C 138.990 301.270,138.883 300.990,139.000 300.800 C 139.117 300.610,139.075 300.370,138.907 300.266 C 138.738 300.162,138.567 300.667,138.526 301.388 M181.150 300.200 C 181.123 300.310,181.078 300.565,181.050 300.767 C 180.947 301.518,180.344 301.757,179.984 301.188 C 179.659 300.673,179.612 300.675,179.609 301.200 C 179.608 301.530,180.043 302.003,180.577 302.250 C 181.507 302.681,181.545 302.644,181.474 301.350 C 181.407 300.123,181.281 299.676,181.150 300.200 M218.526 301.388 C 218.456 302.641,218.496 302.680,219.423 302.250 C 219.957 302.003,220.392 301.530,220.391 301.200 C 220.388 300.704,220.327 300.695,220.039 301.151 C 219.847 301.454,219.486 301.577,219.238 301.424 C 218.990 301.270,218.883 300.990,219.000 300.800 C 219.117 300.610,219.075 300.370,218.907 300.266 C 218.738 300.162,218.567 300.667,218.526 301.388 M261.150 300.200 C 261.123 300.310,261.078 300.565,261.050 300.767 C 260.947 301.518,260.344 301.757,259.984 301.188 C 259.659 300.673,259.612 300.675,259.609 301.200 C 259.608 301.530,260.043 302.003,260.577 302.250 C 261.507 302.681,261.545 302.644,261.474 301.350 C 261.407 300.123,261.281 299.676,261.150 300.200 M141.455 301.800 C 141.655 302.321,144.090 302.400,160.000 302.400 C 175.910 302.400,178.345 302.321,178.545 301.800 C 178.747 301.272,176.524 301.200,160.000 301.200 C 143.476 301.200,141.253 301.272,141.455 301.800 M221.455 301.800 C 221.655 302.321,224.090 302.400,240.000 302.400 C 255.910 302.400,258.345 302.321,258.545 301.800 C 258.747 301.272,256.524 301.200,240.000 301.200 C 223.476 301.200,221.253 301.272,221.455 301.800 M139.164 303.043 C 138.598 303.725,139.509 304.800,140.653 304.800 C 141.330 304.800,141.711 304.116,141.207 303.804 C 140.983 303.666,140.800 303.743,140.800 303.976 C 140.800 304.209,140.590 304.400,140.333 304.400 C 140.077 304.400,139.985 304.282,140.130 304.137 C 140.275 303.992,140.170 303.598,139.897 303.262 C 139.479 302.747,139.514 302.693,140.121 302.921 C 140.554 303.083,140.744 303.033,140.597 302.795 C 140.245 302.226,139.775 302.307,139.164 303.043 M179.403 302.795 C 179.256 303.033,179.446 303.083,179.879 302.921 C 180.486 302.693,180.521 302.747,180.103 303.262 C 179.830 303.598,179.725 303.992,179.870 304.137 C 180.015 304.282,179.923 304.400,179.667 304.400 C 179.410 304.400,179.200 304.209,179.200 303.976 C 179.200 303.743,179.017 303.666,178.793 303.804 C 178.289 304.116,178.670 304.800,179.347 304.800 C 180.491 304.800,181.402 303.725,180.836 303.043 C 180.225 302.307,179.755 302.226,179.403 302.795 M219.164 303.043 C 218.598 303.725,219.509 304.800,220.653 304.800 C 221.330 304.800,221.711 304.116,221.207 303.804 C 220.983 303.666,220.800 303.743,220.800 303.976 C 220.800 304.209,220.590 304.400,220.333 304.400 C 220.077 304.400,219.985 304.282,220.130 304.137 C 220.275 303.992,220.170 303.598,219.897 303.262 C 219.479 302.747,219.514 302.693,220.121 302.921 C 220.554 303.083,220.744 303.033,220.597 302.795 C 220.245 302.226,219.775 302.307,219.164 303.043 M259.403 302.795 C 259.256 303.033,259.446 303.083,259.879 302.921 C 260.486 302.693,260.521 302.747,260.103 303.262 C 259.830 303.598,259.725 303.992,259.870 304.137 C 260.015 304.282,259.923 304.400,259.667 304.400 C 259.410 304.400,259.200 304.209,259.200 303.976 C 259.200 303.743,259.017 303.666,258.793 303.804 C 258.289 304.116,258.670 304.800,259.347 304.800 C 260.491 304.800,261.402 303.725,260.836 303.043 C 260.225 302.307,259.755 302.226,259.403 302.795 M155.500 348.700 C 179.975 348.757,220.025 348.757,244.500 348.700 C 268.975 348.643,248.950 348.596,200.000 348.596 C 151.050 348.596,131.025 348.643,155.500 348.700 M69.600 391.847 C 69.600 392.296,69.844 392.430,70.400 392.284 C 71.451 392.009,71.825 392.652,70.901 393.146 C 70.453 393.386,69.928 393.391,69.516 393.161 C 69.073 392.913,68.755 392.950,68.556 393.271 C 68.392 393.536,68.471 393.824,68.732 393.911 C 68.992 393.997,69.103 394.233,68.979 394.434 C 68.855 394.635,68.943 394.800,69.176 394.800 C 69.409 394.800,69.600 394.620,69.600 394.400 C 69.600 394.180,69.791 394.000,70.024 394.000 C 70.257 394.000,70.336 394.180,70.200 394.400 C 70.064 394.620,70.128 394.800,70.343 394.800 C 70.558 394.800,70.824 394.575,70.935 394.300 C 71.096 393.900,71.143 393.900,71.168 394.300 C 71.194 394.699,97.237 394.800,199.967 394.800 C 302.606 394.800,328.774 394.699,328.935 394.300 C 329.096 393.900,329.143 393.900,329.168 394.300 C 329.186 394.575,329.391 394.800,329.624 394.800 C 329.857 394.800,329.936 394.620,329.800 394.400 C 329.664 394.180,329.743 394.000,329.976 394.000 C 330.209 394.000,330.400 394.180,330.400 394.400 C 330.400 394.620,330.591 394.800,330.824 394.800 C 331.057 394.800,331.145 394.635,331.021 394.434 C 330.897 394.233,331.008 393.997,331.268 393.911 C 331.529 393.824,331.609 393.538,331.447 393.275 C 331.250 392.957,330.922 392.921,330.465 393.165 C 330.042 393.392,329.512 393.383,329.081 393.141 C 328.180 392.637,328.559 392.012,329.600 392.284 C 330.156 392.430,330.400 392.296,330.400 391.847 C 330.400 391.044,329.982 391.027,328.976 391.787 C 327.799 392.678,72.201 392.678,71.024 391.787 C 70.018 391.027,69.600 391.044,69.600 391.847 M135.700 391.500 C 171.065 391.556,228.935 391.556,264.300 391.500 C 299.665 391.444,270.730 391.398,200.000 391.398 C 129.270 391.398,100.335 391.444,135.700 391.500 M328.545 393.800 C 328.341 394.332,313.688 394.400,200.000 394.400 C 86.312 394.400,71.659 394.332,71.455 393.800 C 71.251 393.267,85.698 393.200,200.000 393.200 C 314.302 393.200,328.749 393.267,328.545 393.800 " stroke="none" fill="#484444" fill-rule="evenodd"></path><path id="path2" d="M128.792 25.810 C 128.377 26.309,128.420 26.671,129.027 27.798 C 129.463 28.608,129.880 28.994,130.039 28.736 C 130.189 28.495,130.511 28.421,130.755 28.572 C 131.000 28.724,131.200 28.657,131.200 28.424 C 131.200 27.920,132.059 28.033,132.538 28.600 C 132.736 28.835,132.786 28.721,132.660 28.326 C 132.542 27.955,132.660 27.552,132.922 27.430 C 133.185 27.307,132.995 27.308,132.500 27.431 C 131.989 27.557,131.600 27.469,131.600 27.227 C 131.600 26.992,131.780 26.800,132.000 26.800 C 132.220 26.800,132.355 26.575,132.300 26.300 C 132.245 26.025,132.425 25.845,132.700 25.900 C 132.975 25.955,133.200 25.820,133.200 25.600 C 133.200 25.058,132.664 25.096,132.080 25.680 C 131.707 26.053,131.600 26.053,131.600 25.680 C 131.600 25.416,131.398 25.200,131.151 25.200 C 130.844 25.200,130.862 25.393,131.208 25.810 C 131.486 26.145,131.583 26.550,131.423 26.710 C 131.262 26.869,130.803 26.595,130.401 26.100 C 129.536 25.033,129.449 25.017,128.792 25.810 M158.400 25.497 C 222.639 25.770,269.106 25.771,268.938 25.500 C 268.836 25.335,238.478 25.244,201.476 25.297 C 164.474 25.350,145.090 25.440,158.400 25.497 M269.660 25.580 C 269.832 26.096,270.381 26.188,270.430 25.710 C 270.447 25.550,270.244 25.348,269.980 25.260 C 269.716 25.172,269.572 25.316,269.660 25.580 M271.200 25.800 C 271.200 26.130,271.391 26.400,271.624 26.400 C 271.857 26.400,271.919 26.192,271.762 25.938 C 271.584 25.650,271.652 25.585,271.945 25.766 C 272.202 25.925,272.324 26.199,272.216 26.374 C 271.933 26.831,273.399 28.061,273.797 27.701 C 273.979 27.535,274.006 27.613,273.858 27.872 C 273.709 28.132,273.773 28.460,274.000 28.600 C 274.727 29.050,273.985 29.612,272.993 29.362 C 272.203 29.164,271.989 29.304,271.775 30.158 C 271.620 30.774,271.329 31.091,271.057 30.939 C 270.757 30.770,270.766 30.861,271.083 31.204 C 271.480 31.633,271.682 31.630,272.214 31.189 C 273.479 30.139,273.597 31.662,273.582 48.794 C 273.571 60.532,273.698 65.812,273.993 65.864 C 274.228 65.906,274.281 65.864,274.110 65.770 C 273.690 65.540,273.894 31.221,274.319 30.651 C 274.815 29.985,274.852 28.079,274.374 27.784 C 274.098 27.614,274.122 27.335,274.446 26.944 C 275.156 26.089,273.911 24.844,273.056 25.554 C 272.659 25.883,272.388 25.904,272.212 25.619 C 271.828 24.999,271.200 25.111,271.200 25.800 M274.136 26.623 C 273.955 27.093,273.784 27.119,273.334 26.746 C 272.887 26.374,272.871 26.203,273.262 25.962 C 273.944 25.540,274.415 25.896,274.136 26.623 M131.108 27.525 C 131.195 27.786,130.982 28.000,130.633 28.000 C 130.285 28.000,130.000 27.715,130.000 27.367 C 130.000 26.660,130.861 26.783,131.108 27.525 M271.200 27.400 C 270.926 27.730,270.409 28.011,270.051 28.025 C 269.610 28.043,269.691 28.168,270.300 28.412 C 271.358 28.838,271.519 29.275,270.500 28.955 C 269.907 28.768,269.919 28.832,270.582 29.371 C 271.275 29.936,271.402 29.939,271.702 29.404 C 271.888 29.072,272.301 28.800,272.620 28.800 C 272.939 28.800,273.200 28.601,273.200 28.357 C 273.200 28.114,272.936 28.016,272.613 28.140 C 272.290 28.264,271.902 28.165,271.751 27.921 C 271.586 27.653,271.658 27.589,271.934 27.759 C 272.229 27.942,272.307 27.822,272.153 27.421 C 271.859 26.656,271.818 26.655,271.200 27.400 M128.400 28.829 C 128.400 29.064,128.670 29.527,129.000 29.857 C 129.330 30.187,129.600 30.275,129.600 30.052 C 129.600 29.829,129.417 29.534,129.193 29.396 C 128.970 29.258,128.891 28.977,129.017 28.772 C 129.144 28.568,129.057 28.400,128.824 28.400 C 128.591 28.400,128.400 28.593,128.400 28.829 M272.496 48.100 C 272.406 64.080,272.354 65.200,271.700 65.206 C 271.269 65.210,271.169 65.325,271.439 65.506 C 271.886 65.805,272.061 67.220,271.633 67.078 C 271.505 67.035,271.395 67.180,271.388 67.400 C 271.382 67.620,271.607 67.747,271.888 67.682 C 272.170 67.618,272.400 67.763,272.400 68.006 C 272.400 68.249,272.232 68.344,272.028 68.217 C 271.823 68.091,271.540 68.173,271.400 68.400 C 271.260 68.627,270.990 68.717,270.800 68.600 C 270.610 68.483,270.339 68.574,270.198 68.803 C 270.056 69.032,270.089 69.194,270.270 69.163 C 271.390 68.968,272.177 69.227,271.600 69.600 C 271.117 69.912,271.181 69.989,271.924 69.994 C 272.432 69.997,272.744 69.832,272.617 69.628 C 272.491 69.423,272.571 69.142,272.795 69.003 C 273.019 68.864,273.088 68.294,272.948 67.736 C 272.736 66.890,272.819 66.746,273.447 66.875 C 273.917 66.971,274.152 67.302,274.073 67.755 C 273.997 68.188,274.118 68.374,274.373 68.217 C 275.121 67.754,274.833 66.798,273.804 66.329 L 272.808 65.875 272.700 48.438 L 272.591 31.000 272.496 48.100 M274.583 48.400 C 274.583 57.750,274.636 61.575,274.700 56.900 C 274.764 52.225,274.764 44.575,274.700 39.900 C 274.636 35.225,274.583 39.050,274.583 48.400 M273.796 69.207 C 273.658 69.430,273.393 69.519,273.207 69.405 C 273.022 69.290,272.921 69.660,272.983 70.226 C 273.063 70.958,272.972 71.132,272.668 70.828 C 272.433 70.593,271.916 70.400,271.520 70.400 C 271.124 70.400,270.800 70.220,270.800 70.000 C 270.800 69.780,270.624 69.600,270.409 69.600 C 270.170 69.600,270.196 69.992,270.473 70.600 C 270.954 71.655,271.394 71.858,271.795 71.208 C 271.948 70.961,272.322 70.994,272.809 71.298 C 273.764 71.895,274.477 71.316,274.637 69.816 C 274.746 68.796,274.265 68.448,273.796 69.207 M128.598 70.003 C 128.277 70.523,129.561 71.823,129.932 71.354 C 130.087 71.159,130.137 71.043,130.043 71.097 C 129.700 71.292,128.816 70.298,129.028 69.955 C 129.149 69.760,129.157 69.600,129.047 69.600 C 128.937 69.600,128.735 69.781,128.598 70.003 M131.796 70.807 C 131.658 71.030,131.377 71.109,131.172 70.983 C 130.968 70.856,130.800 70.943,130.800 71.176 C 130.800 71.823,131.883 71.681,132.145 71.000 C 132.406 70.320,132.176 70.192,131.796 70.807 M168.100 71.100 C 186.525 71.157,216.675 71.157,235.100 71.100 C 253.525 71.042,238.450 70.995,201.600 70.995 C 164.750 70.995,149.675 71.042,168.100 71.100 M38.979 85.566 C 39.103 85.767,38.979 86.015,38.702 86.116 C 38.312 86.259,38.324 86.422,38.759 86.850 C 39.233 87.317,39.268 87.314,38.993 86.832 C 38.757 86.419,38.838 86.329,39.289 86.502 C 39.750 86.679,39.858 86.542,39.708 85.970 C 39.597 85.547,39.337 85.200,39.130 85.200 C 38.922 85.200,38.855 85.365,38.979 85.566 M41.462 85.500 C 41.360 85.665,47.469 85.800,55.038 85.800 C 62.607 85.800,68.800 85.665,68.800 85.500 C 68.800 85.335,62.691 85.200,55.224 85.200 C 47.757 85.200,41.564 85.335,41.462 85.500 M331.200 85.500 C 331.200 85.665,337.393 85.800,344.962 85.800 C 352.531 85.800,358.640 85.665,358.538 85.500 C 358.436 85.335,352.243 85.200,344.776 85.200 C 337.309 85.200,331.200 85.335,331.200 85.500 M360.292 85.970 C 360.142 86.542,360.250 86.679,360.711 86.502 C 361.162 86.329,361.243 86.419,361.007 86.832 C 360.732 87.314,360.767 87.317,361.241 86.850 C 361.676 86.422,361.688 86.259,361.298 86.116 C 361.021 86.015,360.897 85.767,361.021 85.566 C 361.145 85.365,361.078 85.200,360.870 85.200 C 360.663 85.200,360.403 85.547,360.292 85.970 M40.805 87.191 C 40.460 87.836,40.494 87.939,40.988 87.749 C 41.322 87.621,41.497 87.357,41.377 87.163 C 41.254 86.963,47.089 86.763,54.880 86.700 L 68.600 86.589 54.914 86.495 C 41.639 86.403,41.215 86.424,40.805 87.191 M345.120 86.700 C 352.911 86.763,358.746 86.963,358.623 87.163 C 358.503 87.357,358.678 87.621,359.012 87.749 C 359.506 87.939,359.540 87.836,359.195 87.191 C 358.785 86.424,358.361 86.403,345.086 86.495 L 331.400 86.589 345.120 86.700 M111.600 131.200 C 111.600 131.465,141.333 131.600,200.000 131.600 C 258.667 131.600,288.400 131.465,288.400 131.200 C 288.400 130.935,258.667 130.800,200.000 130.800 C 141.333 130.800,111.600 130.935,111.600 131.200 M139.376 175.776 C 138.638 176.323,138.634 176.386,139.297 177.058 C 139.859 177.629,140.092 177.668,140.497 177.259 C 140.902 176.851,140.844 176.811,140.200 177.051 C 139.519 177.305,139.474 177.259,139.897 176.738 C 140.170 176.402,140.275 176.008,140.130 175.863 C 139.985 175.718,140.077 175.600,140.333 175.600 C 140.590 175.600,140.800 175.791,140.800 176.024 C 140.800 176.257,140.983 176.334,141.207 176.196 C 141.711 175.884,141.330 175.200,140.653 175.200 C 140.378 175.200,139.804 175.459,139.376 175.776 M178.617 175.572 C 178.491 175.777,178.570 176.058,178.793 176.196 C 179.017 176.334,179.200 176.257,179.200 176.024 C 179.200 175.791,179.410 175.600,179.667 175.600 C 179.923 175.600,180.015 175.718,179.870 175.863 C 179.725 176.008,179.830 176.402,180.103 176.738 C 180.526 177.259,180.481 177.305,179.800 177.051 C 179.156 176.811,179.098 176.851,179.503 177.259 C 179.908 177.668,180.141 177.629,180.703 177.058 C 181.366 176.386,181.362 176.323,180.624 175.776 C 179.731 175.114,178.949 175.035,178.617 175.572 M219.376 175.776 C 218.638 176.323,218.634 176.386,219.297 177.058 C 219.859 177.629,220.092 177.668,220.497 177.259 C 220.902 176.851,220.844 176.811,220.200 177.051 C 219.519 177.305,219.474 177.259,219.897 176.738 C 220.170 176.402,220.275 176.008,220.130 175.863 C 219.985 175.718,220.077 175.600,220.333 175.600 C 220.590 175.600,220.800 175.791,220.800 176.024 C 220.800 176.257,220.983 176.334,221.207 176.196 C 221.711 175.884,221.330 175.200,220.653 175.200 C 220.378 175.200,219.804 175.459,219.376 175.776 M258.617 175.572 C 258.491 175.777,258.570 176.058,258.793 176.196 C 259.017 176.334,259.200 176.257,259.200 176.024 C 259.200 175.791,259.410 175.600,259.667 175.600 C 259.923 175.600,260.015 175.718,259.870 175.863 C 259.725 176.008,259.830 176.402,260.103 176.738 C 260.526 177.259,260.481 177.305,259.800 177.051 C 259.156 176.811,259.098 176.851,259.503 177.259 C 259.908 177.668,260.141 177.629,260.703 177.058 C 261.366 176.386,261.362 176.323,260.624 175.776 C 259.731 175.114,258.949 175.035,258.617 175.572 M138.526 178.612 C 138.567 179.333,138.738 179.838,138.907 179.734 C 139.075 179.630,139.117 179.390,139.000 179.200 C 138.883 179.010,138.990 178.730,139.238 178.576 C 139.486 178.423,139.847 178.546,140.039 178.849 C 140.327 179.305,140.388 179.296,140.391 178.800 C 140.392 178.470,139.957 177.997,139.423 177.750 C 138.496 177.320,138.456 177.359,138.526 178.612 M180.500 177.744 C 180.005 177.989,179.603 178.462,179.606 178.795 C 179.611 179.294,179.673 179.304,179.961 178.849 C 180.153 178.546,180.514 178.423,180.762 178.576 C 181.010 178.730,181.117 179.010,181.000 179.200 C 180.883 179.390,180.925 179.630,181.093 179.734 C 181.262 179.838,181.435 179.311,181.477 178.562 C 181.519 177.813,181.519 177.222,181.477 177.249 C 181.435 177.276,180.995 177.499,180.500 177.744 M218.526 178.612 C 218.567 179.333,218.738 179.838,218.907 179.734 C 219.075 179.630,219.117 179.390,219.000 179.200 C 218.883 179.010,218.990 178.730,219.238 178.576 C 219.486 178.423,219.847 178.546,220.039 178.849 C 220.327 179.305,220.388 179.296,220.391 178.800 C 220.392 178.470,219.957 177.997,219.423 177.750 C 218.496 177.320,218.456 177.359,218.526 178.612 M260.500 177.744 C 260.005 177.989,259.603 178.462,259.606 178.795 C 259.611 179.294,259.673 179.304,259.961 178.849 C 260.153 178.546,260.514 178.423,260.762 178.576 C 261.010 178.730,261.117 179.010,261.000 179.200 C 260.883 179.390,260.925 179.630,261.093 179.734 C 261.262 179.838,261.435 179.311,261.477 178.562 C 261.519 177.813,261.519 177.222,261.477 177.249 C 261.435 177.276,260.995 177.499,260.500 177.744 M141.455 178.200 C 141.253 178.728,143.476 178.800,160.000 178.800 C 176.524 178.800,178.747 178.728,178.545 178.200 C 178.345 177.679,175.910 177.600,160.000 177.600 C 144.090 177.600,141.655 177.679,141.455 178.200 M221.455 178.200 C 221.253 178.728,223.476 178.800,240.000 178.800 C 256.524 178.800,258.747 178.728,258.545 178.200 C 258.345 177.679,255.910 177.600,240.000 177.600 C 224.090 177.600,221.655 177.679,221.455 178.200 M138.526 301.388 C 138.456 302.641,138.496 302.680,139.423 302.250 C 139.957 302.003,140.392 301.530,140.391 301.200 C 140.388 300.704,140.327 300.695,140.039 301.151 C 139.847 301.454,139.486 301.577,139.238 301.424 C 138.990 301.270,138.883 300.990,139.000 300.800 C 139.117 300.610,139.075 300.370,138.907 300.266 C 138.738 300.162,138.567 300.667,138.526 301.388 M181.150 300.200 C 181.123 300.310,181.078 300.565,181.050 300.767 C 180.947 301.518,180.344 301.757,179.984 301.188 C 179.659 300.673,179.612 300.675,179.609 301.200 C 179.608 301.530,180.043 302.003,180.577 302.250 C 181.507 302.681,181.545 302.644,181.474 301.350 C 181.407 300.123,181.281 299.676,181.150 300.200 M218.526 301.388 C 218.456 302.641,218.496 302.680,219.423 302.250 C 219.957 302.003,220.392 301.530,220.391 301.200 C 220.388 300.704,220.327 300.695,220.039 301.151 C 219.847 301.454,219.486 301.577,219.238 301.424 C 218.990 301.270,218.883 300.990,219.000 300.800 C 219.117 300.610,219.075 300.370,218.907 300.266 C 218.738 300.162,218.567 300.667,218.526 301.388 M261.150 300.200 C 261.123 300.310,261.078 300.565,261.050 300.767 C 260.947 301.518,260.344 301.757,259.984 301.188 C 259.659 300.673,259.612 300.675,259.609 301.200 C 259.608 301.530,260.043 302.003,260.577 302.250 C 261.507 302.681,261.545 302.644,261.474 301.350 C 261.407 300.123,261.281 299.676,261.150 300.200 M141.455 301.800 C 141.655 302.321,144.090 302.400,160.000 302.400 C 175.910 302.400,178.345 302.321,178.545 301.800 C 178.747 301.272,176.524 301.200,160.000 301.200 C 143.476 301.200,141.253 301.272,141.455 301.800 M221.455 301.800 C 221.655 302.321,224.090 302.400,240.000 302.400 C 255.910 302.400,258.345 302.321,258.545 301.800 C 258.747 301.272,256.524 301.200,240.000 301.200 C 223.476 301.200,221.253 301.272,221.455 301.800 M139.164 303.043 C 138.598 303.725,139.509 304.800,140.653 304.800 C 141.330 304.800,141.711 304.116,141.207 303.804 C 140.983 303.666,140.800 303.743,140.800 303.976 C 140.800 304.209,140.590 304.400,140.333 304.400 C 140.077 304.400,139.985 304.282,140.130 304.137 C 140.275 303.992,140.170 303.598,139.897 303.262 C 139.479 302.747,139.514 302.693,140.121 302.921 C 140.554 303.083,140.744 303.033,140.597 302.795 C 140.245 302.226,139.775 302.307,139.164 303.043 M179.403 302.795 C 179.256 303.033,179.446 303.083,179.879 302.921 C 180.486 302.693,180.521 302.747,180.103 303.262 C 179.830 303.598,179.725 303.992,179.870 304.137 C 180.015 304.282,179.923 304.400,179.667 304.400 C 179.410 304.400,179.200 304.209,179.200 303.976 C 179.200 303.743,179.017 303.666,178.793 303.804 C 178.289 304.116,178.670 304.800,179.347 304.800 C 180.491 304.800,181.402 303.725,180.836 303.043 C 180.225 302.307,179.755 302.226,179.403 302.795 M219.164 303.043 C 218.598 303.725,219.509 304.800,220.653 304.800 C 221.330 304.800,221.711 304.116,221.207 303.804 C 220.983 303.666,220.800 303.743,220.800 303.976 C 220.800 304.209,220.590 304.400,220.333 304.400 C 220.077 304.400,219.985 304.282,220.130 304.137 C 220.275 303.992,220.170 303.598,219.897 303.262 C 219.479 302.747,219.514 302.693,220.121 302.921 C 220.554 303.083,220.744 303.033,220.597 302.795 C 220.245 302.226,219.775 302.307,219.164 303.043 M259.403 302.795 C 259.256 303.033,259.446 303.083,259.879 302.921 C 260.486 302.693,260.521 302.747,260.103 303.262 C 259.830 303.598,259.725 303.992,259.870 304.137 C 260.015 304.282,259.923 304.400,259.667 304.400 C 259.410 304.400,259.200 304.209,259.200 303.976 C 259.200 303.743,259.017 303.666,258.793 303.804 C 258.289 304.116,258.670 304.800,259.347 304.800 C 260.491 304.800,261.402 303.725,260.836 303.043 C 260.225 302.307,259.755 302.226,259.403 302.795 M155.500 348.700 C 179.975 348.757,220.025 348.757,244.500 348.700 C 268.975 348.643,248.950 348.596,200.000 348.596 C 151.050 348.596,131.025 348.643,155.500 348.700 M69.600 391.847 C 69.600 392.296,69.844 392.430,70.400 392.284 C 71.451 392.009,71.825 392.652,70.901 393.146 C 70.453 393.386,69.928 393.391,69.516 393.161 C 69.073 392.913,68.755 392.950,68.556 393.271 C 68.392 393.536,68.471 393.824,68.732 393.911 C 68.992 393.997,69.103 394.233,68.979 394.434 C 68.855 394.635,68.943 394.800,69.176 394.800 C 69.409 394.800,69.600 394.620,69.600 394.400 C 69.600 394.180,69.791 394.000,70.024 394.000 C 70.257 394.000,70.336 394.180,70.200 394.400 C 70.064 394.620,70.128 394.800,70.343 394.800 C 70.558 394.800,70.824 394.575,70.935 394.300 C 71.096 393.900,71.143 393.900,71.168 394.300 C 71.194 394.699,97.237 394.800,199.967 394.800 C 302.606 394.800,328.774 394.699,328.935 394.300 C 329.096 393.900,329.143 393.900,329.168 394.300 C 329.186 394.575,329.391 394.800,329.624 394.800 C 329.857 394.800,329.936 394.620,329.800 394.400 C 329.664 394.180,329.743 394.000,329.976 394.000 C 330.209 394.000,330.400 394.180,330.400 394.400 C 330.400 394.620,330.591 394.800,330.824 394.800 C 331.057 394.800,331.145 394.635,331.021 394.434 C 330.897 394.233,331.008 393.997,331.268 393.911 C 331.529 393.824,331.609 393.538,331.447 393.275 C 331.250 392.957,330.922 392.921,330.465 393.165 C 330.042 393.392,329.512 393.383,329.081 393.141 C 328.180 392.637,328.559 392.012,329.600 392.284 C 330.156 392.430,330.400 392.296,330.400 391.847 C 330.400 391.044,329.982 391.027,328.976 391.787 C 327.799 392.678,72.201 392.678,71.024 391.787 C 70.018 391.027,69.600 391.044,69.600 391.847 M135.700 391.500 C 171.065 391.556,228.935 391.556,264.300 391.500 C 299.665 391.444,270.730 391.398,200.000 391.398 C 129.270 391.398,100.335 391.444,135.700 391.500 M328.545 393.800 C 328.341 394.332,313.688 394.400,200.000 394.400 C 86.312 394.400,71.659 394.332,71.455 393.800 C 71.251 393.267,85.698 393.200,200.000 393.200 C 314.302 393.200,328.749 393.267,328.545 393.800 " stroke="none" fill="#484444" fill-rule="evenodd"></path><path id="path3" d="M128.792 25.810 C 128.377 26.309,128.420 26.671,129.027 27.798 C 129.463 28.608,129.880 28.994,130.039 28.736 C 130.189 28.495,130.511 28.421,130.755 28.572 C 131.000 28.724,131.200 28.657,131.200 28.424 C 131.200 27.920,132.059 28.033,132.538 28.600 C 132.736 28.835,132.786 28.721,132.660 28.326 C 132.542 27.955,132.660 27.552,132.922 27.430 C 133.185 27.307,132.995 27.308,132.500 27.431 C 131.989 27.557,131.600 27.469,131.600 27.227 C 131.600 26.992,131.780 26.800,132.000 26.800 C 132.220 26.800,132.355 26.575,132.300 26.300 C 132.245 26.025,132.425 25.845,132.700 25.900 C 132.975 25.955,133.200 25.820,133.200 25.600 C 133.200 25.058,132.664 25.096,132.080 25.680 C 131.707 26.053,131.600 26.053,131.600 25.680 C 131.600 25.416,131.398 25.200,131.151 25.200 C 130.844 25.200,130.862 25.393,131.208 25.810 C 131.486 26.145,131.583 26.550,131.423 26.710 C 131.262 26.869,130.803 26.595,130.401 26.100 C 129.536 25.033,129.449 25.017,128.792 25.810 M158.400 25.497 C 222.639 25.770,269.106 25.771,268.938 25.500 C 268.836 25.335,238.478 25.244,201.476 25.297 C 164.474 25.350,145.090 25.440,158.400 25.497 M269.660 25.580 C 269.832 26.096,270.381 26.188,270.430 25.710 C 270.447 25.550,270.244 25.348,269.980 25.260 C 269.716 25.172,269.572 25.316,269.660 25.580 M271.200 25.800 C 271.200 26.130,271.391 26.400,271.624 26.400 C 271.857 26.400,271.919 26.192,271.762 25.938 C 271.584 25.650,271.652 25.585,271.945 25.766 C 272.202 25.925,272.324 26.199,272.216 26.374 C 271.933 26.831,273.399 28.061,273.797 27.701 C 273.979 27.535,274.006 27.613,273.858 27.872 C 273.709 28.132,273.773 28.460,274.000 28.600 C 274.727 29.050,273.985 29.612,272.993 29.362 C 272.203 29.164,271.989 29.304,271.775 30.158 C 271.620 30.774,271.329 31.091,271.057 30.939 C 270.757 30.770,270.766 30.861,271.083 31.204 C 271.480 31.633,271.682 31.630,272.214 31.189 C 273.479 30.139,273.597 31.662,273.582 48.794 C 273.571 60.532,273.698 65.812,273.993 65.864 C 274.228 65.906,274.281 65.864,274.110 65.770 C 273.690 65.540,273.894 31.221,274.319 30.651 C 274.815 29.985,274.852 28.079,274.374 27.784 C 274.098 27.614,274.122 27.335,274.446 26.944 C 275.156 26.089,273.911 24.844,273.056 25.554 C 272.659 25.883,272.388 25.904,272.212 25.619 C 271.828 24.999,271.200 25.111,271.200 25.800 M274.136 26.623 C 273.955 27.093,273.784 27.119,273.334 26.746 C 272.887 26.374,272.871 26.203,273.262 25.962 C 273.944 25.540,274.415 25.896,274.136 26.623 M131.108 27.525 C 131.195 27.786,130.982 28.000,130.633 28.000 C 130.285 28.000,130.000 27.715,130.000 27.367 C 130.000 26.660,130.861 26.783,131.108 27.525 M271.200 27.400 C 270.926 27.730,270.409 28.011,270.051 28.025 C 269.610 28.043,269.691 28.168,270.300 28.412 C 271.358 28.838,271.519 29.275,270.500 28.955 C 269.907 28.768,269.919 28.832,270.582 29.371 C 271.275 29.936,271.402 29.939,271.702 29.404 C 271.888 29.072,272.301 28.800,272.620 28.800 C 272.939 28.800,273.200 28.601,273.200 28.357 C 273.200 28.114,272.936 28.016,272.613 28.140 C 272.290 28.264,271.902 28.165,271.751 27.921 C 271.586 27.653,271.658 27.589,271.934 27.759 C 272.229 27.942,272.307 27.822,272.153 27.421 C 271.859 26.656,271.818 26.655,271.200 27.400 M128.400 28.829 C 128.400 29.064,128.670 29.527,129.000 29.857 C 129.330 30.187,129.600 30.275,129.600 30.052 C 129.600 29.829,129.417 29.534,129.193 29.396 C 128.970 29.258,128.891 28.977,129.017 28.772 C 129.144 28.568,129.057 28.400,128.824 28.400 C 128.591 28.400,128.400 28.593,128.400 28.829 M272.496 48.100 C 272.406 64.080,272.354 65.200,271.700 65.206 C 271.269 65.210,271.169 65.325,271.439 65.506 C 271.886 65.805,272.061 67.220,271.633 67.078 C 271.505 67.035,271.395 67.180,271.388 67.400 C 271.382 67.620,271.607 67.747,271.888 67.682 C 272.170 67.618,272.400 67.763,272.400 68.006 C 272.400 68.249,272.232 68.344,272.028 68.217 C 271.823 68.091,271.540 68.173,271.400 68.400 C 271.260 68.627,270.990 68.717,270.800 68.600 C 270.610 68.483,270.339 68.574,270.198 68.803 C 270.056 69.032,270.089 69.194,270.270 69.163 C 271.390 68.968,272.177 69.227,271.600 69.600 C 271.117 69.912,271.181 69.989,271.924 69.994 C 272.432 69.997,272.744 69.832,272.617 69.628 C 272.491 69.423,272.571 69.142,272.795 69.003 C 273.019 68.864,273.088 68.294,272.948 67.736 C 272.736 66.890,272.819 66.746,273.447 66.875 C 273.917 66.971,274.152 67.302,274.073 67.755 C 273.997 68.188,274.118 68.374,274.373 68.217 C 275.121 67.754,274.833 66.798,273.804 66.329 L 272.808 65.875 272.700 48.438 L 272.591 31.000 272.496 48.100 M274.583 48.400 C 274.583 57.750,274.636 61.575,274.700 56.900 C 274.764 52.225,274.764 44.575,274.700 39.900 C 274.636 35.225,274.583 39.050,274.583 48.400 M273.796 69.207 C 273.658 69.430,273.393 69.519,273.207 69.405 C 273.022 69.290,272.921 69.660,272.983 70.226 C 273.063 70.958,272.972 71.132,272.668 70.828 C 272.433 70.593,271.916 70.400,271.520 70.400 C 271.124 70.400,270.800 70.220,270.800 70.000 C 270.800 69.780,270.624 69.600,270.409 69.600 C 270.170 69.600,270.196 69.992,270.473 70.600 C 270.954 71.655,271.394 71.858,271.795 71.208 C 271.948 70.961,272.322 70.994,272.809 71.298 C 273.764 71.895,274.477 71.316,274.637 69.816 C 274.746 68.796,274.265 68.448,273.796 69.207 M128.598 70.003 C 128.277 70.523,129.561 71.823,129.932 71.354 C 130.087 71.159,130.137 71.043,130.043 71.097 C 129.700 71.292,128.816 70.298,129.028 69.955 C 129.149 69.760,129.157 69.600,129.047 69.600 C 128.937 69.600,128.735 69.781,128.598 70.003 M131.796 70.807 C 131.658 71.030,131.377 71.109,131.172 70.983 C 130.968 70.856,130.800 70.943,130.800 71.176 C 130.800 71.823,131.883 71.681,132.145 71.000 C 132.406 70.320,132.176 70.192,131.796 70.807 M168.100 71.100 C 186.525 71.157,216.675 71.157,235.100 71.100 C 253.525 71.042,238.450 70.995,201.600 70.995 C 164.750 70.995,149.675 71.042,168.100 71.100 M38.979 85.566 C 39.103 85.767,38.979 86.015,38.702 86.116 C 38.312 86.259,38.324 86.422,38.759 86.850 C 39.233 87.317,39.268 87.314,38.993 86.832 C 38.757 86.419,38.838 86.329,39.289 86.502 C 39.750 86.679,39.858 86.542,39.708 85.970 C 39.597 85.547,39.337 85.200,39.130 85.200 C 38.922 85.200,38.855 85.365,38.979 85.566 M41.462 85.500 C 41.360 85.665,47.469 85.800,55.038 85.800 C 62.607 85.800,68.800 85.665,68.800 85.500 C 68.800 85.335,62.691 85.200,55.224 85.200 C 47.757 85.200,41.564 85.335,41.462 85.500 M331.200 85.500 C 331.200 85.665,337.393 85.800,344.962 85.800 C 352.531 85.800,358.640 85.665,358.538 85.500 C 358.436 85.335,352.243 85.200,344.776 85.200 C 337.309 85.200,331.200 85.335,331.200 85.500 M360.292 85.970 C 360.142 86.542,360.250 86.679,360.711 86.502 C 361.162 86.329,361.243 86.419,361.007 86.832 C 360.732 87.314,360.767 87.317,361.241 86.850 C 361.676 86.422,361.688 86.259,361.298 86.116 C 361.021 86.015,360.897 85.767,361.021 85.566 C 361.145 85.365,361.078 85.200,360.870 85.200 C 360.663 85.200,360.403 85.547,360.292 85.970 M40.805 87.191 C 40.460 87.836,40.494 87.939,40.988 87.749 C 41.322 87.621,41.497 87.357,41.377 87.163 C 41.254 86.963,47.089 86.763,54.880 86.700 L 68.600 86.589 54.914 86.495 C 41.639 86.403,41.215 86.424,40.805 87.191 M345.120 86.700 C 352.911 86.763,358.746 86.963,358.623 87.163 C 358.503 87.357,358.678 87.621,359.012 87.749 C 359.506 87.939,359.540 87.836,359.195 87.191 C 358.785 86.424,358.361 86.403,345.086 86.495 L 331.400 86.589 345.120 86.700 M111.600 131.200 C 111.600 131.465,141.333 131.600,200.000 131.600 C 258.667 131.600,288.400 131.465,288.400 131.200 C 288.400 130.935,258.667 130.800,200.000 130.800 C 141.333 130.800,111.600 130.935,111.600 131.200 M139.376 175.776 C 138.638 176.323,138.634 176.386,139.297 177.058 C 139.859 177.629,140.092 177.668,140.497 177.259 C 140.902 176.851,140.844 176.811,140.200 177.051 C 139.519 177.305,139.474 177.259,139.897 176.738 C 140.170 176.402,140.275 176.008,140.130 175.863 C 139.985 175.718,140.077 175.600,140.333 175.600 C 140.590 175.600,140.800 175.791,140.800 176.024 C 140.800 176.257,140.983 176.334,141.207 176.196 C 141.711 175.884,141.330 175.200,140.653 175.200 C 140.378 175.200,139.804 175.459,139.376 175.776 M178.617 175.572 C 178.491 175.777,178.570 176.058,178.793 176.196 C 179.017 176.334,179.200 176.257,179.200 176.024 C 179.200 175.791,179.410 175.600,179.667 175.600 C 179.923 175.600,180.015 175.718,179.870 175.863 C 179.725 176.008,179.830 176.402,180.103 176.738 C 180.526 177.259,180.481 177.305,179.800 177.051 C 179.156 176.811,179.098 176.851,179.503 177.259 C 179.908 177.668,180.141 177.629,180.703 177.058 C 181.366 176.386,181.362 176.323,180.624 175.776 C 179.731 175.114,178.949 175.035,178.617 175.572 M219.376 175.776 C 218.638 176.323,218.634 176.386,219.297 177.058 C 219.859 177.629,220.092 177.668,220.497 177.259 C 220.902 176.851,220.844 176.811,220.200 177.051 C 219.519 177.305,219.474 177.259,219.897 176.738 C 220.170 176.402,220.275 176.008,220.130 175.863 C 219.985 175.718,220.077 175.600,220.333 175.600 C 220.590 175.600,220.800 175.791,220.800 176.024 C 220.800 176.257,220.983 176.334,221.207 176.196 C 221.711 175.884,221.330 175.200,220.653 175.200 C 220.378 175.200,219.804 175.459,219.376 175.776 M258.617 175.572 C 258.491 175.777,258.570 176.058,258.793 176.196 C 259.017 176.334,259.200 176.257,259.200 176.024 C 259.200 175.791,259.410 175.600,259.667 175.600 C 259.923 175.600,260.015 175.718,259.870 175.863 C 259.725 176.008,259.830 176.402,260.103 176.738 C 260.526 177.259,260.481 177.305,259.800 177.051 C 259.156 176.811,259.098 176.851,259.503 177.259 C 259.908 177.668,260.141 177.629,260.703 177.058 C 261.366 176.386,261.362 176.323,260.624 175.776 C 259.731 175.114,258.949 175.035,258.617 175.572 M138.526 178.612 C 138.567 179.333,138.738 179.838,138.907 179.734 C 139.075 179.630,139.117 179.390,139.000 179.200 C 138.883 179.010,138.990 178.730,139.238 178.576 C 139.486 178.423,139.847 178.546,140.039 178.849 C 140.327 179.305,140.388 179.296,140.391 178.800 C 140.392 178.470,139.957 177.997,139.423 177.750 C 138.496 177.320,138.456 177.359,138.526 178.612 M180.500 177.744 C 180.005 177.989,179.603 178.462,179.606 178.795 C 179.611 179.294,179.673 179.304,179.961 178.849 C 180.153 178.546,180.514 178.423,180.762 178.576 C 181.010 178.730,181.117 179.010,181.000 179.200 C 180.883 179.390,180.925 179.630,181.093 179.734 C 181.262 179.838,181.435 179.311,181.477 178.562 C 181.519 177.813,181.519 177.222,181.477 177.249 C 181.435 177.276,180.995 177.499,180.500 177.744 M218.526 178.612 C 218.567 179.333,218.738 179.838,218.907 179.734 C 219.075 179.630,219.117 179.390,219.000 179.200 C 218.883 179.010,218.990 178.730,219.238 178.576 C 219.486 178.423,219.847 178.546,220.039 178.849 C 220.327 179.305,220.388 179.296,220.391 178.800 C 220.392 178.470,219.957 177.997,219.423 177.750 C 218.496 177.320,218.456 177.359,218.526 178.612 M260.500 177.744 C 260.005 177.989,259.603 178.462,259.606 178.795 C 259.611 179.294,259.673 179.304,259.961 178.849 C 260.153 178.546,260.514 178.423,260.762 178.576 C 261.010 178.730,261.117 179.010,261.000 179.200 C 260.883 179.390,260.925 179.630,261.093 179.734 C 261.262 179.838,261.435 179.311,261.477 178.562 C 261.519 177.813,261.519 177.222,261.477 177.249 C 261.435 177.276,260.995 177.499,260.500 177.744 M141.455 178.200 C 141.253 178.728,143.476 178.800,160.000 178.800 C 176.524 178.800,178.747 178.728,178.545 178.200 C 178.345 177.679,175.910 177.600,160.000 177.600 C 144.090 177.600,141.655 177.679,141.455 178.200 M221.455 178.200 C 221.253 178.728,223.476 178.800,240.000 178.800 C 256.524 178.800,258.747 178.728,258.545 178.200 C 258.345 177.679,255.910 177.600,240.000 177.600 C 224.090 177.600,221.655 177.679,221.455 178.200 M138.526 301.388 C 138.456 302.641,138.496 302.680,139.423 302.250 C 139.957 302.003,140.392 301.530,140.391 301.200 C 140.388 300.704,140.327 300.695,140.039 301.151 C 139.847 301.454,139.486 301.577,139.238 301.424 C 138.990 301.270,138.883 300.990,139.000 300.800 C 139.117 300.610,139.075 300.370,138.907 300.266 C 138.738 300.162,138.567 300.667,138.526 301.388 M181.150 300.200 C 181.123 300.310,181.078 300.565,181.050 300.767 C 180.947 301.518,180.344 301.757,179.984 301.188 C 179.659 300.673,179.612 300.675,179.609 301.200 C 179.608 301.530,180.043 302.003,180.577 302.250 C 181.507 302.681,181.545 302.644,181.474 301.350 C 181.407 300.123,181.281 299.676,181.150 300.200 M218.526 301.388 C 218.456 302.641,218.496 302.680,219.423 302.250 C 219.957 302.003,220.392 301.530,220.391 301.200 C 220.388 300.704,220.327 300.695,220.039 301.151 C 219.847 301.454,219.486 301.577,219.238 301.424 C 218.990 301.270,218.883 300.990,219.000 300.800 C 219.117 300.610,219.075 300.370,218.907 300.266 C 218.738 300.162,218.567 300.667,218.526 301.388 M261.150 300.200 C 261.123 300.310,261.078 300.565,261.050 300.767 C 260.947 301.518,260.344 301.757,259.984 301.188 C 259.659 300.673,259.612 300.675,259.609 301.200 C 259.608 301.530,260.043 302.003,260.577 302.250 C 261.507 302.681,261.545 302.644,261.474 301.350 C 261.407 300.123,261.281 299.676,261.150 300.200 M141.455 301.800 C 141.655 302.321,144.090 302.400,160.000 302.400 C 175.910 302.400,178.345 302.321,178.545 301.800 C 178.747 301.272,176.524 301.200,160.000 301.200 C 143.476 301.200,141.253 301.272,141.455 301.800 M221.455 301.800 C 221.655 302.321,224.090 302.400,240.000 302.400 C 255.910 302.400,258.345 302.321,258.545 301.800 C 258.747 301.272,256.524 301.200,240.000 301.200 C 223.476 301.200,221.253 301.272,221.455 301.800 M139.164 303.043 C 138.598 303.725,139.509 304.800,140.653 304.800 C 141.330 304.800,141.711 304.116,141.207 303.804 C 140.983 303.666,140.800 303.743,140.800 303.976 C 140.800 304.209,140.590 304.400,140.333 304.400 C 140.077 304.400,139.985 304.282,140.130 304.137 C 140.275 303.992,140.170 303.598,139.897 303.262 C 139.479 302.747,139.514 302.693,140.121 302.921 C 140.554 303.083,140.744 303.033,140.597 302.795 C 140.245 302.226,139.775 302.307,139.164 303.043 M179.403 302.795 C 179.256 303.033,179.446 303.083,179.879 302.921 C 180.486 302.693,180.521 302.747,180.103 303.262 C 179.830 303.598,179.725 303.992,179.870 304.137 C 180.015 304.282,179.923 304.400,179.667 304.400 C 179.410 304.400,179.200 304.209,179.200 303.976 C 179.200 303.743,179.017 303.666,178.793 303.804 C 178.289 304.116,178.670 304.800,179.347 304.800 C 180.491 304.800,181.402 303.725,180.836 303.043 C 180.225 302.307,179.755 302.226,179.403 302.795 M219.164 303.043 C 218.598 303.725,219.509 304.800,220.653 304.800 C 221.330 304.800,221.711 304.116,221.207 303.804 C 220.983 303.666,220.800 303.743,220.800 303.976 C 220.800 304.209,220.590 304.400,220.333 304.400 C 220.077 304.400,219.985 304.282,220.130 304.137 C 220.275 303.992,220.170 303.598,219.897 303.262 C 219.479 302.747,219.514 302.693,220.121 302.921 C 220.554 303.083,220.744 303.033,220.597 302.795 C 220.245 302.226,219.775 302.307,219.164 303.043 M259.403 302.795 C 259.256 303.033,259.446 303.083,259.879 302.921 C 260.486 302.693,260.521 302.747,260.103 303.262 C 259.830 303.598,259.725 303.992,259.870 304.137 C 260.015 304.282,259.923 304.400,259.667 304.400 C 259.410 304.400,259.200 304.209,259.200 303.976 C 259.200 303.743,259.017 303.666,258.793 303.804 C 258.289 304.116,258.670 304.800,259.347 304.800 C 260.491 304.800,261.402 303.725,260.836 303.043 C 260.225 302.307,259.755 302.226,259.403 302.795 M155.500 348.700 C 179.975 348.757,220.025 348.757,244.500 348.700 C 268.975 348.643,248.950 348.596,200.000 348.596 C 151.050 348.596,131.025 348.643,155.500 348.700 M69.600 391.847 C 69.600 392.296,69.844 392.430,70.400 392.284 C 71.451 392.009,71.825 392.652,70.901 393.146 C 70.453 393.386,69.928 393.391,69.516 393.161 C 69.073 392.913,68.755 392.950,68.556 393.271 C 68.392 393.536,68.471 393.824,68.732 393.911 C 68.992 393.997,69.103 394.233,68.979 394.434 C 68.855 394.635,68.943 394.800,69.176 394.800 C 69.409 394.800,69.600 394.620,69.600 394.400 C 69.600 394.180,69.791 394.000,70.024 394.000 C 70.257 394.000,70.336 394.180,70.200 394.400 C 70.064 394.620,70.128 394.800,70.343 394.800 C 70.558 394.800,70.824 394.575,70.935 394.300 C 71.096 393.900,71.143 393.900,71.168 394.300 C 71.194 394.699,97.237 394.800,199.967 394.800 C 302.606 394.800,328.774 394.699,328.935 394.300 C 329.096 393.900,329.143 393.900,329.168 394.300 C 329.186 394.575,329.391 394.800,329.624 394.800 C 329.857 394.800,329.936 394.620,329.800 394.400 C 329.664 394.180,329.743 394.000,329.976 394.000 C 330.209 394.000,330.400 394.180,330.400 394.400 C 330.400 394.620,330.591 394.800,330.824 394.800 C 331.057 394.800,331.145 394.635,331.021 394.434 C 330.897 394.233,331.008 393.997,331.268 393.911 C 331.529 393.824,331.609 393.538,331.447 393.275 C 331.250 392.957,330.922 392.921,330.465 393.165 C 330.042 393.392,329.512 393.383,329.081 393.141 C 328.180 392.637,328.559 392.012,329.600 392.284 C 330.156 392.430,330.400 392.296,330.400 391.847 C 330.400 391.044,329.982 391.027,328.976 391.787 C 327.799 392.678,72.201 392.678,71.024 391.787 C 70.018 391.027,69.600 391.044,69.600 391.847 M135.700 391.500 C 171.065 391.556,228.935 391.556,264.300 391.500 C 299.665 391.444,270.730 391.398,200.000 391.398 C 129.270 391.398,100.335 391.444,135.700 391.500 M328.545 393.800 C 328.341 394.332,313.688 394.400,200.000 394.400 C 86.312 394.400,71.659 394.332,71.455 393.800 C 71.251 393.267,85.698 393.200,200.000 393.200 C 314.302 393.200,328.749 393.267,328.545 393.800 " stroke="none" fill="#484444" fill-rule="evenodd"></path><path id="path4" d="M128.792 25.810 C 128.377 26.309,128.420 26.671,129.027 27.798 C 129.463 28.608,129.880 28.994,130.039 28.736 C 130.189 28.495,130.511 28.421,130.755 28.572 C 131.000 28.724,131.200 28.657,131.200 28.424 C 131.200 27.920,132.059 28.033,132.538 28.600 C 132.736 28.835,132.786 28.721,132.660 28.326 C 132.542 27.955,132.660 27.552,132.922 27.430 C 133.185 27.307,132.995 27.308,132.500 27.431 C 131.989 27.557,131.600 27.469,131.600 27.227 C 131.600 26.992,131.780 26.800,132.000 26.800 C 132.220 26.800,132.355 26.575,132.300 26.300 C 132.245 26.025,132.425 25.845,132.700 25.900 C 132.975 25.955,133.200 25.820,133.200 25.600 C 133.200 25.058,132.664 25.096,132.080 25.680 C 131.707 26.053,131.600 26.053,131.600 25.680 C 131.600 25.416,131.398 25.200,131.151 25.200 C 130.844 25.200,130.862 25.393,131.208 25.810 C 131.486 26.145,131.583 26.550,131.423 26.710 C 131.262 26.869,130.803 26.595,130.401 26.100 C 129.536 25.033,129.449 25.017,128.792 25.810 M158.400 25.497 C 222.639 25.770,269.106 25.771,268.938 25.500 C 268.836 25.335,238.478 25.244,201.476 25.297 C 164.474 25.350,145.090 25.440,158.400 25.497 M269.660 25.580 C 269.832 26.096,270.381 26.188,270.430 25.710 C 270.447 25.550,270.244 25.348,269.980 25.260 C 269.716 25.172,269.572 25.316,269.660 25.580 M271.200 25.800 C 271.200 26.130,271.391 26.400,271.624 26.400 C 271.857 26.400,271.919 26.192,271.762 25.938 C 271.584 25.650,271.652 25.585,271.945 25.766 C 272.202 25.925,272.324 26.199,272.216 26.374 C 271.933 26.831,273.399 28.061,273.797 27.701 C 273.979 27.535,274.006 27.613,273.858 27.872 C 273.709 28.132,273.773 28.460,274.000 28.600 C 274.727 29.050,273.985 29.612,272.993 29.362 C 272.203 29.164,271.989 29.304,271.775 30.158 C 271.620 30.774,271.329 31.091,271.057 30.939 C 270.757 30.770,270.766 30.861,271.083 31.204 C 271.480 31.633,271.682 31.630,272.214 31.189 C 273.479 30.139,273.597 31.662,273.582 48.794 C 273.571 60.532,273.698 65.812,273.993 65.864 C 274.228 65.906,274.281 65.864,274.110 65.770 C 273.690 65.540,273.894 31.221,274.319 30.651 C 274.815 29.985,274.852 28.079,274.374 27.784 C 274.098 27.614,274.122 27.335,274.446 26.944 C 275.156 26.089,273.911 24.844,273.056 25.554 C 272.659 25.883,272.388 25.904,272.212 25.619 C 271.828 24.999,271.200 25.111,271.200 25.800 M274.136 26.623 C 273.955 27.093,273.784 27.119,273.334 26.746 C 272.887 26.374,272.871 26.203,273.262 25.962 C 273.944 25.540,274.415 25.896,274.136 26.623 M131.108 27.525 C 131.195 27.786,130.982 28.000,130.633 28.000 C 130.285 28.000,130.000 27.715,130.000 27.367 C 130.000 26.660,130.861 26.783,131.108 27.525 M271.200 27.400 C 270.926 27.730,270.409 28.011,270.051 28.025 C 269.610 28.043,269.691 28.168,270.300 28.412 C 271.358 28.838,271.519 29.275,270.500 28.955 C 269.907 28.768,269.919 28.832,270.582 29.371 C 271.275 29.936,271.402 29.939,271.702 29.404 C 271.888 29.072,272.301 28.800,272.620 28.800 C 272.939 28.800,273.200 28.601,273.200 28.357 C 273.200 28.114,272.936 28.016,272.613 28.140 C 272.290 28.264,271.902 28.165,271.751 27.921 C 271.586 27.653,271.658 27.589,271.934 27.759 C 272.229 27.942,272.307 27.822,272.153 27.421 C 271.859 26.656,271.818 26.655,271.200 27.400 M128.400 28.829 C 128.400 29.064,128.670 29.527,129.000 29.857 C 129.330 30.187,129.600 30.275,129.600 30.052 C 129.600 29.829,129.417 29.534,129.193 29.396 C 128.970 29.258,128.891 28.977,129.017 28.772 C 129.144 28.568,129.057 28.400,128.824 28.400 C 128.591 28.400,128.400 28.593,128.400 28.829 M272.496 48.100 C 272.406 64.080,272.354 65.200,271.700 65.206 C 271.269 65.210,271.169 65.325,271.439 65.506 C 271.886 65.805,272.061 67.220,271.633 67.078 C 271.505 67.035,271.395 67.180,271.388 67.400 C 271.382 67.620,271.607 67.747,271.888 67.682 C 272.170 67.618,272.400 67.763,272.400 68.006 C 272.400 68.249,272.232 68.344,272.028 68.217 C 271.823 68.091,271.540 68.173,271.400 68.400 C 271.260 68.627,270.990 68.717,270.800 68.600 C 270.610 68.483,270.339 68.574,270.198 68.803 C 270.056 69.032,270.089 69.194,270.270 69.163 C 271.390 68.968,272.177 69.227,271.600 69.600 C 271.117 69.912,271.181 69.989,271.924 69.994 C 272.432 69.997,272.744 69.832,272.617 69.628 C 272.491 69.423,272.571 69.142,272.795 69.003 C 273.019 68.864,273.088 68.294,272.948 67.736 C 272.736 66.890,272.819 66.746,273.447 66.875 C 273.917 66.971,274.152 67.302,274.073 67.755 C 273.997 68.188,274.118 68.374,274.373 68.217 C 275.121 67.754,274.833 66.798,273.804 66.329 L 272.808 65.875 272.700 48.438 L 272.591 31.000 272.496 48.100 M274.583 48.400 C 274.583 57.750,274.636 61.575,274.700 56.900 C 274.764 52.225,274.764 44.575,274.700 39.900 C 274.636 35.225,274.583 39.050,274.583 48.400 M273.796 69.207 C 273.658 69.430,273.393 69.519,273.207 69.405 C 273.022 69.290,272.921 69.660,272.983 70.226 C 273.063 70.958,272.972 71.132,272.668 70.828 C 272.433 70.593,271.916 70.400,271.520 70.400 C 271.124 70.400,270.800 70.220,270.800 70.000 C 270.800 69.780,270.624 69.600,270.409 69.600 C 270.170 69.600,270.196 69.992,270.473 70.600 C 270.954 71.655,271.394 71.858,271.795 71.208 C 271.948 70.961,272.322 70.994,272.809 71.298 C 273.764 71.895,274.477 71.316,274.637 69.816 C 274.746 68.796,274.265 68.448,273.796 69.207 M128.598 70.003 C 128.277 70.523,129.561 71.823,129.932 71.354 C 130.087 71.159,130.137 71.043,130.043 71.097 C 129.700 71.292,128.816 70.298,129.028 69.955 C 129.149 69.760,129.157 69.600,129.047 69.600 C 128.937 69.600,128.735 69.781,128.598 70.003 M131.796 70.807 C 131.658 71.030,131.377 71.109,131.172 70.983 C 130.968 70.856,130.800 70.943,130.800 71.176 C 130.800 71.823,131.883 71.681,132.145 71.000 C 132.406 70.320,132.176 70.192,131.796 70.807 M168.100 71.100 C 186.525 71.157,216.675 71.157,235.100 71.100 C 253.525 71.042,238.450 70.995,201.600 70.995 C 164.750 70.995,149.675 71.042,168.100 71.100 M38.979 85.566 C 39.103 85.767,38.979 86.015,38.702 86.116 C 38.312 86.259,38.324 86.422,38.759 86.850 C 39.233 87.317,39.268 87.314,38.993 86.832 C 38.757 86.419,38.838 86.329,39.289 86.502 C 39.750 86.679,39.858 86.542,39.708 85.970 C 39.597 85.547,39.337 85.200,39.130 85.200 C 38.922 85.200,38.855 85.365,38.979 85.566 M41.462 85.500 C 41.360 85.665,47.469 85.800,55.038 85.800 C 62.607 85.800,68.800 85.665,68.800 85.500 C 68.800 85.335,62.691 85.200,55.224 85.200 C 47.757 85.200,41.564 85.335,41.462 85.500 M331.200 85.500 C 331.200 85.665,337.393 85.800,344.962 85.800 C 352.531 85.800,358.640 85.665,358.538 85.500 C 358.436 85.335,352.243 85.200,344.776 85.200 C 337.309 85.200,331.200 85.335,331.200 85.500 M360.292 85.970 C 360.142 86.542,360.250 86.679,360.711 86.502 C 361.162 86.329,361.243 86.419,361.007 86.832 C 360.732 87.314,360.767 87.317,361.241 86.850 C 361.676 86.422,361.688 86.259,361.298 86.116 C 361.021 86.015,360.897 85.767,361.021 85.566 C 361.145 85.365,361.078 85.200,360.870 85.200 C 360.663 85.200,360.403 85.547,360.292 85.970 M40.805 87.191 C 40.460 87.836,40.494 87.939,40.988 87.749 C 41.322 87.621,41.497 87.357,41.377 87.163 C 41.254 86.963,47.089 86.763,54.880 86.700 L 68.600 86.589 54.914 86.495 C 41.639 86.403,41.215 86.424,40.805 87.191 M345.120 86.700 C 352.911 86.763,358.746 86.963,358.623 87.163 C 358.503 87.357,358.678 87.621,359.012 87.749 C 359.506 87.939,359.540 87.836,359.195 87.191 C 358.785 86.424,358.361 86.403,345.086 86.495 L 331.400 86.589 345.120 86.700 M111.600 131.200 C 111.600 131.465,141.333 131.600,200.000 131.600 C 258.667 131.600,288.400 131.465,288.400 131.200 C 288.400 130.935,258.667 130.800,200.000 130.800 C 141.333 130.800,111.600 130.935,111.600 131.200 M139.376 175.776 C 138.638 176.323,138.634 176.386,139.297 177.058 C 139.859 177.629,140.092 177.668,140.497 177.259 C 140.902 176.851,140.844 176.811,140.200 177.051 C 139.519 177.305,139.474 177.259,139.897 176.738 C 140.170 176.402,140.275 176.008,140.130 175.863 C 139.985 175.718,140.077 175.600,140.333 175.600 C 140.590 175.600,140.800 175.791,140.800 176.024 C 140.800 176.257,140.983 176.334,141.207 176.196 C 141.711 175.884,141.330 175.200,140.653 175.200 C 140.378 175.200,139.804 175.459,139.376 175.776 M178.617 175.572 C 178.491 175.777,178.570 176.058,178.793 176.196 C 179.017 176.334,179.200 176.257,179.200 176.024 C 179.200 175.791,179.410 175.600,179.667 175.600 C 179.923 175.600,180.015 175.718,179.870 175.863 C 179.725 176.008,179.830 176.402,180.103 176.738 C 180.526 177.259,180.481 177.305,179.800 177.051 C 179.156 176.811,179.098 176.851,179.503 177.259 C 179.908 177.668,180.141 177.629,180.703 177.058 C 181.366 176.386,181.362 176.323,180.624 175.776 C 179.731 175.114,178.949 175.035,178.617 175.572 M219.376 175.776 C 218.638 176.323,218.634 176.386,219.297 177.058 C 219.859 177.629,220.092 177.668,220.497 177.259 C 220.902 176.851,220.844 176.811,220.200 177.051 C 219.519 177.305,219.474 177.259,219.897 176.738 C 220.170 176.402,220.275 176.008,220.130 175.863 C 219.985 175.718,220.077 175.600,220.333 175.600 C 220.590 175.600,220.800 175.791,220.800 176.024 C 220.800 176.257,220.983 176.334,221.207 176.196 C 221.711 175.884,221.330 175.200,220.653 175.200 C 220.378 175.200,219.804 175.459,219.376 175.776 M258.617 175.572 C 258.491 175.777,258.570 176.058,258.793 176.196 C 259.017 176.334,259.200 176.257,259.200 176.024 C 259.200 175.791,259.410 175.600,259.667 175.600 C 259.923 175.600,260.015 175.718,259.870 175.863 C 259.725 176.008,259.830 176.402,260.103 176.738 C 260.526 177.259,260.481 177.305,259.800 177.051 C 259.156 176.811,259.098 176.851,259.503 177.259 C 259.908 177.668,260.141 177.629,260.703 177.058 C 261.366 176.386,261.362 176.323,260.624 175.776 C 259.731 175.114,258.949 175.035,258.617 175.572 M138.526 178.612 C 138.567 179.333,138.738 179.838,138.907 179.734 C 139.075 179.630,139.117 179.390,139.000 179.200 C 138.883 179.010,138.990 178.730,139.238 178.576 C 139.486 178.423,139.847 178.546,140.039 178.849 C 140.327 179.305,140.388 179.296,140.391 178.800 C 140.392 178.470,139.957 177.997,139.423 177.750 C 138.496 177.320,138.456 177.359,138.526 178.612 M180.500 177.744 C 180.005 177.989,179.603 178.462,179.606 178.795 C 179.611 179.294,179.673 179.304,179.961 178.849 C 180.153 178.546,180.514 178.423,180.762 178.576 C 181.010 178.730,181.117 179.010,181.000 179.200 C 180.883 179.390,180.925 179.630,181.093 179.734 C 181.262 179.838,181.435 179.311,181.477 178.562 C 181.519 177.813,181.519 177.222,181.477 177.249 C 181.435 177.276,180.995 177.499,180.500 177.744 M218.526 178.612 C 218.567 179.333,218.738 179.838,218.907 179.734 C 219.075 179.630,219.117 179.390,219.000 179.200 C 218.883 179.010,218.990 178.730,219.238 178.576 C 219.486 178.423,219.847 178.546,220.039 178.849 C 220.327 179.305,220.388 179.296,220.391 178.800 C 220.392 178.470,219.957 177.997,219.423 177.750 C 218.496 177.320,218.456 177.359,218.526 178.612 M260.500 177.744 C 260.005 177.989,259.603 178.462,259.606 178.795 C 259.611 179.294,259.673 179.304,259.961 178.849 C 260.153 178.546,260.514 178.423,260.762 178.576 C 261.010 178.730,261.117 179.010,261.000 179.200 C 260.883 179.390,260.925 179.630,261.093 179.734 C 261.262 179.838,261.435 179.311,261.477 178.562 C 261.519 177.813,261.519 177.222,261.477 177.249 C 261.435 177.276,260.995 177.499,260.500 177.744 M141.455 178.200 C 141.253 178.728,143.476 178.800,160.000 178.800 C 176.524 178.800,178.747 178.728,178.545 178.200 C 178.345 177.679,175.910 177.600,160.000 177.600 C 144.090 177.600,141.655 177.679,141.455 178.200 M221.455 178.200 C 221.253 178.728,223.476 178.800,240.000 178.800 C 256.524 178.800,258.747 178.728,258.545 178.200 C 258.345 177.679,255.910 177.600,240.000 177.600 C 224.090 177.600,221.655 177.679,221.455 178.200 M138.526 301.388 C 138.456 302.641,138.496 302.680,139.423 302.250 C 139.957 302.003,140.392 301.530,140.391 301.200 C 140.388 300.704,140.327 300.695,140.039 301.151 C 139.847 301.454,139.486 301.577,139.238 301.424 C 138.990 301.270,138.883 300.990,139.000 300.800 C 139.117 300.610,139.075 300.370,138.907 300.266 C 138.738 300.162,138.567 300.667,138.526 301.388 M181.150 300.200 C 181.123 300.310,181.078 300.565,181.050 300.767 C 180.947 301.518,180.344 301.757,179.984 301.188 C 179.659 300.673,179.612 300.675,179.609 301.200 C 179.608 301.530,180.043 302.003,180.577 302.250 C 181.507 302.681,181.545 302.644,181.474 301.350 C 181.407 300.123,181.281 299.676,181.150 300.200 M218.526 301.388 C 218.456 302.641,218.496 302.680,219.423 302.250 C 219.957 302.003,220.392 301.530,220.391 301.200 C 220.388 300.704,220.327 300.695,220.039 301.151 C 219.847 301.454,219.486 301.577,219.238 301.424 C 218.990 301.270,218.883 300.990,219.000 300.800 C 219.117 300.610,219.075 300.370,218.907 300.266 C 218.738 300.162,218.567 300.667,218.526 301.388 M261.150 300.200 C 261.123 300.310,261.078 300.565,261.050 300.767 C 260.947 301.518,260.344 301.757,259.984 301.188 C 259.659 300.673,259.612 300.675,259.609 301.200 C 259.608 301.530,260.043 302.003,260.577 302.250 C 261.507 302.681,261.545 302.644,261.474 301.350 C 261.407 300.123,261.281 299.676,261.150 300.200 M141.455 301.800 C 141.655 302.321,144.090 302.400,160.000 302.400 C 175.910 302.400,178.345 302.321,178.545 301.800 C 178.747 301.272,176.524 301.200,160.000 301.200 C 143.476 301.200,141.253 301.272,141.455 301.800 M221.455 301.800 C 221.655 302.321,224.090 302.400,240.000 302.400 C 255.910 302.400,258.345 302.321,258.545 301.800 C 258.747 301.272,256.524 301.200,240.000 301.200 C 223.476 301.200,221.253 301.272,221.455 301.800 M139.164 303.043 C 138.598 303.725,139.509 304.800,140.653 304.800 C 141.330 304.800,141.711 304.116,141.207 303.804 C 140.983 303.666,140.800 303.743,140.800 303.976 C 140.800 304.209,140.590 304.400,140.333 304.400 C 140.077 304.400,139.985 304.282,140.130 304.137 C 140.275 303.992,140.170 303.598,139.897 303.262 C 139.479 302.747,139.514 302.693,140.121 302.921 C 140.554 303.083,140.744 303.033,140.597 302.795 C 140.245 302.226,139.775 302.307,139.164 303.043 M179.403 302.795 C 179.256 303.033,179.446 303.083,179.879 302.921 C 180.486 302.693,180.521 302.747,180.103 303.262 C 179.830 303.598,179.725 303.992,179.870 304.137 C 180.015 304.282,179.923 304.400,179.667 304.400 C 179.410 304.400,179.200 304.209,179.200 303.976 C 179.200 303.743,179.017 303.666,178.793 303.804 C 178.289 304.116,178.670 304.800,179.347 304.800 C 180.491 304.800,181.402 303.725,180.836 303.043 C 180.225 302.307,179.755 302.226,179.403 302.795 M219.164 303.043 C 218.598 303.725,219.509 304.800,220.653 304.800 C 221.330 304.800,221.711 304.116,221.207 303.804 C 220.983 303.666,220.800 303.743,220.800 303.976 C 220.800 304.209,220.590 304.400,220.333 304.400 C 220.077 304.400,219.985 304.282,220.130 304.137 C 220.275 303.992,220.170 303.598,219.897 303.262 C 219.479 302.747,219.514 302.693,220.121 302.921 C 220.554 303.083,220.744 303.033,220.597 302.795 C 220.245 302.226,219.775 302.307,219.164 303.043 M259.403 302.795 C 259.256 303.033,259.446 303.083,259.879 302.921 C 260.486 302.693,260.521 302.747,260.103 303.262 C 259.830 303.598,259.725 303.992,259.870 304.137 C 260.015 304.282,259.923 304.400,259.667 304.400 C 259.410 304.400,259.200 304.209,259.200 303.976 C 259.200 303.743,259.017 303.666,258.793 303.804 C 258.289 304.116,258.670 304.800,259.347 304.800 C 260.491 304.800,261.402 303.725,260.836 303.043 C 260.225 302.307,259.755 302.226,259.403 302.795 M155.500 348.700 C 179.975 348.757,220.025 348.757,244.500 348.700 C 268.975 348.643,248.950 348.596,200.000 348.596 C 151.050 348.596,131.025 348.643,155.500 348.700 M69.600 391.847 C 69.600 392.296,69.844 392.430,70.400 392.284 C 71.451 392.009,71.825 392.652,70.901 393.146 C 70.453 393.386,69.928 393.391,69.516 393.161 C 69.073 392.913,68.755 392.950,68.556 393.271 C 68.392 393.536,68.471 393.824,68.732 393.911 C 68.992 393.997,69.103 394.233,68.979 394.434 C 68.855 394.635,68.943 394.800,69.176 394.800 C 69.409 394.800,69.600 394.620,69.600 394.400 C 69.600 394.180,69.791 394.000,70.024 394.000 C 70.257 394.000,70.336 394.180,70.200 394.400 C 70.064 394.620,70.128 394.800,70.343 394.800 C 70.558 394.800,70.824 394.575,70.935 394.300 C 71.096 393.900,71.143 393.900,71.168 394.300 C 71.194 394.699,97.237 394.800,199.967 394.800 C 302.606 394.800,328.774 394.699,328.935 394.300 C 329.096 393.900,329.143 393.900,329.168 394.300 C 329.186 394.575,329.391 394.800,329.624 394.800 C 329.857 394.800,329.936 394.620,329.800 394.400 C 329.664 394.180,329.743 394.000,329.976 394.000 C 330.209 394.000,330.400 394.180,330.400 394.400 C 330.400 394.620,330.591 394.800,330.824 394.800 C 331.057 394.800,331.145 394.635,331.021 394.434 C 330.897 394.233,331.008 393.997,331.268 393.911 C 331.529 393.824,331.609 393.538,331.447 393.275 C 331.250 392.957,330.922 392.921,330.465 393.165 C 330.042 393.392,329.512 393.383,329.081 393.141 C 328.180 392.637,328.559 392.012,329.600 392.284 C 330.156 392.430,330.400 392.296,330.400 391.847 C 330.400 391.044,329.982 391.027,328.976 391.787 C 327.799 392.678,72.201 392.678,71.024 391.787 C 70.018 391.027,69.600 391.044,69.600 391.847 M135.700 391.500 C 171.065 391.556,228.935 391.556,264.300 391.500 C 299.665 391.444,270.730 391.398,200.000 391.398 C 129.270 391.398,100.335 391.444,135.700 391.500 M328.545 393.800 C 328.341 394.332,313.688 394.400,200.000 394.400 C 86.312 394.400,71.659 394.332,71.455 393.800 C 71.251 393.267,85.698 393.200,200.000 393.200 C 314.302 393.200,328.749 393.267,328.545 393.800 " stroke="none" fill="#484444" fill-rule="evenodd"></path></g></svg>